<?xml version="1.0" standalone="no"?>
<!DOCTYPE svg PUBLIC "-//W3C//DTD SVG 20010904//EN"
 "http://www.w3.org/TR/2001/REC-SVG-20010904/DTD/svg10.dtd">
<svg version="1.0" xmlns="http://www.w3.org/2000/svg"
 width="1024.000000pt" height="1024.000000pt" viewBox="0 0 1024.000000 1024.000000"
 preserveAspectRatio="xMidYMid meet">
<metadata>
Created by potrace 1.13, written by Peter Selinger 2001-2015
</metadata>
<g transform="translate(0.000000,1024.000000) scale(0.100000,-0.100000)"
fill="#000000" stroke="none">
<path d="M4985 9380 c-149 -23 -319 -41 -470 -50 -214 -13 -282 -24 -372 -60
-40 -16 -123 -39 -185 -50 -72 -14 -138 -33 -183 -54 -38 -19 -104 -41 -145
-50 -46 -11 -100 -32 -140 -56 -36 -21 -84 -43 -107 -49 -22 -6 -65 -27 -93
-47 -29 -20 -78 -45 -109 -55 -31 -11 -72 -33 -93 -49 -20 -16 -62 -41 -95
-55 -32 -14 -74 -39 -93 -54 -19 -15 -55 -37 -81 -48 -25 -11 -61 -34 -80 -50
-18 -17 -54 -41 -79 -53 -25 -12 -62 -38 -82 -56 -20 -18 -55 -42 -78 -54 -22
-11 -40 -25 -40 -30 0 -5 -24 -27 -53 -49 -30 -21 -67 -52 -83 -68 -16 -15
-60 -57 -98 -92 -87 -83 -315 -331 -429 -468 -68 -82 -113 -141 -145 -191 -15
-24 -45 -65 -66 -90 -21 -26 -45 -61 -52 -79 -8 -18 -27 -48 -44 -66 -16 -19
-43 -63 -58 -98 -16 -35 -39 -72 -50 -83 -12 -10 -31 -44 -42 -75 -12 -31 -38
-85 -60 -121 -21 -36 -46 -92 -55 -125 -9 -33 -30 -81 -46 -106 -16 -25 -38
-81 -49 -125 -11 -43 -36 -113 -55 -155 -20 -43 -42 -111 -50 -159 -17 -99
-19 -104 -56 -202 -22 -59 -34 -119 -49 -250 -11 -95 -30 -227 -43 -293 -19
-108 -22 -152 -22 -445 0 -293 3 -337 22 -445 13 -66 32 -198 43 -293 15 -131
27 -191 49 -250 37 -98 39 -103 56 -202 8 -48 30 -116 50 -159 19 -42 44 -112
55 -155 11 -44 33 -100 49 -125 16 -25 37 -73 46 -106 9 -33 34 -89 55 -125
22 -36 48 -90 60 -121 11 -31 30 -65 42 -75 11 -11 34 -48 50 -83 15 -35 42
-79 58 -98 17 -18 36 -48 44 -66 7 -18 31 -53 52 -79 21 -25 51 -66 66 -90 32
-50 77 -109 145 -191 114 -137 342 -385 429 -468 38 -35 82 -77 98 -92 16 -16
53 -47 83 -68 29 -22 53 -44 53 -49 0 -5 18 -19 40 -30 23 -12 58 -36 78 -54
20 -18 57 -44 82 -56 25 -12 61 -36 79 -53 19 -16 55 -39 80 -50 26 -11 62
-33 81 -48 19 -15 61 -40 93 -54 33 -14 75 -39 95 -55 21 -16 62 -38 93 -49
31 -10 80 -35 109 -55 28 -20 71 -41 93 -47 23 -6 71 -28 107 -49 40 -24 94
-45 140 -56 41 -9 107 -31 145 -50 45 -21 111 -40 183 -54 62 -11 145 -34 185
-50 93 -37 152 -46 372 -60 99 -6 230 -18 290 -26 323 -43 307 -43 630 0 61 8
191 20 290 26 220 14 279 23 372 60 40 16 123 39 185 50 72 14 138 33 183 54
39 19 104 41 145 50 46 11 100 32 140 56 36 21 84 43 107 49 22 6 65 27 93 47
29 20 78 45 109 55 31 11 72 33 93 49 20 16 62 41 95 55 32 14 74 39 93 54 19
15 55 37 81 48 25 11 61 34 80 50 18 17 54 41 79 53 25 12 62 38 82 56 20 18
55 42 78 54 22 11 40 25 40 30 0 5 24 27 53 49 30 21 67 52 83 68 16 15 60 57
98 92 87 83 315 331 429 468 68 82 113 141 145 191 15 24 45 65 66 90 21 26
45 61 52 79 8 18 27 48 44 66 16 19 43 63 58 98 16 35 39 72 50 83 12 10 31
44 42 75 12 31 38 85 60 121 21 36 46 92 55 125 9 33 30 81 46 106 16 25 38
81 49 125 11 43 36 113 55 155 20 43 42 111 50 159 17 99 19 104 56 202 22 59
34 119 49 250 11 95 30 227 43 293 19 108 22 152 22 445 0 293 -3 337 -22 445
-13 66 -32 198 -43 293 -15 131 -27 191 -49 250 -37 98 -39 103 -56 202 -8 48
-30 116 -50 159 -19 42 -44 112 -55 155 -11 44 -33 100 -49 125 -16 25 -37 73
-46 106 -9 33 -34 89 -55 125 -22 36 -48 90 -60 121 -11 31 -30 65 -42 75 -11
11 -34 48 -50 83 -15 35 -42 79 -58 98 -17 18 -36 48 -44 66 -7 18 -31 53 -52
79 -21 25 -51 66 -66 90 -32 50 -77 109 -145 191 -114 137 -342 385 -429 468
-38 35 -82 77 -98 92 -16 16 -53 47 -83 68 -29 22 -53 44 -53 49 0 5 -18 19
-40 30 -23 12 -58 36 -78 54 -20 18 -57 44 -82 56 -25 12 -61 36 -79 53 -19
16 -55 39 -80 50 -26 11 -62 33 -81 48 -19 15 -61 40 -93 54 -33 14 -75 39
-95 55 -21 16 -62 38 -93 49 -31 10 -80 35 -109 55 -28 20 -71 41 -93 47 -23
6 -71 28 -107 49 -40 24 -94 45 -140 56 -41 9 -106 31 -145 50 -45 21 -111 40
-183 54 -62 11 -145 34 -185 50 -85 34 -154 47 -297 55 -178 10 -339 26 -480
46 -139 19 -247 22 -335 9z m340 -1080 c206 -12 283 -23 398 -55 48 -14 147
-34 220 -45 109 -17 146 -27 212 -59 44 -22 105 -45 135 -51 59 -14 101 -32
139 -61 13 -11 53 -28 90 -39 37 -11 82 -31 101 -46 19 -14 60 -38 90 -52 30
-14 77 -43 104 -65 27 -21 67 -47 88 -58 21 -11 44 -29 51 -40 6 -11 28 -30
47 -41 39 -24 73 -53 275 -232 182 -160 357 -345 417 -441 14 -22 35 -49 48
-60 12 -11 31 -37 42 -58 10 -21 34 -58 53 -82 18 -24 43 -69 54 -99 11 -31
34 -74 50 -97 37 -51 55 -134 48 -221 -9 -110 -42 -147 -155 -177 -37 -10 -56
-9 -125 9 -105 26 -133 37 -182 71 -22 15 -74 37 -115 49 -41 12 -96 35 -121
51 -25 16 -83 38 -130 50 -46 11 -108 34 -137 50 -29 16 -94 39 -145 50 -50
12 -123 36 -162 55 -47 22 -107 40 -180 53 -60 11 -148 34 -195 51 -57 21
-132 38 -230 51 -80 11 -170 26 -200 34 -161 41 -456 65 -790 65 -334 0 -629
-24 -790 -65 -30 -8 -120 -23 -200 -34 -98 -13 -173 -30 -230 -51 -47 -17
-134 -40 -195 -51 -73 -13 -133 -31 -180 -53 -38 -19 -112 -43 -162 -55 -51
-11 -116 -34 -145 -50 -29 -16 -91 -39 -137 -50 -47 -12 -105 -34 -130 -50
-25 -16 -80 -39 -121 -51 -41 -12 -97 -37 -125 -56 -100 -67 -280 -83 -381
-33 -43 21 -51 31 -67 74 -30 85 -8 218 48 291 14 18 34 57 46 88 11 31 36 77
54 101 19 24 43 61 53 82 11 21 30 47 42 58 13 11 34 38 48 60 60 96 235 281
417 441 202 179 236 208 275 232 19 11 41 30 47 41 7 11 30 29 51 40 21 11 61
37 88 58 27 22 74 51 104 65 30 14 71 38 90 52 19 15 64 35 101 46 37 11 77
28 90 39 38 29 80 47 139 61 30 6 91 29 135 51 66 32 103 42 213 59 73 11 171
31 218 44 105 31 201 45 374 55 198 12 247 12 435 1z m-68 -2311 c30 -10 102
-28 161 -39 77 -14 116 -27 145 -47 21 -16 63 -42 93 -59 30 -16 65 -44 77
-62 13 -17 36 -41 51 -53 14 -11 34 -35 42 -52 9 -18 34 -55 55 -83 23 -30 52
-87 68 -135 16 -46 38 -109 50 -139 29 -77 30 -310 2 -385 -11 -27 -33 -88
-50 -135 -17 -47 -40 -96 -51 -110 -11 -14 -36 -51 -56 -84 -51 -80 -148 -178
-210 -209 -27 -14 -56 -33 -64 -42 -23 -28 -67 -45 -173 -66 -56 -12 -124 -30
-152 -41 -34 -14 -73 -20 -125 -20 -52 0 -91 6 -125 20 -27 11 -97 29 -155 41
-74 15 -116 29 -143 49 -21 15 -63 41 -91 57 -66 37 -161 133 -209 211 -21 32
-46 70 -57 84 -11 14 -34 63 -51 110 -17 47 -39 108 -50 135 -28 75 -27 308 2
385 12 30 34 93 50 139 16 48 45 105 68 135 21 28 46 65 55 83 8 17 28 41 42
52 15 12 38 36 51 53 12 18 47 46 77 62 30 17 72 43 93 59 29 20 68 33 144 47
57 11 131 29 164 39 33 11 71 22 85 25 41 7 128 -4 187 -25z m-2762 -1579
c176 -10 256 -25 326 -61 22 -11 80 -29 128 -39 109 -24 116 -27 167 -61 23
-15 65 -37 95 -48 29 -12 73 -34 96 -51 23 -17 66 -41 95 -54 29 -13 62 -34
73 -46 11 -12 40 -34 65 -48 97 -56 297 -254 364 -360 15 -24 34 -46 42 -49 8
-3 26 -26 41 -52 14 -25 39 -59 54 -76 15 -16 41 -59 59 -95 18 -36 43 -76 55
-90 13 -14 34 -52 46 -85 12 -33 35 -78 51 -101 17 -23 38 -75 49 -119 11 -43
33 -103 48 -134 34 -67 46 -121 66 -308 29 -272 18 -390 -42 -453 -21 -22 -32
-25 -96 -25 -64 0 -81 4 -157 42 -47 23 -112 47 -145 53 -35 7 -87 28 -125 50
-36 21 -86 44 -112 50 -26 7 -75 32 -109 56 -34 23 -74 46 -89 49 -15 3 -45
21 -66 39 -22 18 -63 45 -92 60 -29 15 -69 42 -90 60 -20 18 -48 39 -62 46
-28 14 -61 43 -225 189 -116 104 -204 195 -295 306 -30 36 -70 83 -88 103 -19
20 -48 59 -66 86 -18 28 -41 57 -50 65 -10 8 -28 36 -41 61 -13 25 -38 64 -57
86 -18 22 -42 60 -53 85 -10 24 -34 63 -52 87 -17 24 -39 67 -49 95 -9 29 -31
75 -50 102 -18 28 -43 85 -54 128 -12 43 -37 112 -57 153 -56 119 -57 253 0
283 51 27 114 40 172 35 33 -2 137 -9 230 -14z m5570 9 c76 -21 103 -39 116
-76 19 -60 6 -153 -34 -237 -20 -41 -45 -110 -57 -153 -11 -43 -36 -100 -54
-128 -19 -27 -41 -73 -50 -102 -10 -28 -32 -71 -49 -95 -18 -24 -42 -63 -52
-87 -11 -25 -35 -63 -53 -85 -19 -22 -44 -61 -57 -86 -13 -25 -31 -53 -41 -61
-9 -8 -32 -37 -50 -65 -18 -27 -47 -66 -66 -86 -18 -20 -58 -67 -88 -103 -91
-111 -179 -202 -295 -306 -164 -146 -197 -175 -225 -189 -14 -7 -42 -28 -62
-46 -21 -18 -61 -45 -90 -60 -29 -15 -70 -42 -92 -60 -21 -18 -51 -36 -66 -39
-15 -3 -55 -26 -89 -49 -34 -24 -83 -49 -109 -56 -26 -6 -76 -29 -112 -50 -38
-22 -90 -43 -125 -50 -33 -6 -98 -30 -145 -53 -76 -37 -93 -42 -157 -42 -61 0
-75 3 -96 23 -61 57 -72 215 -37 521 18 159 23 181 59 260 21 47 44 111 51
141 7 30 27 79 46 108 19 29 44 77 55 108 12 31 34 71 50 89 16 18 40 57 53
86 13 30 36 65 51 79 15 14 35 41 45 60 10 19 30 46 45 60 15 14 39 43 53 65
63 99 263 292 360 347 20 12 48 32 61 46 13 13 49 36 80 49 30 14 72 38 92 54
21 16 62 38 92 48 30 11 77 35 105 53 37 26 72 39 138 52 49 10 119 31 155 46
94 42 133 49 339 60 102 6 194 12 205 14 41 7 61 6 100 -5z"/>
</g>
</svg>
