<?xml version="1.0" standalone="no"?>
<!DOCTYPE svg PUBLIC "-//W3C//DTD SVG 20010904//EN"
 "http://www.w3.org/TR/2001/REC-SVG-20010904/DTD/svg10.dtd">
<svg version="1.0" xmlns="http://www.w3.org/2000/svg"
 width="200.000000pt" height="200.000000pt" viewBox="0 0 200.000000 200.000000"
 preserveAspectRatio="xMidYMid meet">
<metadata>
Created by potrace 1.15, written by Peter Selinger 2001-2017
</metadata>
<g transform="translate(0.000000,200.000000) scale(0.100000,-0.100000)"
fill="#000000" stroke="none">
<path d="M870 1820 c-223 -29 -436 -166 -569 -365 -55 -81 -74 -121 -101 -206
-126 -394 53 -814 430 -1004 55 -28 69 -33 170 -62 76 -22 314 -22 390 0 101
29 115 34 170 62 219 111 368 289 435 522 45 154 43 332 -3 478 -86 267 -307
481 -572 554 -83 23 -256 34 -350 21z m260 -222 c30 -5 78 -19 105 -31 146
-60 321 -239 313 -320 -4 -43 -24 -45 -111 -8 -308 128 -576 128 -884 0 -107
-45 -142 -25 -101 59 30 60 117 153 192 206 92 65 146 84 306 110 31 5 107 -2
180 -16z m-86 -437 c104 -25 157 -151 103 -246 -70 -124 -243 -121 -307 6 -57
111 21 241 150 248 8 0 32 -4 54 -8z m-508 -315 c66 -17 143 -59 185 -100 80
-78 143 -214 137 -298 -4 -59 -26 -60 -136 -7 -67 32 -103 58 -158 113 -99 99
-179 243 -161 290 8 20 63 21 133 2z m1052 -16 c2 -15 -15 -61 -39 -110 -60
-120 -163 -222 -281 -279 -48 -24 -98 -41 -110 -39 -21 3 -23 8 -22 70 1 123
94 267 215 333 67 36 133 54 189 52 40 -2 45 -5 48 -27z"/>
</g>
</svg>
