<?xml version="1.0" standalone="no"?>
<!DOCTYPE svg PUBLIC "-//W3C//DTD SVG 20010904//EN"
 "http://www.w3.org/TR/2001/REC-SVG-20010904/DTD/svg10.dtd">
<svg version="1.0" xmlns="http://www.w3.org/2000/svg"
 width="200.000000pt" height="200.000000pt" viewBox="0 0 200.000000 200.000000"
 preserveAspectRatio="xMidYMid meet">
<metadata>
Created by potrace 1.15, written by Peter Selinger 2001-2017
</metadata>
<g transform="translate(0.000000,200.000000) scale(0.100000,-0.100000)"
fill="#000000" stroke="none">
<path d="M917 1736 c-56 -21 -103 -61 -145 -124 -83 -124 -149 -302 -112 -302
6 0 44 22 83 49 63 42 77 58 107 116 41 80 100 135 145 135 39 0 105 -54 130
-105 9 -20 15 -38 13 -39 -1 -1 -34 -12 -73 -25 -148 -48 -235 -94 -416 -220
-65 -46 -182 -157 -231 -221 -25 -33 -71 -118 -97 -183 -6 -15 -11 -54 -11
-85 1 -149 121 -242 311 -242 l85 0 16 -33 c30 -63 110 -157 156 -184 39 -23
58 -27 118 -27 62 0 78 4 120 30 56 34 112 103 153 189 45 95 91 246 91 300 0
14 4 25 8 25 11 0 172 157 205 200 25 33 70 119 96 183 19 48 13 137 -13 187
-41 81 -159 146 -251 138 -36 -3 -40 -5 -37 -28 2 -14 8 -29 13 -35 5 -5 9
-19 9 -31 0 -26 34 -54 65 -54 11 0 34 -11 50 -24 26 -21 30 -30 29 -75 -1
-56 -9 -77 -68 -166 -97 -147 -316 -306 -541 -393 -59 -23 -65 -39 -34 -98 23
-45 42 -53 77 -35 25 14 111 51 116 51 3 0 28 13 56 30 45 26 50 28 50 11 0
-21 -19 -69 -57 -149 -32 -67 -95 -122 -138 -122 -46 0 -107 56 -143 132 -38
80 -44 98 -83 253 -8 29 -13 115 -14 209 0 179 -10 157 94 219 140 85 350 162
351 130 0 -5 7 -37 14 -73 8 -36 17 -115 21 -177 8 -128 9 -128 83 -59 63 58
65 65 52 159 -36 260 -135 472 -254 542 -54 31 -145 41 -199 21z m-288 -951
c6 -38 13 -90 17 -114 l7 -44 -69 8 c-41 4 -80 15 -95 26 -74 52 -35 175 106
335 7 8 12 -12 17 -65 3 -42 11 -107 17 -146z"/>
<path d="M905 1085 c-31 -32 -35 -41 -35 -90 0 -49 4 -58 35 -90 32 -31 41
-35 90 -35 49 0 58 4 90 35 31 32 35 41 35 90 0 49 -4 58 -35 90 -32 31 -41
35 -90 35 -49 0 -58 -4 -90 -35z"/>
</g>
</svg>
