<?xml version="1.0" standalone="no"?>
<!DOCTYPE svg PUBLIC "-//W3C//DTD SVG 20010904//EN"
 "http://www.w3.org/TR/2001/REC-SVG-20010904/DTD/svg10.dtd">
<svg version="1.0" xmlns="http://www.w3.org/2000/svg"
 width="200.000000pt" height="200.000000pt" viewBox="0 0 200.000000 200.000000"
 preserveAspectRatio="xMidYMid meet">
<metadata>
Created by potrace 1.15, written by Peter Selinger 2001-2017
</metadata>
<g transform="translate(0.000000,200.000000) scale(0.100000,-0.100000)"
fill="#000000" stroke="none">
<path d="M1412 1828 c-14 -17 -82 -221 -82 -245 0 -11 18 -37 40 -58 l40 -39
0 -283 0 -283 -42 0 c-60 0 -110 -28 -121 -66 -12 -40 8 -84 46 -102 l27 -13
0 -202 c0 -111 3 -219 6 -239 4 -21 21 -55 41 -77 69 -81 181 -82 254 -1 46
50 49 68 49 318 l0 202 24 10 c65 24 73 114 13 150 -20 13 -50 20 -79 20 l-48
0 0 283 0 283 40 39 c40 39 53 86 32 111 -5 5 -14 29 -21 54 -14 49 -26 81
-45 120 -11 23 -18 25 -87 28 -53 2 -79 -1 -87 -10z"/>
<path d="M384 1727 c-49 -51 -100 -114 -113 -140 -30 -58 -33 -128 -8 -179 21
-45 99 -116 172 -157 l55 -31 0 -468 0 -468 28 -45 c61 -95 182 -108 262 -29
59 59 60 68 53 556 -5 371 -4 442 8 452 8 7 41 30 74 50 212 135 217 265 18
466 -47 48 -91 85 -97 83 -7 -2 -12 -43 -13 -116 0 -63 -6 -117 -12 -125 -31
-37 -198 -46 -273 -13 l-38 16 0 120 c0 96 -3 121 -14 121 -7 0 -53 -42 -102
-93z"/>
</g>
</svg>
