<?xml version="1.0" standalone="no"?>
<!DOCTYPE svg PUBLIC "-//W3C//DTD SVG 20010904//EN"
 "http://www.w3.org/TR/2001/REC-SVG-20010904/DTD/svg10.dtd">
<svg version="1.0" xmlns="http://www.w3.org/2000/svg"
 width="1024.000000pt" height="1024.000000pt" viewBox="0 0 1024.000000 1024.000000"
 preserveAspectRatio="xMidYMid meet">
<metadata>
Created by potrace 1.13, written by Peter Selinger 2001-2015
</metadata>
<g transform="translate(0.000000,1024.000000) scale(0.100000,-0.100000)"
fill="#000000" stroke="none">
<path d="M4270 9359 c-69 -10 -215 -25 -325 -33 -211 -17 -244 -23 -339 -63
-33 -13 -107 -34 -164 -45 -69 -13 -129 -31 -172 -53 -37 -19 -98 -41 -136
-50 -43 -10 -88 -29 -120 -50 -27 -19 -76 -44 -109 -55 -32 -11 -73 -31 -91
-45 -18 -14 -66 -40 -107 -59 -41 -18 -78 -39 -82 -45 -4 -7 -39 -28 -78 -47
-40 -19 -85 -48 -102 -63 -16 -16 -52 -40 -80 -54 -27 -14 -59 -35 -70 -47
-11 -12 -40 -34 -65 -48 -52 -30 -79 -55 -250 -227 -144 -145 -197 -204 -241
-266 -18 -24 -40 -52 -50 -62 -10 -10 -34 -41 -52 -70 -19 -28 -44 -61 -57
-72 -12 -11 -31 -38 -42 -60 -11 -22 -35 -56 -54 -75 -18 -19 -40 -51 -48 -71
-8 -20 -32 -58 -51 -84 -20 -26 -45 -68 -56 -93 -11 -24 -33 -62 -50 -83 -16
-21 -39 -65 -50 -98 -11 -33 -34 -77 -50 -97 -16 -20 -38 -69 -50 -108 -12
-39 -36 -98 -55 -132 -22 -39 -41 -94 -53 -155 -11 -52 -31 -119 -44 -149 -43
-97 -45 -117 -108 -815 -15 -164 -7 -268 61 -804 7 -49 25 -121 45 -170 18
-47 40 -124 49 -171 9 -53 29 -110 50 -151 19 -36 44 -102 56 -145 12 -43 33
-94 46 -112 14 -18 36 -65 50 -105 13 -39 38 -90 54 -113 16 -23 38 -65 49
-95 12 -30 39 -78 61 -108 22 -29 40 -58 40 -65 0 -7 13 -33 30 -59 36 -57 36
-65 9 -120 -21 -41 -341 -368 -396 -404 -31 -21 -53 -69 -53 -119 0 -28 7 -42
31 -63 17 -14 43 -39 58 -55 14 -16 37 -38 51 -50 13 -12 36 -34 50 -50 14
-16 36 -38 50 -50 13 -12 36 -34 50 -49 14 -16 135 -141 270 -278 210 -213
471 -480 846 -864 48 -49 232 -238 409 -420 177 -181 359 -370 405 -420 91
-99 140 -135 184 -135 25 0 415 387 3019 2993 1645 1645 3010 3012 3034 3037
55 58 58 97 12 160 -64 88 -2296 2299 -2340 2318 -17 7 -40 10 -50 7 -11 -4
-72 -61 -137 -127 -341 -351 -351 -360 -393 -360 -26 1 -59 13 -105 41 -37 23
-73 41 -78 41 -6 0 -30 15 -53 34 -23 18 -70 43 -104 56 -34 12 -80 35 -103
51 -22 16 -70 39 -107 50 -37 11 -88 34 -114 50 -25 16 -81 39 -123 50 -42 12
-104 36 -137 54 -42 24 -92 40 -165 53 -58 11 -141 34 -185 50 -99 37 -168 48
-415 67 -107 8 -242 21 -300 30 -129 18 -153 18 -310 -6z m546 -854 c223 -13
236 -15 336 -49 58 -20 151 -45 207 -56 71 -13 120 -29 158 -51 31 -18 88 -42
128 -54 39 -12 91 -37 115 -54 24 -17 67 -38 96 -47 28 -8 76 -32 105 -53 30
-21 74 -45 99 -55 25 -10 57 -29 73 -44 15 -14 47 -37 71 -51 46 -27 131 -92
200 -152 23 -19 57 -46 76 -59 19 -13 51 -40 70 -61 20 -21 52 -41 75 -48 86
-24 85 -24 259 148 89 87 172 165 186 175 35 23 69 20 115 -12 22 -15 276
-263 564 -552 539 -540 572 -578 553 -630 -5 -13 -129 -144 -277 -291 -300
-301 -294 -297 -371 -240 -21 16 -145 134 -274 261 -129 128 -243 236 -254
242 -41 22 -134 -14 -163 -63 -10 -17 -32 -39 -49 -50 -17 -10 -42 -34 -55
-53 -13 -19 -35 -41 -50 -50 -14 -8 -36 -31 -49 -49 -13 -19 -38 -44 -57 -57
-18 -13 -41 -35 -49 -49 -9 -15 -32 -38 -51 -51 -40 -28 -72 -89 -73 -138 0
-28 16 -48 136 -165 347 -337 385 -376 400 -412 8 -21 13 -48 10 -60 -7 -27
-831 -853 -864 -866 -15 -6 -34 -4 -55 5 -35 15 -40 20 -349 323 -115 112
-216 203 -225 204 -65 4 -133 -26 -158 -69 -9 -15 -32 -39 -51 -51 -19 -13
-42 -37 -52 -53 -9 -16 -32 -38 -49 -49 -18 -11 -41 -34 -50 -50 -10 -17 -32
-39 -49 -50 -17 -10 -42 -34 -55 -53 -13 -19 -36 -42 -51 -51 -43 -25 -73 -93
-69 -158 1 -9 92 -110 204 -225 303 -309 308 -314 323 -349 9 -21 11 -40 5
-55 -13 -33 -839 -857 -866 -864 -12 -3 -39 2 -60 10 -36 15 -75 53 -412 400
-117 120 -137 136 -165 136 -49 -1 -110 -33 -138 -73 -13 -19 -36 -42 -51 -51
-14 -8 -36 -31 -49 -49 -13 -19 -38 -44 -57 -57 -18 -13 -41 -35 -49 -49 -9
-15 -31 -38 -50 -50 -19 -13 -42 -37 -52 -53 -9 -16 -32 -39 -50 -50 -51 -31
-86 -123 -64 -164 6 -11 114 -125 242 -254 127 -129 245 -253 261 -274 56 -74
55 -76 -183 -315 -326 -327 -333 -334 -367 -333 -32 1 -81 23 -103 46 -7 7
-249 253 -538 546 -289 293 -536 547 -549 566 l-24 34 32 65 c18 36 36 65 41
65 17 0 273 264 286 296 25 59 18 97 -26 151 -21 26 -49 61 -62 76 -13 16 -44
52 -69 80 -26 29 -54 67 -63 84 -9 18 -27 40 -39 48 -13 8 -34 34 -47 57 -12
24 -40 66 -61 94 -21 27 -45 66 -54 87 -8 20 -28 51 -44 70 -16 18 -41 59 -55
90 -14 32 -39 77 -55 100 -17 23 -38 67 -47 97 -9 30 -31 80 -50 110 -18 30
-42 93 -54 139 -12 46 -32 105 -45 130 -33 67 -40 100 -75 361 -30 220 -32
247 -26 430 6 191 46 586 67 665 6 22 22 61 35 86 13 26 33 86 45 134 12 47
33 103 47 123 14 20 37 69 52 108 15 39 39 87 53 105 14 19 39 63 55 99 16 36
39 74 52 85 12 11 35 46 51 77 16 31 34 60 40 63 6 4 30 38 54 74 24 37 51 74
61 82 10 8 29 32 43 54 64 100 420 441 492 472 15 6 42 25 60 41 19 16 63 44
99 62 36 18 76 43 90 55 14 13 52 33 85 45 33 12 77 36 98 52 21 16 73 41 115
55 42 14 89 34 104 45 36 25 97 46 176 59 37 6 105 26 152 44 47 18 100 36
119 40 62 13 505 43 576 38 39 -2 174 -10 301 -18z"/>
<path d="M4215 7619 c-49 -10 -155 -25 -235 -33 -136 -15 -150 -18 -225 -57
-43 -23 -98 -47 -122 -54 -23 -7 -64 -29 -90 -48 -26 -19 -70 -44 -98 -56 -27
-12 -63 -35 -80 -50 -16 -16 -44 -36 -60 -44 -44 -22 -191 -157 -227 -209 -17
-23 -46 -59 -63 -78 -18 -19 -41 -51 -53 -71 -12 -19 -31 -44 -43 -55 -12 -10
-35 -46 -51 -79 -17 -32 -43 -75 -58 -95 -15 -19 -35 -60 -45 -90 -9 -30 -32
-80 -50 -110 -18 -30 -38 -80 -44 -110 -61 -301 -64 -324 -65 -490 0 -169 -1
-162 65 -495 5 -27 24 -74 41 -104 17 -31 39 -80 49 -111 11 -30 33 -75 51
-99 17 -23 44 -70 59 -102 16 -33 36 -62 44 -65 8 -3 29 -29 46 -57 58 -94
339 -408 398 -444 79 -49 -22 -141 1284 1165 654 653 1193 1195 1199 1206 18
33 0 84 -46 129 -60 59 -145 130 -181 152 -28 17 -69 54 -165 147 -21 21 -61
51 -88 68 -28 17 -52 36 -55 44 -3 7 -36 27 -73 45 -37 18 -84 45 -103 60 -20
16 -54 34 -76 41 -22 7 -78 32 -125 56 -82 42 -92 45 -255 64 -93 11 -197 27
-230 35 -76 18 -118 17 -230 -6z m222 -849 c80 -10 133 -32 133 -56 0 -15
-1023 -1044 -1039 -1044 -14 0 -38 33 -50 69 -15 47 -14 226 3 339 11 74 21
106 49 150 19 31 42 81 52 111 10 29 32 70 50 90 18 20 40 50 49 68 9 18 33
45 53 60 21 15 46 38 57 51 10 12 46 35 80 51 33 15 78 40 99 54 53 36 109 46
377 65 8 1 48 -3 87 -8z"/>
</g>
</svg>
