<?xml version="1.0" standalone="no"?>
<!DOCTYPE svg PUBLIC "-//W3C//DTD SVG 20010904//EN"
 "http://www.w3.org/TR/2001/REC-SVG-20010904/DTD/svg10.dtd">
<svg version="1.0" xmlns="http://www.w3.org/2000/svg"
 width="200.000000pt" height="200.000000pt" viewBox="0 0 200.000000 200.000000"
 preserveAspectRatio="xMidYMid meet">
<metadata>
Created by potrace 1.15, written by Peter Selinger 2001-2017
</metadata>
<g transform="translate(0.000000,200.000000) scale(0.100000,-0.100000)"
fill="#000000" stroke="none">
<path d="M780 1824 c-109 -13 -253 -72 -345 -142 -102 -77 -195 -211 -246
-352 -19 -55 -23 -85 -23 -200 -1 -151 12 -208 80 -343 l36 -70 -46 -46 c-25
-26 -46 -52 -46 -57 0 -6 39 -51 86 -100 259 -267 377 -384 388 -384 6 0 279
268 606 595 583 584 594 595 580 619 -14 27 -453 456 -466 456 -5 0 -30 -21
-56 -47 l-47 -47 -88 42 c-48 23 -113 48 -144 56 -60 16 -210 27 -269 20z
m230 -185 c68 -16 168 -65 234 -115 l59 -45 41 40 42 41 112 -113 c61 -62 112
-115 112 -118 0 -8 -101 -109 -109 -109 -4 0 -29 23 -56 50 -27 28 -57 50 -66
50 -9 0 -40 -25 -69 -56 l-53 -56 57 -57 c31 -31 56 -60 56 -63 0 -11 -155
-168 -165 -168 -5 0 -35 26 -67 57 l-57 57 -63 -62 -62 -63 57 -57 c31 -32 57
-62 57 -67 0 -13 -152 -165 -164 -165 -6 0 -36 25 -67 56 l-57 57 -56 -53
c-31 -29 -56 -60 -56 -69 0 -9 23 -39 50 -66 28 -27 50 -52 50 -56 0 -8 -101
-109 -109 -109 -4 0 -58 52 -120 114 l-115 115 42 45 42 46 -51 68 c-185 240
-171 522 35 727 141 140 320 190 516 144z"/>
<path d="M775 1481 c-95 -17 -189 -92 -242 -193 -24 -46 -27 -64 -27 -143 0
-79 3 -97 28 -144 29 -56 111 -151 130 -151 15 0 476 462 476 476 0 15 -94 94
-150 127 -49 28 -145 41 -215 28z m96 -169 c12 -5 -8 -31 -88 -110 -105 -105
-107 -106 -103 -37 3 72 63 140 130 148 19 2 37 4 40 5 3 0 12 -2 21 -6z"/>
</g>
</svg>
