<?xml version="1.0" standalone="no"?>
<!DOCTYPE svg PUBLIC "-//W3C//DTD SVG 20010904//EN"
 "http://www.w3.org/TR/2001/REC-SVG-20010904/DTD/svg10.dtd">
<svg version="1.0" xmlns="http://www.w3.org/2000/svg"
 width="200.000000pt" height="200.000000pt" viewBox="0 0 200.000000 200.000000"
 preserveAspectRatio="xMidYMid meet">
<metadata>
Created by potrace 1.15, written by Peter Selinger 2001-2017
</metadata>
<g transform="translate(0.000000,200.000000) scale(0.100000,-0.100000)"
fill="#000000" stroke="none">
<path d="M328 1711 c-104 -77 -157 -122 -155 -133 2 -18 307 -249 319 -242 4
3 8 39 8 80 l0 74 245 0 245 0 0 -74 c0 -69 12 -103 29 -79 3 5 71 57 151 117
80 59 148 114 152 121 5 8 -26 37 -93 86 -56 41 -129 95 -162 120 -34 26 -65
45 -69 42 -5 -2 -8 -38 -8 -79 l0 -74 -235 0 c-129 0 -238 -1 -242 -2 -5 -2
-9 31 -11 72 -2 41 -6 78 -10 81 -4 4 -78 -45 -164 -110z"/>
<path d="M1569 1318 c-9 -7 -62 -76 -119 -153 -58 -77 -109 -143 -114 -146
-23 -17 11 -29 80 -29 l74 0 0 -245 0 -245 -74 0 c-41 0 -77 -4 -80 -8 -7 -12
224 -317 242 -319 11 -2 55 49 130 152 63 84 114 157 113 162 0 4 -35 10 -76
13 -41 3 -75 8 -75 13 0 4 0 113 0 242 l0 235 73 0 c41 0 76 3 80 6 3 3 -10
27 -29 53 -19 25 -66 89 -104 141 -109 148 -103 142 -121 128z"/>
<path d="M160 1238 c-2 -82 1 -1072 3 -1075 2 -2 897 -5 1070 -3 16 0 17 31
15 543 l-3 542 -542 3 c-431 2 -543 0 -543 -10z m910 -538 l0 -370 -367 2
-368 3 -3 368 -2 367 370 0 370 0 0 -370z"/>
</g>
</svg>
