<?xml version="1.0" standalone="no"?>
<!DOCTYPE svg PUBLIC "-//W3C//DTD SVG 20010904//EN"
 "http://www.w3.org/TR/2001/REC-SVG-20010904/DTD/svg10.dtd">
<svg version="1.0" xmlns="http://www.w3.org/2000/svg"
 width="1024.000000pt" height="1024.000000pt" viewBox="0 0 1024.000000 1024.000000"
 preserveAspectRatio="xMidYMid meet">
<metadata>
Created by potrace 1.13, written by Peter Selinger 2001-2015
</metadata>
<g transform="translate(0.000000,1024.000000) scale(0.100000,-0.100000)"
fill="#000000" stroke="none">
<path d="M2415 9279 c-33 -28 -76 -59 -95 -69 -19 -10 -48 -32 -65 -50 -16
-18 -47 -40 -67 -51 -20 -10 -43 -27 -50 -37 -7 -10 -44 -40 -83 -66 -81 -55
-144 -102 -198 -147 -21 -17 -57 -44 -80 -59 -23 -15 -51 -37 -62 -50 -11 -12
-36 -30 -55 -40 -19 -10 -59 -39 -88 -64 -30 -25 -58 -46 -63 -46 -5 0 -34
-22 -64 -50 -30 -27 -60 -50 -65 -50 -6 0 -29 -17 -53 -38 -23 -21 -65 -53
-93 -70 -28 -18 -59 -41 -69 -52 -10 -12 -43 -35 -73 -51 -29 -17 -56 -37 -59
-45 -3 -7 -21 -23 -41 -35 -86 -52 -96 -73 -63 -146 14 -29 31 -48 58 -62 21
-10 66 -42 101 -70 35 -28 67 -51 73 -51 5 0 34 -22 64 -50 30 -27 60 -50 65
-50 6 0 28 -16 50 -37 23 -20 67 -55 99 -77 120 -84 144 -102 185 -137 22 -19
57 -45 77 -57 19 -12 44 -31 55 -43 10 -12 44 -37 74 -57 30 -19 72 -50 93
-68 20 -19 41 -34 47 -34 5 0 35 -22 65 -50 30 -27 60 -50 65 -50 6 0 29 -17
53 -38 23 -22 67 -55 97 -74 30 -19 61 -42 69 -52 8 -10 28 -24 44 -33 17 -8
52 -35 78 -60 33 -31 55 -44 71 -41 45 6 48 29 48 409 l0 356 23 21 23 22
1235 0 1236 0 21 -23 c22 -23 22 -28 22 -378 0 -378 3 -401 48 -407 16 -3 38
10 71 41 26 25 61 52 78 60 16 9 36 23 44 33 8 10 39 33 69 52 30 19 74 52 97
74 24 21 47 38 53 38 5 0 35 23 65 50 30 28 60 50 65 50 6 0 27 15 47 34 21
18 63 49 93 68 30 20 64 45 74 57 11 12 36 31 55 43 20 12 55 38 77 57 41 35
65 53 185 137 32 22 76 57 99 77 22 21 44 37 50 37 5 0 35 23 65 50 30 28 59
50 64 50 6 0 38 23 73 51 35 28 80 60 101 70 27 14 44 33 58 62 33 73 23 94
-63 146 -20 12 -38 28 -41 35 -3 8 -30 28 -59 45 -30 16 -63 39 -73 51 -10 11
-41 34 -69 52 -28 17 -70 49 -93 70 -24 21 -47 38 -53 38 -5 0 -35 23 -65 50
-30 28 -59 50 -64 50 -5 0 -33 21 -63 46 -29 25 -69 54 -88 64 -19 10 -44 28
-55 40 -11 13 -39 35 -62 50 -23 15 -59 42 -80 59 -54 45 -117 92 -198 147
-38 26 -76 56 -83 66 -7 10 -30 27 -50 37 -20 11 -50 33 -67 51 -16 18 -46 40
-65 50 -19 10 -62 41 -95 69 -67 57 -104 66 -129 29 -14 -19 -16 -69 -16 -346
0 -320 -6 -398 -35 -422 -18 -15 -2472 -15 -2490 0 -29 24 -35 102 -35 422 0
277 -2 327 -16 346 -25 37 -62 28 -129 -29z"/>
<path d="M8063 6751 c-29 -14 -48 -31 -62 -58 -10 -21 -42 -66 -70 -101 -28
-35 -51 -67 -51 -73 0 -5 -22 -34 -50 -64 -27 -30 -50 -60 -50 -65 0 -6 -16
-28 -37 -50 -20 -23 -55 -67 -77 -99 -84 -120 -102 -144 -137 -185 -19 -22
-45 -57 -57 -77 -12 -19 -31 -44 -43 -55 -12 -10 -37 -44 -57 -74 -19 -30 -50
-72 -68 -93 -19 -20 -34 -41 -34 -47 0 -5 -22 -35 -50 -65 -27 -30 -50 -60
-50 -65 0 -6 -17 -29 -38 -53 -22 -23 -55 -67 -74 -97 -19 -30 -42 -61 -52
-69 -10 -8 -24 -28 -33 -44 -8 -17 -35 -52 -60 -78 -31 -33 -44 -55 -41 -71 6
-45 29 -48 409 -48 l356 0 21 -23 22 -23 0 -1235 0 -1236 -23 -21 c-23 -22
-28 -22 -378 -22 -378 0 -401 -3 -407 -48 -3 -16 10 -38 41 -71 25 -26 52 -61
60 -78 9 -16 23 -36 33 -44 10 -8 33 -39 52 -69 19 -30 52 -74 74 -97 21 -24
38 -47 38 -53 0 -5 23 -35 50 -65 28 -30 50 -60 50 -65 0 -6 15 -27 34 -47 18
-21 49 -63 68 -93 20 -30 45 -64 57 -74 12 -11 31 -36 43 -55 12 -20 38 -55
57 -77 35 -41 53 -65 137 -185 22 -32 57 -76 77 -99 21 -22 37 -44 37 -50 0
-5 23 -35 50 -65 28 -30 50 -59 50 -64 0 -6 23 -38 51 -73 28 -35 60 -80 70
-101 14 -27 33 -44 62 -58 73 -33 94 -23 146 63 12 20 28 38 35 41 8 3 28 30
45 59 16 30 39 63 51 73 11 10 34 41 52 69 17 28 49 70 70 93 21 24 38 47 38
53 0 5 23 35 50 65 28 30 50 59 50 64 0 5 21 33 46 63 25 29 54 69 64 88 10
19 28 44 40 55 13 11 35 39 50 62 15 23 42 59 59 80 45 54 92 117 147 198 26
39 56 76 66 83 10 7 27 30 37 50 11 20 33 51 51 67 18 17 40 46 50 65 10 19
41 62 69 95 57 67 66 104 29 129 -19 14 -69 16 -346 16 -320 0 -398 6 -422 35
-15 18 -15 2472 0 2490 24 29 102 35 422 35 277 0 327 2 346 16 37 25 28 62
-29 129 -28 33 -59 76 -69 95 -10 19 -32 49 -50 65 -18 17 -40 47 -51 67 -10
20 -27 43 -37 50 -10 7 -40 45 -66 83 -55 81 -102 144 -147 198 -17 21 -44 57
-59 80 -15 23 -37 51 -50 62 -12 11 -30 36 -40 55 -10 19 -39 59 -64 88 -25
30 -46 58 -46 63 0 5 -22 34 -50 64 -27 30 -50 60 -50 65 0 6 -17 29 -38 53
-21 23 -53 65 -70 93 -18 28 -41 59 -52 69 -12 10 -35 43 -51 73 -17 29 -37
56 -45 59 -7 3 -23 21 -35 41 -52 86 -73 96 -146 63z"/>
<path d="M936 6390 c-31 -10 -63 -35 -77 -62 -6 -10 -9 -1082 -9 -2703 0
-2956 -5 -2726 60 -2760 26 -14 323 -15 2717 -15 2602 0 2689 0 2713 18 59 44
55 -166 58 2750 2 2967 8 2718 -63 2762 -32 20 -42 20 -2701 19 -1468 0 -2682
-5 -2698 -9z m4565 -863 c9 -7 21 -22 27 -34 9 -16 12 -482 12 -1863 0 -2047
6 -1889 -68 -1910 -26 -8 -573 -10 -1864 -8 l-1828 3 -32 33 -33 32 -3 1828
c-2 1288 0 1838 8 1864 21 73 -138 67 1915 67 1439 0 1854 -2 1866 -12z"/>
</g>
</svg>
