<?xml version="1.0" standalone="no"?>
<!DOCTYPE svg PUBLIC "-//W3C//DTD SVG 20010904//EN"
 "http://www.w3.org/TR/2001/REC-SVG-20010904/DTD/svg10.dtd">
<svg version="1.0" xmlns="http://www.w3.org/2000/svg"
 width="1024.000000pt" height="1024.000000pt" viewBox="0 0 1024.000000 1024.000000"
 preserveAspectRatio="xMidYMid meet">
<metadata>
Created by potrace 1.13, written by Peter Selinger 2001-2015
</metadata>
<g transform="translate(0.000000,1024.000000) scale(0.100000,-0.100000)"
fill="#000000" stroke="none">
<path d="M4980 9393 c-25 -2 -99 -12 -165 -23 -130 -21 -265 -35 -415 -45
-133 -9 -204 -22 -269 -52 -31 -14 -106 -38 -167 -53 -63 -16 -128 -39 -150
-54 -22 -14 -64 -34 -96 -45 -71 -24 -97 -38 -128 -66 -14 -13 -45 -31 -70
-41 -25 -9 -67 -34 -95 -54 -27 -21 -68 -47 -90 -58 -22 -11 -51 -32 -65 -47
-14 -15 -38 -34 -55 -42 -46 -24 -188 -156 -275 -258 -44 -49 -97 -110 -118
-135 -22 -25 -51 -63 -64 -85 -14 -22 -33 -47 -42 -55 -10 -7 -31 -41 -48 -74
-17 -34 -43 -75 -58 -93 -15 -17 -38 -58 -50 -90 -12 -32 -36 -80 -55 -108
-18 -27 -39 -75 -45 -105 -20 -88 -33 -106 -95 -129 -31 -12 -60 -21 -66 -21
-6 0 -44 -13 -84 -29 -41 -17 -122 -39 -181 -50 -67 -13 -134 -33 -178 -54
-39 -19 -102 -42 -140 -51 -42 -10 -88 -30 -115 -50 -26 -18 -66 -41 -91 -50
-25 -10 -61 -32 -80 -51 -19 -18 -51 -41 -70 -50 -19 -9 -55 -34 -80 -54 -25
-20 -58 -45 -75 -55 -75 -47 -375 -339 -375 -364 0 -6 -21 -38 -46 -73 -26
-34 -56 -85 -67 -113 -11 -28 -34 -68 -50 -89 -16 -21 -39 -70 -52 -110 -12
-40 -36 -97 -54 -128 -21 -38 -38 -89 -51 -157 -10 -56 -30 -138 -45 -183 -37
-118 -48 -249 -43 -518 l5 -236 35 -110 c20 -60 43 -144 52 -185 10 -44 30
-97 50 -130 18 -30 41 -78 50 -107 10 -29 28 -67 42 -85 13 -18 37 -60 53 -93
16 -33 41 -71 56 -85 15 -14 36 -43 47 -65 12 -22 40 -62 62 -90 23 -27 50
-63 61 -80 10 -16 33 -45 52 -65 116 -122 184 -186 228 -214 28 -18 56 -41 64
-50 8 -10 42 -31 75 -48 34 -17 72 -41 86 -54 14 -13 54 -35 89 -49 35 -15 80
-39 100 -55 20 -16 64 -36 101 -45 36 -9 103 -34 150 -55 76 -35 105 -42 275
-65 105 -14 226 -33 270 -41 65 -12 197 -15 703 -15 682 -1 649 -4 689 58 16
25 18 59 18 373 0 314 -2 348 -18 373 -39 60 -8 57 -688 61 -771 3 -905 15
-1033 86 -28 16 -69 33 -92 39 -23 6 -56 22 -75 36 -19 13 -56 37 -83 52 -43
25 -102 71 -177 139 -68 62 -214 259 -239 325 -12 29 -34 70 -50 93 -23 31
-38 75 -62 181 -28 124 -32 158 -32 295 0 132 4 176 28 295 26 130 52 205 75
219 5 4 22 38 37 76 15 39 42 87 59 108 18 20 38 49 46 64 34 65 224 239 298
273 25 12 60 34 78 49 18 15 59 38 91 50 32 13 81 39 110 59 46 31 121 57 170
57 9 0 61 15 114 34 106 37 171 49 348 66 191 19 200 24 246 140 10 25 28 61
40 80 12 19 32 67 44 105 13 39 37 90 55 115 18 25 40 66 50 92 9 26 32 64 50
85 18 21 42 59 54 84 12 24 39 66 61 93 22 26 40 52 40 57 0 21 195 225 300
314 39 33 90 76 113 96 23 20 58 44 77 54 19 9 58 34 85 55 28 21 75 48 105
59 30 12 75 35 99 51 24 17 63 35 85 40 60 15 142 44 214 75 59 24 84 28 333
44 261 18 276 18 496 -1 206 -17 237 -22 328 -53 55 -19 142 -43 193 -54 66
-15 110 -31 150 -56 31 -20 81 -43 110 -51 29 -9 68 -28 85 -44 18 -15 57 -40
87 -55 30 -15 74 -45 97 -66 24 -22 46 -39 51 -39 15 0 346 -332 369 -370 12
-19 36 -48 53 -65 18 -16 41 -48 52 -70 11 -22 35 -58 54 -81 18 -23 42 -64
52 -91 11 -28 31 -66 46 -85 14 -20 37 -68 51 -108 14 -40 38 -94 54 -119 16
-25 39 -84 51 -131 12 -47 35 -108 51 -136 19 -35 37 -91 54 -175 13 -68 34
-148 45 -176 26 -69 36 -118 49 -236 12 -104 28 -150 61 -167 20 -10 114 -20
371 -39 114 -9 157 -17 263 -51 70 -22 135 -40 144 -40 43 0 141 -34 187 -65
28 -18 74 -41 103 -50 30 -10 70 -31 89 -49 20 -17 50 -40 67 -51 46 -29 140
-133 164 -181 11 -22 28 -46 37 -54 47 -39 98 -238 99 -385 1 -120 -41 -314
-79 -367 -13 -18 -42 -63 -65 -100 -47 -78 -195 -219 -270 -257 -27 -15 -70
-39 -94 -54 -86 -54 -185 -60 -1125 -63 -911 -4 -859 0 -898 -61 -16 -25 -18
-59 -18 -373 0 -314 2 -348 18 -373 40 -62 -14 -58 889 -58 l823 1 120 24 c66
14 184 32 263 40 139 15 175 26 232 67 14 10 52 28 85 39 33 11 77 34 98 51
20 17 63 42 95 56 31 13 76 42 99 64 23 21 46 39 50 39 22 1 233 222 257 268
9 17 25 36 36 42 11 6 32 34 46 63 15 29 42 70 60 92 18 22 42 65 53 95 12 30
35 75 51 99 17 24 35 63 40 85 16 65 47 166 71 231 20 53 23 84 27 265 5 231
-6 345 -41 447 -14 38 -34 113 -46 166 -15 61 -33 111 -52 140 -16 24 -38 71
-49 103 -12 33 -33 75 -49 94 -16 20 -38 56 -51 80 -12 25 -42 66 -66 92 -24
26 -44 51 -44 55 0 4 -36 40 -81 78 -44 39 -99 87 -122 109 -23 21 -60 47 -82
58 -22 12 -58 36 -81 54 -22 19 -58 41 -79 50 -22 9 -57 31 -78 49 -25 22 -61
39 -105 50 -37 10 -101 33 -143 52 -51 22 -112 39 -180 49 -117 18 -267 57
-318 82 -49 24 -70 58 -81 132 -6 36 -22 99 -35 140 -14 41 -34 122 -45 180
-13 68 -31 126 -51 165 -18 33 -40 91 -50 128 -9 37 -35 98 -57 135 -22 37
-45 85 -51 108 -6 22 -25 60 -42 84 -18 24 -43 68 -56 99 -13 30 -36 68 -49
84 -14 17 -38 56 -54 87 -16 32 -47 79 -70 105 -22 25 -40 49 -40 53 0 7 -196
207 -298 304 -24 23 -62 53 -85 68 -23 15 -51 37 -61 49 -11 12 -43 35 -71 51
-28 16 -62 41 -75 55 -14 15 -45 37 -70 50 -25 13 -56 35 -69 49 -13 14 -53
35 -88 47 -35 11 -76 31 -91 43 -39 33 -59 42 -131 61 -35 9 -94 32 -130 51
-38 19 -106 43 -159 54 -52 11 -110 29 -130 39 -71 36 -147 51 -336 66 -220
17 -242 20 -391 45 -120 20 -235 29 -305 23z"/>
<path d="M4754 5956 c-17 -8 -35 -22 -40 -32 -5 -11 -11 -637 -14 -1456 l-5
-1437 -23 -23 -23 -23 -570 -5 c-550 -5 -571 -6 -585 -24 -24 -34 -17 -64 29
-109 23 -23 57 -63 74 -87 62 -85 102 -136 243 -306 25 -30 61 -72 80 -95 19
-22 51 -62 70 -89 68 -94 148 -195 169 -214 12 -11 32 -37 43 -58 12 -21 32
-45 45 -53 13 -9 35 -35 49 -58 15 -23 40 -55 55 -72 35 -37 116 -142 164
-212 20 -29 40 -53 45 -53 6 0 26 -25 45 -55 19 -30 44 -59 54 -65 11 -5 29
-27 42 -47 12 -21 41 -59 63 -85 44 -50 103 -125 151 -192 17 -24 47 -62 67
-87 21 -24 48 -57 61 -73 21 -26 31 -30 77 -30 46 0 56 4 77 30 13 16 40 49
61 73 20 25 51 63 67 87 48 67 107 142 151 192 22 26 51 64 63 85 13 20 31 42
42 47 10 6 35 35 54 65 19 30 39 55 45 55 5 0 25 24 45 53 48 70 129 175 164
212 15 17 40 49 55 72 14 23 36 49 49 58 13 8 33 32 45 53 11 21 31 47 43 58
21 19 101 120 169 214 19 27 51 67 70 89 19 23 55 65 80 95 141 170 181 221
243 306 17 24 51 64 75 87 45 45 52 75 28 109 -14 18 -35 19 -585 24 l-570 5
-23 23 -23 23 -5 1437 c-4 1110 -8 1442 -17 1458 -23 40 -60 44 -407 44 -255
-1 -338 -4 -362 -14z"/>
</g>
</svg>
