<?xml version="1.0" standalone="no"?>
<!DOCTYPE svg PUBLIC "-//W3C//DTD SVG 20010904//EN"
 "http://www.w3.org/TR/2001/REC-SVG-20010904/DTD/svg10.dtd">
<svg version="1.0" xmlns="http://www.w3.org/2000/svg"
 width="200.000000pt" height="200.000000pt" viewBox="0 0 200.000000 200.000000"
 preserveAspectRatio="xMidYMid meet">
<metadata>
Created by potrace 1.15, written by Peter Selinger 2001-2017
</metadata>
<g transform="translate(0.000000,200.000000) scale(0.100000,-0.100000)"
fill="#000000" stroke="none">
<path d="M875 1825 c-44 -7 -89 -15 -100 -19 -117 -43 -241 -150 -288 -246
-20 -43 -34 -58 -60 -68 -18 -7 -39 -12 -45 -12 -17 0 -103 -41 -126 -60 -100
-80 -134 -126 -165 -220 -23 -70 -28 -182 -10 -227 47 -116 104 -194 179 -245
30 -20 62 -37 71 -37 8 -1 19 -5 25 -10 25 -24 329 -44 378 -25 23 9 23 169 0
178 -9 3 -81 6 -160 6 -133 0 -149 2 -192 24 -52 26 -71 44 -99 96 -26 46 -36
101 -27 156 7 49 57 132 89 149 11 6 31 17 45 25 33 19 107 39 147 40 29 0 34
5 69 78 48 97 118 168 206 210 59 29 75 32 159 32 121 0 204 -27 283 -92 42
-34 106 -126 125 -178 7 -19 17 -44 21 -55 14 -35 30 -102 30 -123 0 -23 18
-32 68 -32 46 0 124 -23 167 -50 91 -56 97 -172 13 -244 l-42 -36 -182 0
c-100 0 -189 -3 -198 -6 -23 -9 -23 -169 0 -178 27 -10 320 -7 376 5 118 25
202 89 253 193 34 69 43 147 25 214 -37 138 -132 224 -289 260 -27 6 -36 15
-47 47 -7 22 -14 46 -14 53 0 36 -78 172 -128 224 -98 103 -195 150 -357 174
-103 15 -95 15 -200 -1z"/>
<path d="M915 1158 c-3 -7 -6 -139 -7 -293 l-3 -280 -117 -3 c-70 -1 -118 -7
-118 -13 0 -5 35 -53 78 -107 92 -115 111 -140 177 -226 32 -42 57 -66 70 -66
13 0 38 24 70 66 66 86 85 111 178 226 42 54 77 102 77 107 0 6 -48 12 -117
13 l-118 3 -5 290 -5 290 -78 3 c-56 2 -79 -1 -82 -10z"/>
</g>
</svg>
