<?xml version="1.0" standalone="no"?>
<!DOCTYPE svg PUBLIC "-//W3C//DTD SVG 20010904//EN"
 "http://www.w3.org/TR/2001/REC-SVG-20010904/DTD/svg10.dtd">
<svg version="1.0" xmlns="http://www.w3.org/2000/svg"
 width="200.000000pt" height="200.000000pt" viewBox="0 0 200.000000 200.000000"
 preserveAspectRatio="xMidYMid meet">
<metadata>
Created by potrace 1.15, written by Peter Selinger 2001-2017
</metadata>
<g transform="translate(0.000000,200.000000) scale(0.100000,-0.100000)"
fill="#000000" stroke="none">
<path d="M720 1825 c-153 -23 -239 -63 -327 -152 -106 -109 -147 -216 -148
-383 0 -145 15 -192 121 -380 44 -76 72 -166 100 -315 3 -16 9 -41 14 -55 4
-14 14 -52 21 -85 17 -82 63 -183 102 -223 41 -43 87 -62 149 -62 124 0 207
100 209 253 1 97 22 243 34 240 12 -3 22 -73 31 -218 9 -142 34 -203 102 -246
78 -50 193 -37 253 28 34 36 71 105 88 163 7 25 17 56 21 70 4 14 13 52 20 85
6 33 16 70 21 83 5 13 9 33 9 46 0 12 9 52 21 87 21 63 40 104 116 249 21 41
45 95 53 120 19 58 20 249 1 310 -53 178 -177 308 -343 362 -81 26 -206 35
-301 21 -65 -9 -111 -10 -157 -3 -115 17 -124 18 -210 5z m198 -197 c49 -23
147 -115 178 -167 10 -17 24 -31 32 -31 23 0 142 62 142 74 0 6 -20 42 -45 79
l-45 67 47 0 c121 0 251 -79 301 -183 37 -79 42 -98 42 -169 0 -81 -13 -131
-52 -205 -15 -29 -41 -77 -56 -105 -35 -65 -67 -149 -80 -208 -6 -25 -15 -65
-21 -90 -24 -105 -54 -227 -64 -260 -15 -46 -45 -90 -62 -90 -18 0 -24 30 -35
173 -10 116 -16 167 -39 318 -15 92 -23 111 -72 153 -37 31 -49 36 -95 36 -47
0 -56 -4 -98 -42 -44 -41 -47 -47 -65 -138 -26 -126 -39 -232 -47 -362 -4 -68
-11 -113 -20 -125 -13 -17 -15 -17 -38 11 -26 32 -42 78 -75 229 -6 26 -15 66
-21 90 -5 23 -15 67 -21 97 -7 30 -16 59 -21 64 -4 6 -8 17 -8 25 0 15 -40 98
-106 221 -17 30 -35 74 -42 96 -15 52 -16 174 -1 211 56 139 114 196 244 241
17 5 67 10 113 11 65 1 92 -4 130 -21z"/>
</g>
</svg>
