<?xml version="1.0" standalone="no"?>
<!DOCTYPE svg PUBLIC "-//W3C//DTD SVG 20010904//EN"
 "http://www.w3.org/TR/2001/REC-SVG-20010904/DTD/svg10.dtd">
<svg version="1.0" xmlns="http://www.w3.org/2000/svg"
 width="1024.000000pt" height="1024.000000pt" viewBox="0 0 1024.000000 1024.000000"
 preserveAspectRatio="xMidYMid meet">
<metadata>
Created by potrace 1.13, written by Peter Selinger 2001-2015
</metadata>
<g transform="translate(0.000000,1024.000000) scale(0.100000,-0.100000)"
fill="#000000" stroke="none">
<path d="M4305 9390 c-38 -3 -97 -15 -130 -27 -33 -12 -85 -29 -116 -37 -47
-13 -66 -26 -107 -70 -40 -44 -54 -71 -78 -143 -26 -81 -29 -104 -34 -288 -8
-300 -4 -296 -276 -300 -202 -4 -428 -26 -466 -46 -13 -7 -36 -22 -53 -34 -16
-13 -58 -37 -92 -54 -34 -17 -68 -40 -76 -52 -9 -11 -31 -32 -50 -45 -19 -13
-45 -40 -58 -61 -12 -21 -37 -54 -55 -74 -17 -20 -41 -63 -53 -95 -12 -33 -33
-75 -47 -95 -13 -20 -30 -51 -37 -70 -17 -47 -23 -6261 -7 -6359 6 -36 24 -87
40 -115 16 -27 38 -75 50 -105 12 -30 38 -74 58 -98 96 -112 170 -184 216
-212 28 -17 66 -41 83 -54 22 -16 64 -30 125 -41 51 -9 131 -27 178 -41 l84
-24 1716 0 1716 0 84 24 c47 14 127 32 178 41 61 11 103 25 125 41 17 13 55
37 83 54 46 28 120 100 216 212 20 24 46 68 58 98 12 30 34 78 50 105 16 28
34 79 40 115 16 98 10 6312 -7 6359 -7 19 -24 50 -37 70 -14 20 -35 62 -47 95
-12 32 -36 75 -53 95 -18 20 -43 53 -55 74 -13 21 -39 48 -58 61 -19 13 -41
34 -50 45 -8 12 -50 39 -93 61 -43 22 -81 44 -85 50 -26 42 -215 70 -507 75
-275 4 -271 -1 -279 295 -5 190 -7 212 -33 293 -24 72 -38 99 -78 143 -41 44
-60 57 -107 70 -31 8 -88 26 -127 40 l-70 25 -805 2 c-442 1 -835 0 -874 -3z
m1174 -871 c60 -21 61 -30 61 -427 0 -339 1 -361 19 -383 l19 -24 594 -5 c589
-5 633 -8 652 -39 12 -19 8 -2472 -4 -2486 -28 -34 -84 -35 -1700 -35 -1616 0
-1672 1 -1700 35 -12 14 -16 2467 -4 2486 19 31 63 34 652 39 l594 5 19 24
c18 22 19 44 19 382 0 390 2 402 55 425 39 17 675 20 724 3z"/>
</g>
</svg>
