<?xml version="1.0" standalone="no"?>
<!DOCTYPE svg PUBLIC "-//W3C//DTD SVG 20010904//EN"
 "http://www.w3.org/TR/2001/REC-SVG-20010904/DTD/svg10.dtd">
<svg version="1.0" xmlns="http://www.w3.org/2000/svg"
 width="200.000000pt" height="200.000000pt" viewBox="0 0 200.000000 200.000000"
 preserveAspectRatio="xMidYMid meet">
<metadata>
Created by potrace 1.15, written by Peter Selinger 2001-2017
</metadata>
<g transform="translate(0.000000,200.000000) scale(0.100000,-0.100000)"
fill="#000000" stroke="none">
<path d="M803 1827 c-47 -17 -55 -29 -62 -94 l-6 -58 -73 -10 c-54 -7 -81 -17
-106 -37 -69 -55 -66 -25 -66 -708 0 -673 -1 -657 57 -713 16 -15 45 -32 64
-37 45 -13 723 -13 769 0 41 11 94 61 109 103 7 19 11 235 11 646 0 684 3 654
-66 709 -25 20 -52 30 -106 37 l-73 10 -6 59 c-7 64 -17 78 -68 95 -45 15
-336 13 -378 -2z m267 -253 l5 -79 123 -3 122 -3 0 -123 c0 -67 3 -178 7 -244
l6 -122 -337 0 -336 0 5 243 6 242 122 5 122 5 3 70 c1 39 4 75 6 80 2 6 34 9
72 9 l69 -2 5 -78z"/>
</g>
</svg>
