<?xml version="1.0" standalone="no"?>
<!DOCTYPE svg PUBLIC "-//W3C//DTD SVG 20010904//EN"
 "http://www.w3.org/TR/2001/REC-SVG-20010904/DTD/svg10.dtd">
<svg version="1.0" xmlns="http://www.w3.org/2000/svg"
 width="200.000000pt" height="200.000000pt" viewBox="0 0 200.000000 200.000000"
 preserveAspectRatio="xMidYMid meet">
<metadata>
Created by potrace 1.15, written by Peter Selinger 2001-2017
</metadata>
<g transform="translate(0.000000,200.000000) scale(0.100000,-0.100000)"
fill="#000000" stroke="none">
<path d="M860 1824 c-264 -30 -480 -110 -600 -224 -95 -89 -121 -177 -80 -267
18 -42 18 -43 -1 -97 -46 -132 -8 -215 115 -251 45 -14 54 -21 79 -65 49 -90
111 -108 222 -66 l60 23 58 -49 c70 -58 114 -78 173 -78 59 0 82 11 149 69 32
28 64 51 71 51 7 0 28 -9 46 -19 50 -30 153 -61 198 -61 56 0 107 29 157 87
41 49 42 50 125 61 115 16 124 16 107 -4 -20 -24 -116 -87 -189 -124 -152 -77
-420 -116 -685 -100 -325 20 -543 113 -678 290 l-26 35 -1 -261 c0 -260 0
-260 26 -312 135 -272 836 -390 1318 -223 132 46 245 127 294 210 l27 46 3
308 c3 317 2 334 -39 433 -11 28 -9 37 14 84 34 69 35 121 1 188 -58 116 -245
229 -464 280 -25 6 -66 16 -93 22 -49 11 -326 21 -387 14z m370 -189 c203 -39
377 -121 416 -196 14 -28 14 -33 0 -54 -29 -44 -169 -100 -338 -136 -148 -31
-495 -31 -643 0 -169 35 -298 91 -325 142 -16 28 4 65 57 103 82 60 93 64 112
41 29 -35 68 -47 100 -31 38 20 49 36 53 76 3 31 7 36 40 44 32 8 40 6 68 -17
53 -45 88 -37 148 37 11 13 30 15 125 11 62 -3 146 -12 187 -20z m-808 -494
c284 -112 815 -113 1129 -2 l77 28 13 -24 c7 -12 10 -25 7 -28 -3 -3 -36 -9
-75 -14 -88 -11 -121 -28 -175 -92 -50 -60 -63 -61 -174 -8 -118 56 -185 43
-292 -53 -50 -45 -53 -45 -142 37 -72 66 -108 74 -200 46 -36 -12 -68 -21 -72
-21 -3 0 -18 20 -32 44 -22 37 -36 48 -86 68 -33 12 -62 28 -65 35 -7 19 6 16
87 -16z m1238 -546 c0 -46 -4 -59 -30 -88 -70 -80 -274 -148 -505 -168 -314
-28 -654 45 -761 163 -28 31 -34 46 -34 82 0 52 11 63 42 42 36 -23 227 -84
319 -102 305 -58 683 -15 909 102 25 13 48 23 53 24 4 0 7 -25 7 -55z"/>
<path d="M712 1485 c-57 -25 -67 -91 -20 -135 44 -41 119 -15 134 47 16 61
-53 113 -114 88z"/>
</g>
</svg>
