<?xml version="1.0" standalone="no"?>
<!DOCTYPE svg PUBLIC "-//W3C//DTD SVG 20010904//EN"
 "http://www.w3.org/TR/2001/REC-SVG-20010904/DTD/svg10.dtd">
<svg version="1.0" xmlns="http://www.w3.org/2000/svg"
 width="200.000000pt" height="200.000000pt" viewBox="0 0 200.000000 200.000000"
 preserveAspectRatio="xMidYMid meet">
<metadata>
Created by potrace 1.15, written by Peter Selinger 2001-2017
</metadata>
<g transform="translate(0.000000,200.000000) scale(0.100000,-0.100000)"
fill="#000000" stroke="none">
<path d="M909 1821 c-65 -13 -125 -57 -163 -118 -32 -51 -36 -65 -36 -125 0
-80 22 -146 75 -219 l37 -51 -25 -57 c-39 -86 -50 -143 -45 -234 3 -67 10 -94
35 -144 l30 -61 -30 -63 c-27 -54 -32 -75 -35 -160 -7 -164 39 -250 165 -310
60 -28 75 -32 157 -31 191 0 331 102 425 305 88 194 107 551 42 797 -22 84
-33 110 -69 169 -91 151 -209 249 -347 288 -54 16 -172 23 -216 14z"/>
<path d="M568 1381 c-92 -70 -153 -152 -203 -276 -26 -61 -30 -85 -33 -196 -4
-121 1 -166 39 -379 6 -36 19 -135 28 -220 l16 -155 75 2 c41 1 78 2 83 3 10
0 9 89 -5 296 l-11 180 24 45 c17 31 38 51 72 69 68 35 74 50 45 113 -20 45
-23 68 -23 172 0 99 4 132 24 192 l23 73 -33 65 c-19 36 -39 65 -45 65 -6 0
-40 -22 -76 -49z"/>
</g>
</svg>
