<?xml version="1.0" standalone="no"?>
<!DOCTYPE svg PUBLIC "-//W3C//DTD SVG 20010904//EN"
 "http://www.w3.org/TR/2001/REC-SVG-20010904/DTD/svg10.dtd">
<svg version="1.0" xmlns="http://www.w3.org/2000/svg"
 width="1024.000000pt" height="1024.000000pt" viewBox="0 0 1024.000000 1024.000000"
 preserveAspectRatio="xMidYMid meet">
<metadata>
Created by potrace 1.13, written by Peter Selinger 2001-2015
</metadata>
<g transform="translate(0.000000,1024.000000) scale(0.100000,-0.100000)"
fill="#000000" stroke="none">
<path d="M5656 9388 c-81 -11 -61 7 -610 -572 -83 -87 -194 -203 -246 -257
-95 -98 -308 -319 -513 -532 -59 -62 -117 -121 -129 -132 -12 -11 -31 -31 -43
-44 -11 -13 -65 -70 -120 -126 -55 -57 -170 -176 -255 -265 -85 -89 -195 -203
-245 -255 -49 -51 -193 -202 -320 -336 -126 -134 -277 -293 -335 -354 -107
-112 -140 -167 -126 -212 8 -26 35 -37 137 -58 46 -10 111 -31 144 -48 33 -16
104 -41 157 -53 54 -13 124 -37 157 -53 33 -17 101 -40 151 -51 51 -11 113
-31 139 -46 25 -14 97 -39 159 -55 62 -15 132 -40 156 -54 24 -14 85 -34 137
-46 52 -11 126 -35 164 -54 39 -19 106 -42 150 -51 44 -9 112 -31 150 -50 39
-18 109 -42 158 -54 48 -11 115 -34 148 -51 34 -17 101 -39 151 -50 49 -11
116 -33 149 -49 33 -17 101 -40 152 -52 50 -11 121 -35 157 -53 36 -18 101
-40 145 -49 44 -9 112 -32 152 -51 40 -20 107 -42 150 -51 130 -26 146 -48 95
-128 -34 -53 -2004 -2026 -2024 -2026 -23 0 -57 29 -74 63 -9 18 -27 43 -39
57 -13 14 -33 51 -45 83 -12 32 -35 73 -50 90 -15 18 -39 60 -53 94 -14 34
-39 79 -55 100 -17 21 -39 61 -50 90 -11 29 -34 70 -51 92 -17 21 -38 58 -46
81 -8 23 -33 69 -54 101 -22 32 -45 76 -51 96 -23 72 -66 94 -94 50 -34 -52
-94 -264 -111 -392 -10 -78 -30 -171 -51 -233 -19 -60 -42 -162 -53 -245 -12
-80 -34 -181 -50 -229 -16 -48 -35 -122 -41 -165 -6 -43 -16 -109 -22 -147 -6
-38 -23 -108 -39 -155 -16 -48 -38 -149 -50 -231 -12 -87 -34 -185 -54 -245
-20 -61 -39 -150 -50 -230 -10 -79 -30 -171 -51 -235 -21 -64 -40 -154 -50
-230 -10 -77 -29 -165 -50 -229 -36 -109 -40 -143 -24 -186 14 -36 32 -40 113
-21 40 9 120 23 179 31 59 9 154 31 210 50 58 19 155 41 222 50 68 9 162 31
220 50 56 19 154 41 221 50 67 10 166 32 223 51 58 19 161 43 235 54 75 11
169 32 218 50 49 17 146 39 220 50 73 11 180 36 238 54 58 19 160 42 225 51
67 9 163 31 220 50 56 18 153 41 216 50 155 22 214 39 239 71 44 56 19 103
-71 136 -34 12 -76 34 -93 49 -16 15 -58 38 -92 52 -34 14 -79 39 -100 55 -21
17 -61 39 -90 50 -29 11 -70 34 -91 50 -21 17 -61 39 -90 50 -28 11 -69 34
-90 51 -22 17 -64 40 -93 51 -57 22 -123 76 -144 117 -18 35 -8 61 35 89 20
14 43 36 50 50 8 13 28 34 46 44 17 11 42 35 54 53 13 19 37 43 54 55 17 12
40 34 50 50 10 16 34 39 53 52 18 13 41 36 51 52 9 16 32 38 49 49 18 11 41
34 50 50 10 17 32 39 49 50 17 10 42 34 54 52 13 19 37 43 54 55 17 12 40 34
50 50 10 16 34 39 53 52 18 13 41 36 51 52 9 16 32 38 49 49 18 11 41 34 50
50 10 17 32 39 49 50 17 10 42 34 54 52 13 19 37 43 54 55 17 12 40 34 50 50
10 16 34 39 53 52 18 13 41 36 51 52 9 16 32 38 49 49 18 11 41 34 50 50 10
17 33 39 50 50 18 11 41 34 50 50 10 17 32 39 49 50 17 10 42 34 54 52 13 19
38 44 57 57 18 13 41 36 51 52 9 16 32 38 49 49 18 11 41 34 50 50 10 17 33
39 50 50 18 11 41 34 50 50 10 17 32 39 49 50 17 10 42 34 54 53 13 18 36 42
52 52 16 10 38 33 50 50 12 17 36 41 55 54 18 12 42 37 52 54 11 17 33 39 50
49 16 9 39 32 50 50 11 17 33 40 49 49 16 10 39 33 52 51 13 19 36 43 52 53
16 10 38 33 50 50 12 17 36 41 55 54 18 12 42 37 52 54 11 17 33 39 50 49 16
9 39 32 50 50 11 17 33 40 49 49 16 10 39 33 52 51 13 19 37 43 54 55 17 12
40 34 50 50 10 16 34 39 52 52 19 12 43 37 53 54 11 17 33 39 50 49 16 9 39
32 50 50 11 17 33 40 49 49 16 10 39 32 52 51 12 18 37 43 55 54 30 20 85 115
85 148 0 24 -41 44 -125 61 -44 8 -111 31 -150 49 -38 19 -111 43 -161 54 -51
11 -119 33 -152 50 -34 17 -104 40 -158 52 -53 11 -122 34 -153 50 -31 16 -99
38 -151 50 -52 11 -126 35 -165 54 -38 18 -108 41 -155 50 -47 10 -114 32
-150 50 -36 18 -103 40 -150 50 -47 9 -116 32 -155 50 -38 19 -111 43 -161 54
-51 11 -119 33 -152 50 -34 17 -105 40 -159 52 -54 12 -124 34 -155 50 -32 16
-100 39 -151 50 -50 12 -123 36 -162 54 -38 19 -106 41 -150 50 -44 9 -114 31
-155 49 -41 19 -91 39 -111 45 -38 12 -79 45 -79 63 0 21 144 162 634 618 50
47 132 125 181 173 50 48 139 133 198 190 59 56 154 147 211 202 56 55 111
107 122 116 10 9 31 29 46 45 15 16 77 76 138 134 61 58 157 150 213 205 57
55 175 168 262 250 88 83 175 166 195 185 19 19 105 99 190 178 85 79 165 160
177 180 29 47 30 88 3 97 -28 9 -1724 12 -1784 3z"/>
</g>
</svg>
