<?xml version="1.0" standalone="no"?>
<!DOCTYPE svg PUBLIC "-//W3C//DTD SVG 20010904//EN"
 "http://www.w3.org/TR/2001/REC-SVG-20010904/DTD/svg10.dtd">
<svg version="1.0" xmlns="http://www.w3.org/2000/svg"
 width="200.000000pt" height="200.000000pt" viewBox="0 0 200.000000 200.000000"
 preserveAspectRatio="xMidYMid meet">
<metadata>
Created by potrace 1.15, written by Peter Selinger 2001-2017
</metadata>
<g transform="translate(0.000000,200.000000) scale(0.100000,-0.100000)"
fill="#000000" stroke="none">
<path d="M838 1578 c-307 -318 -334 -347 -322 -357 5 -4 151 -54 324 -111 173
-57 317 -105 320 -107 2 -2 -86 -93 -195 -203 -110 -110 -202 -196 -206 -192
-8 9 -55 93 -87 154 -13 27 -25 48 -28 48 -8 0 -28 -48 -36 -87 -13 -68 -35
-174 -58 -273 -11 -46 -30 -134 -42 -190 -5 -25 -10 -58 -11 -75 -2 -33 -1
-33 68 -16 63 16 116 28 175 41 30 7 73 16 95 22 22 5 58 13 80 18 22 5 58 13
80 18 22 6 56 13 75 17 19 3 45 8 57 11 28 5 21 29 -15 47 -57 29 -148 80
-159 89 -8 7 84 105 319 340 181 181 326 333 321 337 -4 4 -55 22 -113 40 -58
19 -114 37 -125 41 -11 4 -107 36 -214 71 l-194 62 54 51 c52 49 384 363 442
418 15 15 26 32 22 38 -4 6 -77 10 -189 10 l-183 0 -255 -262z"/>
</g>
</svg>
