<?xml version="1.0" standalone="no"?>
<!DOCTYPE svg PUBLIC "-//W3C//DTD SVG 20010904//EN"
 "http://www.w3.org/TR/2001/REC-SVG-20010904/DTD/svg10.dtd">
<svg version="1.0" xmlns="http://www.w3.org/2000/svg"
 width="200.000000pt" height="200.000000pt" viewBox="0 0 200.000000 200.000000"
 preserveAspectRatio="xMidYMid meet">
<metadata>
Created by potrace 1.15, written by Peter Selinger 2001-2017
</metadata>
<g transform="translate(0.000000,200.000000) scale(0.100000,-0.100000)"
fill="#000000" stroke="none">
<path d="M860 1820 c-30 -4 -71 -13 -90 -18 -19 -6 -46 -14 -60 -18 -45 -13
-174 -85 -229 -128 -219 -167 -358 -490 -322 -749 12 -85 47 -212 64 -234 14
-18 34 -16 40 5 4 9 18 37 33 62 15 25 35 59 44 75 10 17 41 71 70 120 29 50
62 106 72 125 11 19 27 44 34 55 8 11 14 28 14 38 0 16 -8 18 -80 16 -44 -1
-83 1 -87 4 -3 4 0 21 7 39 59 158 193 306 340 375 117 55 173 66 315 61 113
-4 172 -16 245 -51 47 -22 166 -105 201 -140 20 -20 40 -32 45 -29 5 4 21 25
35 47 14 22 33 52 42 66 16 25 16 27 -4 53 -42 54 -233 166 -329 195 -25 7
-55 17 -68 22 -32 13 -266 19 -332 9z"/>
<path d="M917 1494 c-4 -4 -7 -40 -7 -80 0 -80 -3 -84 -72 -84 -31 0 -46 -7
-69 -30 l-30 -30 3 -156 3 -156 28 -24 c27 -23 35 -24 163 -24 l134 0 0 -40 0
-40 -165 0 -165 0 0 -85 c0 -95 -8 -87 90 -86 30 1 60 -2 67 -7 7 -4 13 -38
15 -82 l3 -75 80 0 80 0 5 80 5 80 59 5 c48 5 62 10 83 34 24 28 24 31 21 183
l-3 155 -28 24 c-27 23 -35 24 -163 24 l-134 0 0 40 0 40 165 0 165 0 0 85 c0
61 -4 85 -12 86 -7 1 -40 1 -73 0 -33 -1 -65 2 -72 6 -7 5 -13 39 -15 83 l-3
75 -75 3 c-42 1 -79 0 -83 -4z"/>
<path d="M1727 1313 c-4 -10 -18 -38 -33 -63 -15 -25 -35 -58 -44 -75 -10 -16
-41 -70 -70 -120 -29 -49 -62 -106 -72 -125 -11 -19 -27 -44 -34 -55 -8 -11
-14 -28 -14 -38 0 -16 8 -18 80 -16 44 1 83 -1 87 -4 3 -4 0 -21 -7 -39 -59
-158 -193 -306 -340 -375 -117 -55 -173 -66 -315 -61 -113 4 -172 16 -245 51
-47 22 -166 105 -201 140 -20 20 -40 32 -45 29 -5 -4 -21 -25 -35 -47 -14 -22
-33 -52 -42 -66 -16 -25 -16 -27 4 -53 42 -53 232 -166 329 -195 25 -7 59 -18
75 -25 18 -6 96 -11 190 -11 94 0 172 5 190 11 17 7 50 18 75 25 63 18 185 83
249 133 221 168 357 489 320 753 -11 82 -46 209 -62 231 -14 17 -34 15 -40 -5z"/>
</g>
</svg>
