<?xml version="1.0" standalone="no"?>
<!DOCTYPE svg PUBLIC "-//W3C//DTD SVG 20010904//EN"
 "http://www.w3.org/TR/2001/REC-SVG-20010904/DTD/svg10.dtd">
<svg version="1.0" xmlns="http://www.w3.org/2000/svg"
 width="1024.000000pt" height="1024.000000pt" viewBox="0 0 1024.000000 1024.000000"
 preserveAspectRatio="xMidYMid meet">
<metadata>
Created by potrace 1.13, written by Peter Selinger 2001-2015
</metadata>
<g transform="translate(0.000000,1024.000000) scale(0.100000,-0.100000)"
fill="#000000" stroke="none">
<path d="M4985 9380 c-149 -23 -319 -41 -470 -50 -214 -13 -282 -24 -372 -60
-40 -16 -123 -39 -185 -50 -72 -14 -138 -33 -183 -54 -38 -19 -104 -41 -145
-50 -46 -11 -100 -32 -140 -56 -36 -21 -84 -43 -107 -49 -22 -6 -65 -27 -93
-47 -29 -20 -78 -45 -109 -55 -31 -11 -72 -33 -93 -49 -20 -16 -62 -41 -95
-55 -32 -14 -74 -39 -93 -54 -19 -15 -55 -37 -81 -48 -25 -11 -61 -34 -80 -50
-18 -17 -54 -41 -79 -53 -25 -12 -62 -38 -82 -56 -20 -18 -55 -42 -78 -54 -22
-11 -40 -25 -40 -30 0 -5 -24 -27 -53 -49 -30 -21 -67 -52 -83 -68 -16 -15
-60 -57 -98 -92 -87 -83 -315 -331 -429 -468 -68 -82 -113 -141 -145 -191 -15
-24 -45 -65 -66 -90 -21 -26 -45 -61 -52 -79 -8 -18 -27 -48 -44 -66 -16 -19
-43 -63 -58 -98 -16 -35 -39 -72 -50 -83 -12 -10 -31 -44 -42 -75 -12 -31 -38
-85 -60 -121 -21 -36 -46 -92 -55 -125 -9 -33 -30 -81 -46 -106 -16 -25 -38
-81 -49 -125 -11 -43 -36 -113 -55 -155 -20 -43 -42 -111 -50 -159 -17 -99
-19 -104 -56 -202 -22 -59 -34 -119 -49 -250 -11 -95 -29 -225 -41 -288 -44
-253 -44 -686 1 -940 11 -63 29 -186 40 -273 15 -115 28 -179 50 -235 16 -42
41 -127 54 -189 16 -69 37 -132 55 -165 17 -29 37 -84 46 -122 20 -86 32 -110
85 -163 61 -64 81 -59 124 25 19 38 42 75 51 82 10 8 33 48 52 90 19 41 45 86
58 100 13 14 31 45 41 70 9 25 30 62 46 83 16 20 41 63 54 95 14 31 36 68 49
82 13 14 38 55 54 92 17 37 44 82 59 100 16 18 36 53 46 78 10 25 31 62 47 82
16 21 42 66 58 100 15 35 36 70 46 78 10 8 33 47 50 85 18 39 40 77 50 85 10
8 34 49 52 90 19 41 45 86 58 100 13 14 33 47 45 74 11 27 36 70 54 95 18 25
43 69 55 96 12 28 33 61 46 75 13 14 37 56 55 95 17 38 42 81 55 95 13 14 34
50 48 81 13 30 41 77 61 103 20 26 36 53 36 60 0 7 14 33 30 59 38 60 39 91 3
114 -25 16 -62 18 -403 20 -206 1 -383 2 -393 2 -11 1 -24 15 -34 38 -23 56
-12 138 30 226 18 39 42 104 51 142 9 39 32 92 50 120 18 28 41 73 50 102 9
28 31 71 49 95 17 24 43 68 58 98 15 30 37 64 49 75 12 11 34 42 47 70 14 27
43 70 63 95 21 25 45 59 54 77 8 17 26 40 39 50 12 10 33 34 46 53 13 19 40
52 60 72 20 20 63 66 96 103 76 84 276 283 355 355 34 30 81 74 105 98 24 23
49 42 55 42 6 0 29 17 53 39 23 21 74 54 112 74 39 19 78 44 89 55 10 12 40
28 67 37 27 9 75 34 107 55 31 21 83 46 114 55 31 9 76 29 100 45 24 17 81 41
127 56 46 14 107 39 135 54 36 20 85 35 166 49 63 11 154 34 201 50 117 41
170 48 475 62 200 9 317 9 500 0 314 -15 401 -26 509 -62 50 -17 135 -39 189
-50 58 -11 131 -33 175 -54 42 -19 105 -41 140 -49 35 -8 89 -30 120 -49 31
-20 82 -44 114 -55 32 -12 72 -33 90 -48 17 -15 59 -39 92 -54 33 -15 66 -35
74 -44 8 -10 49 -35 90 -56 42 -21 85 -48 96 -60 11 -12 40 -32 65 -45 25 -13
54 -33 65 -45 11 -12 43 -37 70 -55 119 -76 384 -320 420 -387 16 -28 43 -48
68 -48 34 0 106 70 136 134 17 35 44 80 60 99 17 19 39 54 50 78 10 24 33 62
51 84 18 22 42 63 55 90 12 28 32 59 45 70 25 22 54 75 64 117 9 39 -28 132
-62 153 -15 10 -48 39 -73 64 -63 63 -146 133 -194 163 -22 14 -53 37 -68 52
-16 14 -45 35 -65 45 -20 11 -48 31 -62 46 -14 15 -52 41 -85 57 -33 17 -71
41 -85 54 -14 12 -50 34 -80 47 -31 14 -62 33 -70 43 -8 9 -51 34 -96 55 -44
20 -93 48 -110 62 -16 13 -57 35 -92 47 -35 13 -79 36 -98 51 -19 15 -65 38
-102 50 -37 12 -92 37 -122 55 -32 19 -90 41 -141 53 -48 11 -113 34 -146 50
-36 19 -95 36 -152 46 -97 17 -133 27 -246 70 -60 23 -98 28 -275 40 -238 17
-266 19 -457 46 -146 19 -249 22 -338 9z"/>
<path d="M4725 7655 l-25 -24 0 -366 0 -367 -28 -27 c-24 -25 -38 -29 -112
-35 -47 -4 -139 -6 -205 -5 -114 2 -124 1 -190 -28 -38 -17 -85 -34 -104 -38
-23 -5 -53 -27 -96 -73 -57 -59 -66 -74 -91 -156 l-29 -91 0 -685 0 -685 24
-75 c36 -115 57 -146 126 -187 33 -20 74 -47 91 -60 66 -49 120 -53 784 -53
502 -1 618 -3 633 -14 28 -22 37 -71 37 -209 0 -146 -10 -178 -62 -196 -24 -9
-243 -11 -791 -10 -832 1 -783 4 -824 -58 -16 -25 -18 -59 -18 -373 0 -471
-30 -435 360 -431 150 1 310 -1 356 -5 73 -6 87 -11 111 -35 l28 -27 0 -367 0
-366 25 -24 24 -25 371 0 371 0 24 25 25 24 0 363 c0 390 0 391 52 419 13 7
94 13 202 15 169 3 187 6 266 33 47 16 103 34 125 40 64 17 147 119 182 224
l28 82 0 690 0 690 -24 75 c-36 115 -57 146 -126 187 -33 20 -74 47 -91 60
-66 49 -120 53 -785 53 l-616 0 -24 26 c-23 24 -24 33 -27 170 -3 102 0 154 9
176 25 60 5 59 841 57 737 -1 762 0 787 18 55 41 56 50 56 413 0 365 -1 372
-58 414 -26 19 -38 20 -301 17 -151 -1 -311 1 -357 5 -73 6 -87 11 -111 35
l-28 27 0 367 0 366 -25 24 -24 25 -371 0 -371 0 -24 -25z"/>
<path d="M8906 6732 c-19 -38 -42 -75 -51 -82 -10 -8 -33 -48 -52 -90 -19 -41
-45 -86 -58 -100 -13 -14 -31 -45 -41 -70 -9 -25 -30 -62 -46 -83 -16 -20 -41
-63 -54 -95 -14 -31 -36 -68 -49 -82 -13 -14 -38 -55 -54 -92 -17 -37 -44 -82
-59 -100 -16 -18 -36 -53 -46 -78 -10 -25 -31 -62 -47 -82 -16 -21 -42 -66
-58 -100 -15 -35 -36 -70 -46 -78 -10 -8 -33 -47 -50 -85 -18 -39 -40 -77 -50
-85 -10 -8 -34 -49 -52 -90 -19 -41 -45 -86 -58 -100 -13 -14 -33 -47 -45 -74
-11 -27 -36 -70 -54 -95 -18 -25 -43 -68 -55 -96 -12 -27 -33 -61 -46 -75 -13
-14 -37 -56 -55 -95 -17 -38 -42 -81 -55 -95 -13 -14 -34 -50 -48 -81 -13 -30
-41 -77 -61 -103 -20 -26 -36 -53 -36 -60 0 -7 -13 -33 -30 -59 -38 -60 -39
-91 -3 -114 25 -16 62 -18 403 -20 206 -1 383 -2 393 -2 11 -1 24 -15 34 -38
23 -56 12 -138 -30 -226 -18 -39 -42 -103 -51 -142 -9 -39 -32 -92 -50 -120
-18 -27 -41 -73 -50 -102 -9 -28 -31 -71 -49 -95 -17 -24 -43 -68 -58 -98 -15
-30 -37 -64 -49 -75 -12 -11 -34 -42 -47 -70 -14 -27 -43 -70 -63 -95 -21 -25
-45 -59 -54 -77 -8 -17 -26 -40 -39 -50 -12 -10 -33 -34 -46 -53 -13 -19 -40
-52 -60 -72 -20 -20 -63 -66 -96 -103 -76 -84 -276 -283 -355 -355 -34 -30
-81 -74 -105 -97 -24 -24 -49 -43 -55 -43 -6 0 -29 -17 -53 -39 -23 -21 -73
-54 -112 -74 -38 -19 -78 -44 -89 -55 -10 -12 -40 -28 -67 -37 -27 -9 -75 -34
-107 -55 -31 -21 -83 -46 -114 -55 -31 -9 -76 -29 -100 -45 -24 -17 -81 -41
-127 -56 -46 -14 -107 -39 -135 -54 -36 -20 -85 -35 -166 -49 -63 -11 -154
-34 -201 -50 -117 -41 -170 -48 -475 -62 -200 -9 -317 -9 -500 0 -314 15 -401
26 -509 62 -49 17 -135 39 -189 50 -58 11 -131 33 -175 54 -42 19 -105 41
-140 49 -35 8 -89 30 -120 49 -31 20 -82 44 -114 55 -32 12 -72 33 -90 48 -17
15 -59 39 -92 54 -33 15 -66 35 -74 44 -8 10 -49 35 -90 56 -42 21 -85 48 -96
60 -11 12 -40 32 -65 45 -25 13 -54 33 -65 45 -11 12 -42 37 -70 55 -119 76
-384 320 -420 387 -16 28 -43 48 -68 48 -34 0 -106 -70 -136 -134 -17 -35 -44
-80 -60 -99 -17 -19 -39 -54 -50 -78 -10 -24 -33 -62 -51 -84 -18 -22 -42 -62
-55 -90 -12 -27 -32 -59 -45 -70 -25 -22 -54 -75 -64 -117 -9 -39 28 -132 62
-153 15 -10 48 -39 73 -64 63 -63 146 -133 194 -163 22 -14 53 -37 68 -52 16
-14 45 -35 65 -45 20 -11 48 -31 62 -46 14 -15 52 -41 85 -57 33 -17 71 -41
85 -54 14 -12 50 -34 80 -47 31 -14 62 -33 70 -43 8 -9 51 -34 96 -55 44 -20
93 -48 110 -62 16 -13 57 -35 92 -47 35 -13 79 -36 98 -51 19 -15 65 -38 102
-50 37 -12 92 -37 122 -55 32 -19 90 -41 141 -53 48 -11 113 -34 146 -50 36
-19 95 -36 152 -46 97 -17 133 -27 246 -70 61 -23 98 -28 285 -41 118 -8 267
-21 330 -29 334 -44 311 -44 635 -1 61 8 191 20 290 26 220 14 279 23 372 60
40 16 123 39 185 50 72 14 138 33 183 54 39 19 104 41 145 50 46 11 100 32
140 56 36 21 84 43 107 49 22 6 65 27 93 47 29 20 78 45 109 55 31 11 72 33
93 49 20 16 62 41 95 55 32 14 74 39 93 54 19 15 55 37 81 48 25 11 61 34 80
50 18 17 54 41 79 53 25 12 62 38 82 56 20 18 55 42 78 54 22 11 40 25 40 30
0 5 24 27 53 49 30 21 67 52 83 68 16 15 60 57 98 92 87 83 315 331 429 468
68 82 113 141 145 191 15 24 45 65 66 90 21 26 45 61 52 79 8 18 27 48 44 66
16 19 43 63 58 98 16 35 39 72 50 83 12 10 31 44 42 75 12 31 38 85 60 121 21
36 46 92 55 125 9 33 30 81 46 106 16 25 38 81 49 125 11 43 36 113 55 155 20
43 42 111 50 159 17 99 19 104 56 202 22 59 34 119 49 250 11 95 29 225 41
288 44 253 44 686 -1 940 -11 63 -29 186 -40 273 -15 115 -28 179 -50 235 -16
42 -41 127 -54 189 -16 69 -37 132 -55 165 -17 29 -37 84 -46 122 -20 86 -32
110 -85 164 -61 63 -81 58 -124 -26z"/>
</g>
</svg>
