<?xml version="1.0" standalone="no"?>
<!DOCTYPE svg PUBLIC "-//W3C//DTD SVG 20010904//EN"
 "http://www.w3.org/TR/2001/REC-SVG-20010904/DTD/svg10.dtd">
<svg version="1.0" xmlns="http://www.w3.org/2000/svg"
 width="200.000000pt" height="200.000000pt" viewBox="0 0 200.000000 200.000000"
 preserveAspectRatio="xMidYMid meet">
<metadata>
Created by potrace 1.15, written by Peter Selinger 2001-2017
</metadata>
<g transform="translate(0.000000,200.000000) scale(0.100000,-0.100000)"
fill="#000000" stroke="none">
<path d="M870 1821 c-128 -15 -303 -94 -417 -187 -86 -70 -190 -215 -234 -325
-45 -114 -53 -159 -53 -309 0 -122 3 -158 22 -225 81 -282 295 -498 582 -586
65 -20 96 -23 230 -22 146 0 161 2 246 31 276 93 476 301 556 578 19 67 23
101 22 229 -1 141 -3 156 -33 244 -38 112 -74 178 -151 275 -68 86 -117 128
-224 191 -119 70 -228 102 -367 108 -63 3 -143 2 -179 -2z m-38 -319 c52 -54
117 -131 143 -170 37 -55 52 -71 64 -65 9 4 47 8 85 9 51 1 71 5 77 17 15 26
39 177 39 245 0 76 9 79 98 25 181 -110 300 -303 318 -515 7 -83 1 -94 -32
-57 -51 56 -228 154 -317 175 -28 6 -29 5 -26 -27 4 -63 -1 -78 -40 -122 l-38
-45 56 -114 c60 -122 131 -320 131 -368 0 -33 -25 -54 -114 -95 -96 -44 -162
-57 -281 -58 -105 0 -235 23 -235 43 0 4 8 18 19 31 88 112 291 495 291 548 0
5 -14 14 -30 21 -45 19 -74 66 -80 130 l-5 55 -35 -3 c-143 -13 -377 -129
-518 -257 -29 -26 -56 -44 -60 -40 -13 13 -8 238 7 290 8 28 32 88 54 135 33
70 56 100 126 170 76 75 164 138 197 139 6 1 54 -43 106 -97z"/>
</g>
</svg>
