<?xml version="1.0" standalone="no"?>
<!DOCTYPE svg PUBLIC "-//W3C//DTD SVG 20010904//EN"
 "http://www.w3.org/TR/2001/REC-SVG-20010904/DTD/svg10.dtd">
<svg version="1.0" xmlns="http://www.w3.org/2000/svg"
 width="1024.000000pt" height="1024.000000pt" viewBox="0 0 1024.000000 1024.000000"
 preserveAspectRatio="xMidYMid meet">
<metadata>
Created by potrace 1.13, written by Peter Selinger 2001-2015
</metadata>
<g transform="translate(0.000000,1024.000000) scale(0.100000,-0.100000)"
fill="#000000" stroke="none">
<path d="M4945 9374 c-119 -18 -362 -41 -505 -49 -153 -8 -221 -21 -303 -56
-37 -15 -118 -38 -180 -49 -70 -13 -140 -34 -187 -55 -41 -19 -106 -41 -143
-50 -69 -15 -119 -36 -148 -61 -9 -8 -49 -25 -90 -39 -40 -14 -90 -38 -109
-54 -19 -15 -64 -39 -100 -52 -35 -13 -78 -35 -95 -50 -17 -16 -56 -37 -86
-49 -30 -12 -71 -35 -92 -51 -21 -17 -58 -39 -83 -50 -24 -11 -59 -33 -77 -48
-18 -16 -56 -40 -85 -55 -29 -15 -69 -42 -90 -60 -20 -18 -51 -41 -69 -49 -17
-9 -40 -27 -50 -40 -10 -12 -34 -33 -53 -47 -79 -55 -202 -176 -380 -375 -104
-115 -205 -228 -224 -250 -54 -59 -102 -123 -144 -189 -20 -32 -51 -75 -68
-95 -17 -20 -39 -52 -49 -71 -10 -19 -31 -50 -46 -68 -16 -17 -44 -65 -62
-105 -19 -39 -43 -80 -55 -91 -12 -10 -31 -47 -42 -82 -12 -34 -35 -80 -51
-100 -16 -20 -36 -62 -44 -93 -8 -31 -33 -90 -54 -131 -21 -41 -46 -109 -56
-150 -10 -41 -33 -105 -51 -141 -20 -41 -40 -104 -52 -170 -11 -57 -34 -140
-50 -185 -29 -77 -44 -155 -57 -294 -4 -36 -18 -137 -33 -225 -25 -150 -27
-180 -27 -475 0 -295 2 -325 27 -475 15 -88 29 -189 33 -225 13 -139 28 -217
57 -294 16 -45 39 -128 50 -185 12 -66 32 -129 52 -170 18 -36 41 -100 51
-141 10 -41 35 -109 56 -150 21 -41 46 -100 54 -131 8 -31 28 -73 44 -93 16
-20 39 -66 51 -100 11 -35 30 -72 42 -82 12 -11 36 -52 55 -91 18 -40 46 -88
62 -105 15 -18 36 -49 46 -68 10 -19 32 -51 49 -71 17 -20 48 -63 68 -95 42
-66 90 -130 144 -189 19 -22 120 -134 224 -250 178 -199 301 -320 380 -375 19
-14 43 -35 53 -47 10 -13 33 -31 50 -40 18 -8 49 -31 69 -49 21 -18 61 -45 90
-60 29 -15 67 -39 85 -55 18 -15 53 -37 77 -48 25 -11 62 -33 83 -50 21 -16
62 -39 92 -51 30 -12 69 -33 86 -49 17 -15 60 -37 95 -50 36 -13 81 -37 100
-52 19 -16 69 -40 109 -54 41 -14 81 -31 90 -39 29 -25 79 -46 148 -61 37 -9
102 -31 143 -50 47 -21 117 -42 187 -55 62 -11 143 -34 180 -49 81 -35 150
-48 298 -56 167 -9 325 -24 482 -45 79 -11 170 -20 203 -20 33 0 124 9 203 20
157 21 315 36 482 45 148 8 217 21 298 56 37 15 118 38 180 49 70 13 140 34
187 55 41 19 106 41 143 50 69 15 119 36 148 61 9 8 49 25 90 39 40 14 90 38
109 54 19 15 64 39 100 52 35 13 78 35 95 50 17 16 56 37 86 49 30 12 71 35
92 51 21 17 58 39 83 50 24 11 59 33 77 48 18 16 56 40 85 55 29 15 69 42 90
60 20 18 51 41 69 49 17 9 40 27 50 40 10 12 34 33 53 47 79 55 202 176 380
375 104 116 205 228 224 250 54 59 102 123 144 189 20 32 51 75 68 95 17 20
39 52 49 71 10 19 31 50 46 68 16 17 44 65 62 105 19 39 43 80 55 91 12 10 31
47 42 82 12 34 35 80 51 100 16 20 36 62 44 93 8 31 33 90 54 131 21 41 46
109 56 150 10 41 33 105 51 141 20 41 40 104 52 170 11 57 34 140 50 185 29
77 44 155 57 294 4 36 18 137 33 225 25 150 27 180 27 475 0 295 -2 325 -27
475 -15 88 -29 189 -33 225 -13 139 -28 217 -57 294 -16 45 -39 128 -50 185
-12 66 -32 129 -52 170 -18 36 -41 100 -51 141 -10 41 -35 109 -56 150 -21 41
-46 100 -54 131 -8 31 -28 73 -44 93 -16 20 -39 66 -51 100 -11 35 -30 72 -42
82 -12 11 -36 52 -55 91 -18 40 -46 88 -62 105 -15 18 -36 49 -46 68 -10 19
-32 51 -49 71 -17 20 -48 63 -68 95 -42 66 -90 130 -144 189 -19 22 -120 135
-224 250 -178 199 -301 320 -380 375 -19 14 -43 35 -53 47 -10 13 -33 31 -50
40 -18 8 -49 31 -69 49 -21 18 -61 45 -90 60 -29 15 -67 39 -85 55 -18 15 -53
37 -77 48 -25 11 -62 33 -83 50 -21 16 -62 39 -92 51 -30 12 -69 33 -86 49
-17 15 -60 37 -95 50 -36 13 -81 37 -100 52 -19 16 -69 40 -109 54 -41 14 -81
31 -90 39 -29 25 -79 46 -148 61 -37 9 -102 31 -143 50 -47 21 -117 42 -187
55 -62 11 -143 34 -180 49 -81 35 -150 48 -298 56 -167 9 -325 24 -482 45
-163 23 -249 24 -378 4z m1573 -1148 c31 -13 75 -29 97 -36 22 -7 62 -28 88
-47 26 -18 73 -43 103 -54 31 -12 70 -34 88 -50 18 -16 55 -38 81 -49 27 -12
68 -39 92 -60 23 -22 47 -40 53 -40 6 0 29 -17 53 -38 23 -20 62 -53 87 -72
168 -128 449 -411 537 -540 17 -25 41 -54 53 -65 12 -11 31 -37 41 -57 10 -20
30 -47 44 -60 13 -13 36 -50 50 -82 14 -33 41 -76 59 -98 18 -21 38 -55 45
-77 6 -21 27 -63 47 -91 20 -29 45 -78 55 -109 11 -31 35 -81 53 -111 19 -30
43 -90 55 -133 12 -42 34 -101 50 -130 18 -32 37 -91 49 -152 11 -55 34 -137
51 -182 43 -118 73 -388 75 -693 0 -136 -2 -160 -19 -195 -28 -57 -55 -58
-102 -3 -58 66 -172 175 -233 221 -30 22 -61 49 -68 59 -7 10 -32 29 -56 43
-23 13 -53 36 -67 51 -13 14 -46 37 -74 51 -27 14 -65 39 -84 55 -19 17 -55
39 -80 50 -25 10 -59 32 -76 48 -16 16 -55 38 -85 50 -30 12 -75 37 -99 56
-25 19 -67 41 -95 49 -28 9 -76 31 -107 50 -30 18 -86 41 -125 51 -38 9 -100
32 -138 51 -38 19 -98 41 -135 48 -36 8 -100 24 -142 36 -130 37 -150 18 -130
-125 17 -123 14 -208 -10 -274 -11 -31 -29 -85 -40 -119 -12 -39 -35 -80 -59
-108 -22 -26 -40 -50 -40 -56 0 -12 -176 -189 -188 -189 -12 0 -62 -97 -62
-121 0 -25 58 -148 90 -188 15 -20 37 -62 49 -94 12 -32 35 -75 51 -95 16 -21
39 -64 50 -97 11 -33 34 -79 51 -102 16 -24 41 -75 54 -114 14 -40 37 -87 51
-107 15 -19 37 -68 50 -109 13 -41 36 -96 53 -121 16 -26 39 -79 50 -119 10
-40 35 -100 54 -135 19 -35 42 -96 51 -137 9 -40 29 -97 45 -125 17 -29 41
-98 55 -159 14 -59 38 -130 52 -159 15 -30 37 -104 50 -168 12 -64 37 -150 54
-193 34 -85 65 -277 55 -335 -4 -24 -19 -42 -58 -70 -29 -22 -59 -47 -67 -57
-8 -9 -38 -28 -67 -40 -29 -13 -70 -37 -91 -54 -20 -17 -65 -42 -99 -55 -34
-13 -77 -36 -96 -50 -19 -14 -66 -37 -105 -50 -39 -14 -88 -36 -109 -50 -21
-15 -76 -38 -122 -52 -46 -14 -107 -39 -135 -54 -36 -21 -86 -35 -169 -50 -65
-11 -156 -33 -201 -49 -45 -16 -113 -33 -152 -39 -112 -18 -567 -35 -729 -28
-432 20 -495 27 -613 75 -29 11 -101 30 -161 40 -110 20 -249 77 -280 115 -24
29 -16 66 23 102 20 18 36 37 36 43 0 5 22 38 49 74 27 35 58 81 69 103 11 21
34 53 50 71 17 17 41 51 53 75 12 24 35 59 52 77 16 19 39 55 49 79 11 24 35
60 53 80 18 21 40 54 49 75 8 21 31 57 50 80 18 23 44 65 56 94 12 28 33 62
47 75 14 12 38 52 54 88 17 36 41 76 54 90 13 14 31 45 41 70 9 25 33 67 52
93 19 26 43 71 54 99 11 29 33 69 49 90 17 20 41 64 54 97 13 33 37 80 54 103
17 24 39 69 50 101 11 31 34 76 50 100 17 23 40 69 51 101 11 33 34 80 50 106
17 26 41 79 54 117 13 39 36 89 51 111 15 22 37 75 51 118 13 42 35 94 50 115
14 21 37 77 50 124 14 47 33 100 44 118 48 78 9 159 -92 193 -27 9 -68 31 -92
48 -23 18 -63 45 -89 60 -25 15 -56 43 -67 61 -12 19 -39 56 -61 82 -21 26
-46 69 -55 95 -8 26 -27 64 -41 85 -46 67 -55 115 -59 293 -1 91 -3 175 -3
187 -1 12 -12 34 -25 50 l-24 27 -73 -22 c-41 -13 -136 -31 -211 -42 -94 -13
-161 -29 -212 -49 -41 -17 -124 -39 -183 -50 -73 -14 -129 -32 -173 -54 -36
-19 -99 -42 -140 -52 -41 -9 -100 -32 -130 -50 -30 -18 -84 -41 -120 -50 -36
-9 -94 -34 -130 -55 -36 -21 -87 -44 -114 -51 -26 -7 -68 -27 -92 -45 -24 -19
-72 -45 -106 -59 -34 -14 -74 -36 -88 -49 -14 -13 -49 -35 -77 -49 -29 -14
-70 -39 -92 -56 -22 -17 -57 -38 -78 -47 -21 -9 -55 -31 -75 -50 -20 -18 -56
-43 -80 -55 -24 -12 -61 -36 -83 -54 -22 -17 -62 -44 -88 -59 -27 -15 -51 -34
-54 -42 -3 -7 -21 -23 -41 -35 -21 -12 -50 -35 -67 -50 -16 -15 -53 -45 -82
-66 -80 -58 -210 -172 -293 -256 -137 -138 -183 -163 -214 -114 -21 32 -48
422 -48 702 0 219 22 560 42 650 5 22 21 71 35 110 15 38 36 114 47 170 12 61
31 120 49 152 16 29 38 88 50 130 12 43 36 103 55 133 18 30 42 80 53 111 10
31 35 80 54 108 20 28 41 68 47 88 7 21 25 54 40 74 15 19 44 66 63 105 19 38
45 78 57 89 12 11 30 36 40 55 10 19 28 44 40 55 12 11 36 40 53 65 89 130
402 442 557 557 30 22 61 48 69 57 8 10 31 26 50 36 20 10 45 28 56 40 11 12
50 37 86 55 36 19 80 46 98 60 17 15 54 36 82 46 27 11 72 34 99 53 27 19 83
45 125 60 l76 25 52 -23 c56 -25 133 -95 432 -396 179 -179 242 -245 330 -344
28 -31 66 -73 85 -94 20 -20 50 -58 67 -83 17 -25 39 -51 48 -59 10 -8 35 -41
58 -75 22 -33 49 -66 59 -73 10 -7 27 -31 38 -52 11 -22 36 -55 54 -74 19 -18
44 -53 57 -77 12 -24 35 -60 52 -78 16 -19 38 -53 48 -76 10 -22 29 -51 43
-64 14 -13 35 -44 46 -70 26 -55 57 -91 80 -91 9 0 52 13 96 28 43 16 146 42
227 57 l148 28 97 -21 c186 -41 226 -46 261 -28 17 9 31 18 31 20 0 1 18 55
40 118 30 87 43 148 55 249 9 74 29 190 45 259 44 185 48 222 70 624 21 398
25 416 76 416 13 0 50 -11 82 -24z"/>
</g>
</svg>
