<?xml version="1.0" standalone="no"?>
<!DOCTYPE svg PUBLIC "-//W3C//DTD SVG 20010904//EN"
 "http://www.w3.org/TR/2001/REC-SVG-20010904/DTD/svg10.dtd">
<svg version="1.0" xmlns="http://www.w3.org/2000/svg"
 width="200.000000pt" height="200.000000pt" viewBox="0 0 200.000000 200.000000"
 preserveAspectRatio="xMidYMid meet">
<metadata>
Created by potrace 1.15, written by Peter Selinger 2001-2017
</metadata>
<g transform="translate(0.000000,200.000000) scale(0.100000,-0.100000)"
fill="#000000" stroke="none">
<path d="M840 1820 c-61 -8 -86 -14 -170 -39 -47 -14 -147 -75 -187 -113 -48
-47 -73 -107 -73 -179 0 -105 -30 -178 -123 -299 -66 -86 -112 -188 -127 -280
-7 -48 -11 -160 -8 -311 l3 -235 30 -59 c43 -84 108 -132 189 -140 34 -4 338
-5 676 -3 l616 3 49 36 c28 19 63 57 80 84 l30 48 5 261 c3 144 1 290 -3 326
-11 81 -59 185 -124 270 -92 120 -123 195 -123 297 0 154 -112 257 -349 319
-65 18 -301 26 -391 14z m219 -170 c28 0 32 -2 21 -15 -20 -24 -5 -41 44 -54
45 -11 69 -7 123 20 17 9 30 6 73 -17 28 -15 61 -41 72 -57 18 -25 19 -32 7
-54 -43 -79 -207 -134 -404 -134 -196 -1 -361 54 -404 134 -12 22 -11 29 7 54
11 16 44 42 72 57 43 23 56 26 73 17 54 -27 78 -31 123 -20 49 13 64 30 44 54
-9 11 -4 14 32 18 24 2 52 2 63 1 11 -2 35 -4 54 -4z m-468 -404 c44 -25 91
-42 184 -67 68 -19 372 -19 440 0 93 25 140 42 184 67 24 13 45 23 46 22 0 -2
20 -34 42 -73 23 -38 50 -79 60 -90 29 -31 78 -107 94 -145 11 -27 14 -95 14
-307 0 -270 0 -273 -23 -295 l-23 -23 -614 0 -614 0 -23 23 c-23 22 -23 25
-23 295 0 212 3 280 14 307 16 40 64 113 97 149 12 13 39 54 61 92 21 38 39
69 39 69 1 0 21 -11 45 -24z"/>
<path d="M939 1489 c-15 -6 -29 -19 -32 -30 -8 -29 29 -49 88 -49 59 0 96 20
88 49 -9 35 -87 51 -144 30z"/>
<path d="M905 1063 c-74 -39 -115 -98 -115 -166 0 -78 52 -146 145 -187 135
-60 134 -60 141 -95 4 -24 1 -43 -12 -65 -21 -35 -49 -45 -99 -36 -35 7 -49
25 -69 89 -4 14 -17 17 -66 17 l-60 0 0 -35 c0 -41 37 -104 77 -132 104 -73
270 -50 333 44 20 30 25 50 25 100 0 87 -31 123 -155 185 -105 52 -129 76
-130 130 0 90 121 92 150 3 l12 -35 63 0 c54 0 65 3 70 19 14 44 -52 141 -112
166 -47 20 -159 19 -198 -2z"/>
</g>
</svg>
