<?xml version="1.0" standalone="no"?>
<!DOCTYPE svg PUBLIC "-//W3C//DTD SVG 20010904//EN"
 "http://www.w3.org/TR/2001/REC-SVG-20010904/DTD/svg10.dtd">
<svg version="1.0" xmlns="http://www.w3.org/2000/svg"
 width="200.000000pt" height="200.000000pt" viewBox="0 0 200.000000 200.000000"
 preserveAspectRatio="xMidYMid meet">
<metadata>
Created by potrace 1.15, written by Peter Selinger 2001-2017
</metadata>
<g transform="translate(0.000000,200.000000) scale(0.100000,-0.100000)"
fill="#000000" stroke="none">
<path d="M992 1894 c-5 -10 -13 -35 -16 -54 -35 -186 -108 -400 -137 -400 -3
0 -12 19 -18 43 -15 59 -53 131 -71 135 -10 2 -19 -12 -28 -38 -21 -69 -53
-131 -113 -221 -140 -209 -154 -336 -62 -528 37 -77 146 -184 226 -222 76 -36
92 -37 83 -6 -29 98 -25 219 10 323 34 102 109 244 129 244 20 0 95 -142 130
-245 33 -99 37 -227 9 -322 -9 -31 7 -30 83 6 40 19 86 54 130 98 106 104 153
217 153 363 -1 74 -6 108 -37 225 -10 40 -88 179 -98 175 -5 -3 -17 -32 -26
-65 -21 -80 -51 -146 -78 -170 l-22 -19 11 29 c15 40 15 224 -1 272 -42 133
-104 237 -211 357 -33 37 -36 38 -46 20z"/>
<path d="M503 480 c-23 -12 -53 -39 -67 -61 -25 -38 -27 -45 -24 -152 l3 -112
580 0 580 0 3 112 c3 107 1 114 -24 152 -28 43 -103 87 -129 77 -11 -4 -15
-23 -15 -80 l0 -74 -71 -4 c-39 -2 -75 -1 -80 2 -4 3 -9 39 -11 80 l-3 75 -85
0 -85 0 -3 -82 -3 -83 -74 0 -74 0 -3 83 -3 82 -85 0 -85 0 -5 -80 c-5 -75 -6
-80 -27 -79 -13 0 -48 1 -78 2 l-54 2 -3 77 c-3 90 -10 95 -75 63z"/>
</g>
</svg>
