<?xml version="1.0" standalone="no"?>
<!DOCTYPE svg PUBLIC "-//W3C//DTD SVG 20010904//EN"
 "http://www.w3.org/TR/2001/REC-SVG-20010904/DTD/svg10.dtd">
<svg version="1.0" xmlns="http://www.w3.org/2000/svg"
 width="1024.000000pt" height="1024.000000pt" viewBox="0 0 1024.000000 1024.000000"
 preserveAspectRatio="xMidYMid meet">
<metadata>
Created by potrace 1.13, written by Peter Selinger 2001-2015
</metadata>
<g transform="translate(0.000000,1024.000000) scale(0.100000,-0.100000)"
fill="#000000" stroke="none">
<path d="M5136 9726 c-15 -14 -28 -45 -36 -82 -6 -32 -22 -93 -35 -135 -13
-42 -33 -146 -45 -230 -13 -98 -32 -187 -52 -243 -17 -50 -41 -151 -54 -226
-13 -80 -34 -160 -50 -195 -14 -33 -37 -111 -50 -174 -13 -62 -37 -141 -53
-175 -17 -33 -39 -101 -51 -150 -11 -50 -34 -113 -50 -140 -16 -28 -38 -87
-50 -131 -12 -46 -35 -101 -54 -130 -19 -27 -39 -67 -46 -88 -6 -21 -28 -61
-47 -90 -19 -29 -46 -73 -59 -99 -34 -67 -91 -90 -127 -50 -21 23 -53 135 -77
266 -14 82 -27 122 -50 159 -17 27 -40 78 -51 113 -11 35 -31 78 -45 96 -13
18 -38 62 -54 97 -29 61 -125 171 -149 171 -37 0 -49 -22 -71 -134 -7 -32 -30
-92 -51 -133 -21 -41 -39 -82 -39 -92 0 -30 -29 -103 -55 -141 -14 -20 -36
-68 -49 -108 -14 -39 -38 -88 -54 -109 -16 -21 -40 -65 -52 -98 -12 -33 -32
-71 -45 -85 -13 -14 -36 -52 -50 -85 -15 -33 -42 -78 -60 -100 -18 -23 -40
-59 -50 -80 -9 -22 -29 -53 -45 -70 -15 -16 -40 -52 -55 -80 -15 -27 -40 -63
-55 -80 -15 -16 -36 -46 -45 -65 -9 -19 -32 -51 -51 -70 -18 -19 -40 -53 -49
-75 -10 -22 -34 -62 -54 -90 -21 -27 -46 -70 -55 -95 -9 -25 -31 -64 -47 -88
-17 -23 -42 -76 -55 -117 -13 -40 -37 -95 -54 -122 -20 -32 -36 -80 -49 -144
-10 -52 -33 -136 -49 -185 -71 -206 -72 -701 -2 -905 17 -47 39 -130 50 -184
12 -57 32 -120 48 -150 32 -57 47 -93 62 -152 6 -22 26 -64 45 -92 19 -27 43
-73 54 -100 10 -28 32 -68 49 -89 17 -21 41 -62 55 -92 13 -30 37 -66 52 -80
15 -14 38 -46 51 -72 13 -26 32 -53 42 -60 9 -7 35 -36 55 -65 49 -67 276
-285 345 -331 28 -19 52 -39 52 -44 0 -4 24 -23 53 -42 28 -18 61 -44 72 -56
11 -13 47 -35 80 -51 33 -15 77 -41 98 -57 21 -17 67 -40 102 -52 35 -11 83
-34 107 -50 23 -15 77 -38 118 -49 41 -11 95 -26 118 -33 40 -12 45 -11 58 7
24 32 17 104 -16 173 -41 86 -48 120 -65 284 -19 184 -19 355 0 598 17 218 27
276 61 369 14 35 33 114 44 175 13 68 32 135 51 176 17 36 42 104 55 152 13
48 35 105 49 126 14 21 37 74 51 117 14 44 39 97 55 120 16 22 37 65 48 96 10
31 34 76 53 101 18 24 42 66 52 93 10 28 33 68 51 90 18 23 40 58 49 80 9 21
32 58 51 81 19 23 44 62 54 87 23 54 53 77 101 77 48 0 78 -23 101 -77 10 -25
35 -64 54 -87 19 -23 42 -60 51 -81 9 -22 31 -57 49 -80 18 -22 41 -62 51 -90
10 -27 34 -69 52 -93 19 -25 43 -70 53 -101 11 -31 32 -74 48 -96 16 -23 41
-76 55 -120 14 -43 37 -96 51 -117 14 -21 36 -78 49 -126 13 -48 38 -116 55
-152 19 -41 38 -108 51 -176 11 -61 30 -140 44 -175 34 -93 44 -151 61 -369
19 -243 19 -414 0 -598 -17 -164 -24 -198 -65 -284 -33 -69 -40 -141 -16 -173
13 -18 18 -19 58 -7 23 7 77 22 118 33 41 11 95 34 118 49 24 16 72 39 107 50
35 12 81 35 102 52 21 16 65 42 98 57 33 16 69 38 80 51 11 12 44 38 73 56 28
19 52 38 52 42 0 5 24 25 53 44 68 46 295 264 344 331 20 29 46 58 55 65 10 7
29 34 42 60 13 26 36 58 51 72 15 14 39 50 52 80 14 30 38 71 55 92 17 21 39
61 49 89 11 27 35 73 54 100 19 28 39 70 45 92 15 59 30 95 62 152 16 30 36
93 48 150 11 54 33 137 50 184 38 111 50 241 50 536 0 295 -13 468 -45 587
-27 100 -46 192 -65 305 -6 39 -25 100 -42 135 -16 34 -39 101 -50 148 -11 47
-37 119 -59 160 -21 41 -46 100 -55 130 -8 30 -29 72 -45 95 -16 22 -38 67
-49 100 -11 33 -35 77 -52 99 -17 21 -40 61 -50 90 -11 28 -30 62 -42 76 -13
14 -37 46 -54 71 -17 26 -38 49 -46 52 -25 10 -54 -39 -61 -101 -11 -102 -26
-166 -55 -232 -16 -36 -38 -111 -49 -167 -12 -60 -33 -128 -51 -164 -17 -33
-40 -89 -50 -123 -11 -33 -31 -77 -46 -96 -14 -19 -39 -62 -54 -95 -15 -33
-37 -69 -49 -79 -11 -10 -34 -43 -51 -72 -16 -29 -43 -60 -58 -68 -16 -8 -41
-33 -55 -55 -30 -45 -51 -52 -67 -22 -15 30 -12 68 9 109 34 66 51 157 66 340
19 226 19 510 0 729 -16 192 -24 236 -60 326 -14 34 -33 105 -44 158 -12 61
-32 122 -54 165 -20 38 -43 98 -52 134 -9 36 -31 88 -50 115 -18 28 -41 75
-50 105 -10 30 -33 75 -51 101 -18 25 -42 70 -54 100 -11 31 -32 67 -46 80
-14 13 -37 48 -50 78 -13 29 -37 69 -54 87 -17 19 -41 56 -54 82 -13 26 -36
58 -51 72 -15 14 -35 41 -45 60 -10 19 -39 59 -64 88 -25 30 -46 58 -46 63 0
8 -49 67 -149 179 -22 25 -62 70 -89 100 -27 30 -73 82 -103 114 -122 134
-116 130 -153 92z"/>
<path d="M3900 2549 c-63 -26 -60 -8 -60 -400 l0 -357 -25 -30 c-39 -46 -83
-52 -392 -51 -325 1 -385 6 -416 37 -22 22 -22 27 -27 393 l-5 371 -24 19
c-31 25 -62 24 -157 -5 -170 -52 -241 -82 -290 -123 -27 -22 -64 -49 -82 -59
-18 -11 -43 -34 -54 -52 -11 -18 -39 -55 -62 -82 -23 -27 -47 -66 -55 -87 -7
-21 -26 -58 -43 -81 -60 -86 -61 -94 -66 -596 -2 -253 -1 -479 3 -503 3 -24
16 -55 28 -68 l22 -26 2925 0 2925 0 22 25 c13 16 24 46 28 79 4 29 5 255 3
502 -5 492 -6 501 -66 587 -17 23 -36 60 -43 81 -8 21 -33 61 -56 88 -23 28
-50 64 -60 80 -10 17 -34 40 -53 51 -19 12 -57 39 -84 62 -49 40 -120 70 -290
122 -95 29 -126 30 -157 5 l-24 -19 -5 -371 c-5 -366 -5 -371 -27 -393 -31
-31 -91 -36 -416 -37 -299 -1 -350 5 -389 46 l-23 25 -5 365 -5 366 -28 21
c-28 20 -38 21 -409 21 l-380 0 -19 -24 c-18 -22 -19 -44 -19 -383 0 -397 -1
-406 -61 -427 -44 -15 -674 -15 -718 0 -60 21 -61 30 -61 427 0 339 -1 361
-19 383 l-19 24 -369 2 c-230 1 -377 -2 -393 -8z"/>
</g>
</svg>
