<?xml version="1.0" standalone="no"?>
<!DOCTYPE svg PUBLIC "-//W3C//DTD SVG 20010904//EN"
 "http://www.w3.org/TR/2001/REC-SVG-20010904/DTD/svg10.dtd">
<svg version="1.0" xmlns="http://www.w3.org/2000/svg"
 width="200.000000pt" height="200.000000pt" viewBox="0 0 200.000000 200.000000"
 preserveAspectRatio="xMidYMid meet">
<metadata>
Created by potrace 1.15, written by Peter Selinger 2001-2017
</metadata>
<g transform="translate(0.000000,200.000000) scale(0.100000,-0.100000)"
fill="#000000" stroke="none">
<path d="M930 1828 c-61 -26 -77 -35 -109 -63 -46 -42 -118 -139 -143 -194
-23 -53 -46 -106 -59 -138 -5 -13 -13 -33 -18 -45 -5 -13 -14 -39 -20 -58 -6
-19 -20 -64 -31 -99 -11 -35 -20 -72 -20 -82 0 -17 -8 -41 -36 -104 -25 -55
-71 -115 -156 -203 -99 -102 -137 -155 -167 -235 -26 -72 -29 -183 -5 -230 55
-107 132 -155 314 -198 71 -17 356 -17 430 0 148 33 187 44 280 81 98 38 163
73 270 143 150 99 244 195 311 317 41 75 54 129 54 227 -1 83 -4 98 -34 157
-35 70 -141 179 -226 233 -25 15 -45 36 -45 45 0 9 -5 30 -11 45 -100 246
-234 364 -463 403 -71 12 -83 12 -116 -2z m157 -189 c80 -33 101 -45 145 -87
52 -49 107 -149 129 -237 15 -64 19 -67 101 -121 82 -53 153 -123 173 -172 25
-59 19 -135 -16 -208 -94 -195 -428 -400 -757 -464 -103 -20 -343 -6 -427 25
-99 36 -124 70 -105 143 18 72 36 99 141 209 151 159 191 225 234 388 27 100
49 173 64 210 5 11 13 31 18 45 33 82 97 201 128 238 35 40 39 42 90 42 30 0
67 -5 82 -11z"/>
<path d="M1013 1424 c-17 -7 -43 -29 -57 -47 -21 -28 -26 -45 -26 -95 0 -57 3
-64 35 -97 31 -30 42 -35 82 -35 42 0 51 4 90 45 40 42 43 50 43 98 0 61 -25
109 -69 132 -36 18 -55 18 -98 -1z"/>
<path d="M1320 1028 c-34 -14 -55 -22 -125 -48 -33 -12 -69 -26 -80 -30 -28
-11 -179 -68 -245 -92 -30 -11 -64 -24 -75 -28 -11 -5 -42 -16 -68 -26 -56
-20 -81 -48 -66 -75 16 -31 51 -32 125 -4 89 35 214 82 284 107 30 11 64 24
75 28 11 4 47 18 80 30 90 33 96 35 148 59 45 20 48 24 45 54 -3 29 -6 32 -38
34 -19 1 -46 -3 -60 -9z"/>
<path d="M1410 860 c-25 -10 -72 -28 -105 -40 -33 -12 -69 -26 -80 -30 -11 -4
-47 -18 -80 -30 -33 -12 -69 -26 -80 -30 -11 -4 -45 -17 -75 -28 -30 -11 -91
-34 -135 -50 -44 -17 -102 -38 -128 -48 -55 -20 -97 -49 -97 -68 0 -7 9 -21
20 -31 18 -17 25 -17 58 -6 41 14 136 49 167 61 11 4 45 17 75 28 30 11 93 34
140 52 47 18 110 41 140 52 30 11 64 24 75 28 11 4 47 18 80 30 33 12 72 26
86 32 15 5 32 20 39 34 11 20 11 27 -5 44 -22 24 -36 24 -95 0z"/>
</g>
</svg>
