<?xml version="1.0" standalone="no"?>
<!DOCTYPE svg PUBLIC "-//W3C//DTD SVG 20010904//EN"
 "http://www.w3.org/TR/2001/REC-SVG-20010904/DTD/svg10.dtd">
<svg version="1.0" xmlns="http://www.w3.org/2000/svg"
 width="1024.000000pt" height="1024.000000pt" viewBox="0 0 1024.000000 1024.000000"
 preserveAspectRatio="xMidYMid meet">
<metadata>
Created by potrace 1.13, written by Peter Selinger 2001-2015
</metadata>
<g transform="translate(0.000000,1024.000000) scale(0.100000,-0.100000)"
fill="#000000" stroke="none">
<path d="M4145 9374 c-73 -16 -252 -41 -360 -50 -115 -9 -164 -21 -217 -55
-25 -17 -80 -40 -121 -53 -41 -13 -90 -35 -110 -50 -19 -15 -62 -37 -96 -51
-34 -13 -78 -38 -97 -54 -19 -17 -54 -40 -77 -52 -23 -12 -63 -40 -89 -63 -26
-22 -77 -66 -112 -96 -36 -30 -108 -95 -159 -145 -52 -49 -105 -100 -118 -111
-91 -83 -348 -373 -447 -506 -141 -191 -498 -544 -617 -612 -27 -16 -61 -39
-75 -52 -23 -21 -153 -80 -275 -124 -28 -11 -93 -23 -145 -29 -112 -11 -143
-22 -165 -55 -14 -22 -17 -69 -17 -375 -1 -397 -2 -391 74 -412 31 -8 67 -8
133 0 49 6 126 13 170 16 131 10 195 25 266 60 37 19 89 40 115 46 54 13 100
34 126 56 9 8 49 28 88 44 40 16 87 42 105 57 18 16 53 39 79 52 26 12 50 29
53 37 3 7 26 28 51 45 54 37 115 90 276 241 141 132 217 211 314 327 40 47 91
107 114 134 23 27 55 69 70 93 15 23 32 43 37 43 6 0 25 21 42 47 33 48 385
402 500 504 35 31 80 64 99 74 19 9 46 28 61 41 14 13 53 35 88 49 35 13 84
38 110 54 62 39 98 47 286 61 121 9 192 9 290 1 187 -16 200 -19 256 -58 28
-19 69 -43 92 -53 79 -35 232 -202 273 -297 14 -32 42 -91 62 -132 l37 -74 0
-217 0 -217 -37 -74 c-20 -41 -48 -100 -62 -132 -41 -95 -194 -262 -273 -297
-23 -10 -64 -34 -92 -53 -56 -39 -69 -42 -255 -58 -198 -17 -450 13 -487 58
-8 9 -41 29 -75 44 -34 15 -85 49 -115 74 -61 52 -82 60 -145 52 -42 -4 -53
-13 -229 -192 -102 -103 -185 -190 -185 -195 0 -5 -15 -18 -33 -29 -32 -19
-107 -129 -107 -156 0 -17 130 -139 170 -160 19 -9 49 -30 65 -46 17 -15 55
-39 85 -52 30 -14 73 -39 94 -56 21 -17 66 -40 100 -50 34 -11 90 -35 126 -53
58 -31 93 -39 332 -78 l268 -44 122 23 c68 13 191 31 274 41 148 18 190 30
242 71 13 10 58 29 101 44 43 14 87 35 97 47 11 11 42 31 71 44 29 13 69 38
90 57 21 18 54 44 73 59 73 54 273 271 314 341 15 25 33 48 41 51 8 3 30 36
50 73 20 37 47 83 60 102 14 19 34 64 45 100 25 85 72 196 96 228 26 34 232
92 453 127 65 10 113 24 155 47 34 17 93 40 131 51 39 11 93 35 120 53 28 19
75 43 106 55 31 11 65 30 75 41 11 12 46 35 79 51 33 17 79 48 101 68 23 21
55 45 71 54 17 8 37 26 47 40 9 14 31 33 49 42 17 9 50 33 72 54 23 20 68 49
100 65 33 16 72 37 86 47 53 36 145 51 309 51 169 0 238 -12 285 -47 16 -13
49 -33 72 -45 79 -40 114 -79 226 -251 44 -68 61 -315 33 -464 -16 -81 -26
-104 -63 -151 -13 -16 -39 -52 -56 -80 -19 -30 -52 -63 -82 -82 -27 -17 -64
-43 -81 -57 -49 -40 -89 -53 -214 -66 -90 -10 -137 -10 -220 -1 -138 16 -170
25 -216 62 -22 17 -65 44 -98 61 l-58 30 -51 -17 c-44 -15 -77 -43 -279 -246
-126 -126 -233 -241 -238 -255 -11 -28 -13 -75 -4 -98 3 -8 28 -29 55 -47 27
-17 54 -39 59 -49 5 -9 33 -29 62 -43 29 -13 70 -38 91 -55 21 -17 61 -38 88
-47 27 -9 71 -31 97 -49 64 -44 66 -45 241 -67 85 -11 181 -26 212 -34 106
-28 167 -29 264 -5 50 12 156 30 237 41 145 18 182 29 243 74 17 12 52 30 78
39 27 10 69 34 94 53 26 20 60 41 77 48 51 22 241 201 282 267 13 20 32 42 43
47 10 6 28 30 39 54 11 23 36 62 55 85 20 23 45 68 57 99 11 30 34 74 50 97
17 24 36 70 45 111 9 39 29 117 45 175 47 176 48 437 1 573 -11 31 -28 95 -37
141 -9 46 -27 101 -40 122 -13 22 -40 72 -59 113 -20 41 -47 88 -61 104 -14
16 -34 48 -46 71 -21 43 -63 93 -160 198 -32 33 -58 65 -58 69 0 5 -20 20 -45
35 -25 14 -50 35 -56 45 -5 11 -40 35 -78 53 -37 19 -82 46 -99 61 -17 14 -55
34 -84 44 -29 10 -84 35 -123 55 -65 34 -81 38 -220 52 -82 8 -172 19 -198 24
-66 14 -123 13 -247 -4 -58 -8 -150 -19 -205 -25 -83 -9 -114 -18 -180 -50
-44 -22 -105 -46 -136 -55 -31 -9 -73 -30 -95 -47 -21 -17 -61 -42 -89 -54
-27 -13 -61 -35 -75 -50 -14 -15 -46 -37 -71 -50 -25 -13 -52 -31 -59 -40 -8
-10 -46 -39 -85 -65 -38 -26 -79 -58 -90 -70 -11 -12 -38 -31 -60 -42 -22 -11
-54 -33 -70 -49 -17 -15 -50 -35 -75 -44 -25 -9 -70 -31 -100 -49 -56 -34 -92
-44 -258 -71 -124 -20 -133 -19 -178 13 -41 30 -62 69 -88 163 -9 30 -27 71
-40 90 -14 19 -39 61 -56 94 -17 32 -41 71 -55 85 -13 14 -41 48 -62 77 -114
156 -355 383 -448 423 -22 9 -54 29 -72 44 -18 15 -64 38 -103 51 -40 14 -93
38 -118 55 -57 37 -88 46 -227 60 -60 6 -167 22 -238 35 -141 28 -184 29 -272
9z"/>
<path d="M2880 5113 c-175 -17 -245 -28 -305 -49 -38 -14 -110 -34 -159 -44
-57 -13 -106 -31 -137 -51 -26 -17 -77 -41 -113 -54 -36 -13 -83 -37 -103 -54
-21 -17 -58 -37 -82 -46 -25 -8 -67 -33 -95 -54 -28 -22 -67 -46 -86 -54 -19
-8 -49 -28 -67 -45 -17 -17 -53 -42 -80 -56 -26 -13 -66 -38 -87 -55 -22 -18
-60 -41 -85 -52 -25 -11 -57 -31 -71 -44 -14 -14 -55 -36 -90 -51 -36 -14 -92
-41 -125 -59 -47 -27 -80 -36 -150 -45 -106 -13 -153 -33 -178 -78 -18 -30
-19 -58 -19 -371 0 -365 2 -382 52 -408 32 -17 91 -13 310 20 155 24 184 32
250 66 41 21 97 43 124 50 57 14 102 36 132 62 11 11 48 30 82 43 33 13 78 38
99 55 21 16 56 38 78 47 22 9 57 31 77 50 21 19 58 43 82 54 24 12 62 37 84
56 23 19 58 42 79 50 21 9 54 31 74 48 19 18 59 41 87 51 29 11 72 36 97 56
37 31 58 39 117 49 40 6 117 22 171 36 113 28 186 30 248 9 31 -11 243 -53
275 -55 1 0 19 -14 40 -31 22 -17 71 -46 109 -64 39 -17 76 -40 84 -49 8 -10
44 -33 80 -51 36 -18 75 -42 85 -54 11 -12 46 -36 77 -52 32 -17 60 -37 63
-45 3 -7 38 -30 78 -50 39 -20 88 -49 107 -65 20 -15 56 -35 81 -44 25 -8 68
-32 97 -51 28 -20 78 -42 110 -51 32 -8 83 -28 113 -44 84 -43 103 -49 270
-74 85 -13 201 -32 258 -42 98 -17 106 -17 205 0 56 10 172 29 257 42 167 25
186 31 270 74 30 16 81 36 113 44 32 9 82 31 110 51 29 19 72 43 97 51 25 9
61 29 81 44 19 16 68 45 107 65 40 20 75 43 78 50 3 8 31 28 63 45 31 16 66
40 77 52 10 12 49 36 85 54 36 18 72 41 80 51 8 9 46 32 84 49 39 18 87 47
109 64 21 17 39 31 40 31 32 2 244 44 275 55 62 21 135 19 248 -9 54 -14 131
-30 171 -36 59 -10 80 -18 117 -49 25 -20 68 -45 97 -56 28 -10 68 -33 87 -51
20 -17 53 -39 74 -48 21 -8 56 -31 79 -50 22 -19 60 -44 84 -56 24 -11 61 -35
82 -54 20 -19 55 -41 77 -50 22 -9 57 -31 78 -47 21 -17 66 -42 99 -55 34 -13
71 -32 82 -43 30 -26 75 -48 132 -62 27 -7 83 -29 124 -50 66 -34 95 -42 250
-66 219 -33 278 -37 310 -20 50 26 52 43 52 408 0 313 -1 341 -19 371 -25 45
-72 65 -178 78 -70 9 -103 18 -150 45 -33 18 -89 45 -125 59 -35 15 -76 37
-90 51 -14 13 -46 33 -71 44 -25 11 -63 34 -85 52 -21 17 -61 42 -87 55 -27
14 -63 39 -80 56 -18 17 -48 37 -67 45 -19 8 -58 32 -86 54 -28 21 -70 46 -95
54 -24 9 -61 29 -82 46 -20 17 -67 41 -103 54 -36 13 -87 37 -113 54 -31 20
-80 38 -137 51 -49 10 -120 30 -159 44 -71 25 -174 40 -345 52 -130 8 -379
-18 -478 -52 -41 -14 -114 -34 -161 -45 -52 -12 -108 -33 -141 -53 -30 -18
-79 -41 -108 -51 -29 -9 -66 -28 -82 -41 -16 -14 -59 -39 -97 -56 -37 -17 -82
-43 -100 -59 -18 -15 -52 -36 -76 -47 -23 -10 -59 -33 -78 -49 -18 -17 -56
-42 -84 -56 -27 -13 -59 -35 -70 -47 -11 -12 -50 -37 -86 -55 -36 -19 -80 -45
-97 -60 -17 -14 -55 -34 -84 -44 -29 -10 -75 -32 -101 -49 -56 -35 -101 -47
-249 -63 -174 -19 -379 9 -465 63 -26 17 -72 39 -101 49 -29 10 -67 30 -84 44
-17 15 -61 41 -97 60 -36 18 -75 43 -86 55 -11 12 -42 34 -70 47 -27 14 -66
39 -84 56 -19 16 -55 39 -78 49 -24 11 -58 32 -76 47 -18 16 -63 42 -100 59
-38 17 -81 42 -97 56 -16 13 -53 32 -82 41 -29 10 -78 33 -108 51 -33 20 -89
41 -141 53 -47 11 -119 31 -161 45 -112 38 -378 63 -518 49z"/>
<path d="M2880 2553 c-175 -17 -245 -28 -305 -49 -38 -14 -110 -34 -159 -44
-57 -13 -106 -31 -137 -51 -26 -17 -77 -41 -113 -54 -36 -13 -83 -37 -103 -54
-21 -17 -58 -37 -82 -46 -25 -8 -67 -33 -95 -54 -28 -22 -67 -46 -86 -54 -19
-8 -49 -28 -67 -45 -17 -17 -53 -42 -80 -56 -26 -13 -66 -38 -87 -55 -22 -18
-60 -41 -85 -52 -25 -11 -57 -31 -71 -44 -14 -14 -55 -36 -90 -51 -36 -14 -92
-41 -125 -59 -47 -27 -80 -36 -150 -45 -106 -13 -153 -33 -178 -78 -18 -30
-19 -58 -19 -371 0 -365 2 -382 52 -408 32 -17 91 -13 310 20 155 24 184 32
250 66 41 21 97 43 124 50 57 14 102 36 132 62 11 11 48 30 82 43 33 13 78 38
99 55 21 16 56 38 78 47 22 9 57 31 77 50 21 19 58 43 82 54 24 12 62 37 84
56 23 19 58 42 79 50 21 9 54 31 74 48 19 18 59 41 87 51 29 11 72 36 97 56
37 31 58 39 117 49 40 6 117 22 171 36 113 28 186 30 248 9 31 -11 243 -53
275 -55 1 0 19 -14 40 -31 22 -17 71 -46 109 -64 39 -17 76 -40 84 -49 8 -10
44 -33 80 -51 36 -18 75 -42 85 -54 11 -12 46 -36 77 -52 32 -17 60 -37 63
-45 3 -7 38 -30 78 -50 39 -20 88 -49 107 -65 20 -15 56 -35 81 -44 25 -8 68
-32 97 -51 28 -20 78 -42 110 -51 32 -8 83 -28 113 -44 84 -43 103 -49 270
-74 85 -13 201 -32 258 -42 98 -17 106 -17 205 0 56 10 172 29 257 42 167 25
186 31 270 74 30 16 81 36 113 44 32 9 82 31 110 51 29 19 72 43 97 51 25 9
61 29 81 44 19 16 68 45 107 65 40 20 75 43 78 50 3 8 31 28 63 45 31 16 66
40 77 52 10 12 49 36 85 54 36 18 72 41 80 51 8 9 46 32 84 49 39 18 87 47
109 64 21 17 39 31 40 31 32 2 244 44 275 55 62 21 135 19 248 -9 54 -14 131
-30 171 -36 59 -10 80 -18 117 -49 25 -20 68 -45 97 -56 28 -10 68 -33 87 -51
20 -17 53 -39 74 -48 21 -8 56 -31 79 -50 22 -19 60 -44 84 -56 24 -11 61 -35
82 -54 20 -19 55 -41 77 -50 22 -9 57 -31 78 -47 21 -17 66 -42 99 -55 34 -13
71 -32 82 -43 30 -26 75 -48 132 -62 27 -7 83 -29 124 -50 66 -34 95 -42 250
-66 219 -33 278 -37 310 -20 50 26 52 43 52 408 0 313 -1 341 -19 371 -25 45
-72 65 -178 78 -70 9 -103 18 -150 45 -33 18 -89 45 -125 59 -35 15 -76 37
-90 51 -14 13 -46 33 -71 44 -25 11 -63 34 -85 52 -21 17 -61 42 -87 55 -27
14 -63 39 -80 56 -18 17 -48 37 -67 45 -19 8 -58 32 -86 54 -28 21 -70 46 -95
54 -24 9 -61 29 -82 46 -20 17 -67 41 -103 54 -36 13 -87 37 -113 54 -31 20
-80 38 -137 51 -49 10 -120 30 -159 44 -71 25 -174 40 -345 52 -130 8 -379
-18 -478 -52 -41 -14 -114 -34 -161 -45 -52 -12 -108 -33 -141 -53 -30 -18
-79 -41 -108 -51 -29 -9 -66 -28 -82 -41 -16 -14 -59 -39 -97 -56 -37 -17 -82
-43 -100 -59 -18 -15 -52 -36 -76 -47 -23 -10 -59 -33 -78 -49 -18 -17 -56
-42 -84 -56 -27 -13 -59 -35 -70 -47 -11 -12 -50 -37 -86 -55 -36 -19 -80 -45
-97 -60 -17 -14 -55 -34 -84 -44 -29 -10 -75 -32 -101 -49 -145 -92 -569 -92
-714 0 -26 17 -72 39 -101 49 -29 10 -67 30 -84 44 -17 15 -61 41 -97 60 -36
18 -75 43 -86 55 -11 12 -42 34 -70 47 -27 14 -66 39 -84 56 -19 16 -55 39
-78 49 -24 11 -58 32 -76 47 -18 16 -63 42 -100 59 -38 17 -81 42 -97 56 -16
13 -53 32 -82 41 -29 10 -78 33 -108 51 -33 20 -89 41 -141 53 -47 11 -119 31
-161 45 -112 38 -378 63 -518 49z"/>
</g>
</svg>
