<?xml version="1.0" standalone="no"?>
<!DOCTYPE svg PUBLIC "-//W3C//DTD SVG 20010904//EN"
 "http://www.w3.org/TR/2001/REC-SVG-20010904/DTD/svg10.dtd">
<svg version="1.0" xmlns="http://www.w3.org/2000/svg"
 width="200.000000pt" height="200.000000pt" viewBox="0 0 200.000000 200.000000"
 preserveAspectRatio="xMidYMid meet">
<metadata>
Created by potrace 1.15, written by Peter Selinger 2001-2017
</metadata>
<g transform="translate(0.000000,200.000000) scale(0.100000,-0.100000)"
fill="#000000" stroke="none">
<path d="M735 1821 c-102 -18 -177 -76 -352 -268 -82 -90 -128 -122 -193 -132
l-35 -6 -3 -65 c-2 -35 0 -75 3 -88 5 -22 9 -23 63 -16 118 14 198 70 367 258
108 121 149 146 239 146 58 0 74 -4 102 -25 42 -32 64 -77 64 -132 0 -54 -20
-94 -63 -127 -44 -34 -135 -36 -185 -6 -18 11 -39 20 -47 20 -15 0 -115 -99
-115 -115 0 -16 93 -72 150 -91 70 -23 182 -14 248 20 69 36 152 130 167 189
6 21 16 29 49 37 112 28 129 36 251 118 68 45 130 45 174 1 27 -26 31 -38 31
-84 0 -45 -5 -58 -29 -84 -25 -27 -36 -31 -80 -31 -32 0 -62 7 -77 17 -26 17
-26 17 -87 -46 -69 -71 -70 -64 23 -119 40 -24 55 -27 135 -27 80 0 95 3 137
28 59 34 90 65 122 120 68 116 49 245 -52 349 -55 57 -113 81 -202 82 -88 1
-122 -11 -210 -73 -84 -59 -103 -69 -142 -73 -28 -3 -34 2 -52 36 -33 61 -104
135 -158 162 -53 27 -169 39 -243 25z"/>
<path d="M466 979 c-33 -11 -78 -33 -100 -48 -72 -49 -153 -91 -173 -91 -35 0
-44 -23 -41 -102 l3 -73 56 2 c59 2 101 20 234 103 64 40 76 44 135 44 59 0
70 -4 125 -40 33 -21 89 -55 125 -74 62 -33 70 -34 165 -34 95 0 103 1 165 34
36 19 92 53 125 74 54 36 66 40 125 40 60 1 71 -3 135 -43 116 -74 172 -100
226 -107 62 -8 69 -1 69 79 0 67 -12 97 -41 97 -25 0 -87 31 -160 81 -106 72
-221 95 -321 65 -46 -15 -120 -52 -168 -86 -64 -46 -102 -60 -155 -60 -53 0
-91 14 -155 60 -135 95 -254 120 -374 79z"/>
<path d="M485 487 c-42 -11 -50 -15 -185 -96 -47 -28 -95 -51 -106 -51 -36 0
-45 -23 -42 -102 l3 -73 53 1 c60 2 93 16 217 92 85 53 94 56 155 56 60 0 70
-3 126 -41 34 -23 90 -57 125 -75 60 -31 70 -33 164 -33 94 0 104 2 164 33 35
18 91 52 125 75 56 38 66 41 126 41 61 0 70 -3 155 -56 120 -74 148 -86 207
-94 61 -8 68 -1 68 79 0 68 -12 97 -42 97 -21 0 -101 42 -174 91 -55 37 -153
69 -211 69 -77 0 -174 -37 -263 -100 -116 -82 -194 -82 -310 0 -124 88 -243
117 -355 87z"/>
</g>
</svg>
