<?xml version="1.0" standalone="no"?>
<!DOCTYPE svg PUBLIC "-//W3C//DTD SVG 20010904//EN"
 "http://www.w3.org/TR/2001/REC-SVG-20010904/DTD/svg10.dtd">
<svg version="1.0" xmlns="http://www.w3.org/2000/svg"
 width="200.000000pt" height="200.000000pt" viewBox="0 0 200.000000 200.000000"
 preserveAspectRatio="xMidYMid meet">
<metadata>
Created by potrace 1.15, written by Peter Selinger 2001-2017
</metadata>
<g transform="translate(0.000000,200.000000) scale(0.100000,-0.100000)"
fill="#000000" stroke="none">
<path d="M265 1811 l-100 -17 2 -60 c2 -32 7 -79 12 -104 9 -44 21 -111 41
-230 23 -139 34 -182 46 -187 8 -3 35 0 61 5 27 6 76 16 111 23 l62 12 0 36
c0 20 -4 52 -9 71 -5 19 -12 60 -16 91 -6 56 -6 56 22 62 15 4 38 9 51 13 22
6 22 5 22 -92 1 -159 23 -228 120 -374 31 -47 62 -105 70 -130 7 -25 16 -56
20 -70 4 -14 16 -52 25 -84 l18 -59 -32 -61 c-17 -34 -47 -90 -68 -126 -20
-36 -42 -77 -50 -92 -7 -14 -39 -41 -71 -60 -117 -68 -138 -81 -179 -109 -23
-16 -44 -29 -47 -29 -15 0 -106 -66 -106 -77 0 -10 35 -13 144 -13 129 0 148
2 185 22 23 12 41 25 41 30 0 4 5 8 11 8 12 0 82 48 120 82 14 13 62 66 108
118 90 102 105 112 196 129 77 15 193 -3 229 -34 25 -22 26 -25 28 -186 l3
-164 85 0 85 0 0 180 0 180 -29 51 c-36 63 -95 104 -195 136 l-72 23 6 35 c8
49 26 130 36 164 5 16 9 39 9 51 0 12 22 56 48 96 83 127 111 221 112 368 l0
93 25 -6 c56 -14 73 -25 70 -43 -15 -69 -35 -215 -31 -222 9 -15 217 -56 239
-48 8 3 17 25 20 49 3 23 10 70 16 103 6 33 15 87 20 120 6 33 19 112 30 175
12 72 16 119 10 126 -5 6 -28 14 -52 17 -23 3 -73 11 -110 17 -38 5 -72 8 -76
6 -4 -3 -13 -38 -20 -78 -24 -138 -26 -143 -47 -142 -10 1 -44 7 -74 14 -252
53 -642 54 -885 1 -22 -5 -55 -12 -72 -16 -38 -9 -36 -13 -53 105 -6 47 -14
93 -17 103 -5 20 -16 20 -148 -2z m940 -250 l30 -6 0 -130 c0 -126 -1 -132
-32 -195 -18 -36 -50 -84 -71 -107 l-40 -43 -97 0 -97 0 -40 43 c-21 23 -53
71 -71 107 -31 63 -32 69 -32 195 l0 130 30 6 c17 4 111 7 210 7 99 0 194 -3
210 -7z"/>
<path d="M960 1493 c-94 -36 -130 -82 -130 -163 0 -62 18 -100 66 -136 30 -24
46 -28 99 -28 53 0 69 4 99 28 48 36 66 74 66 136 0 88 -61 154 -153 165 -18
3 -39 2 -47 -2z"/>
</g>
</svg>
