<?xml version="1.0" standalone="no"?>
<!DOCTYPE svg PUBLIC "-//W3C//DTD SVG 20010904//EN"
 "http://www.w3.org/TR/2001/REC-SVG-20010904/DTD/svg10.dtd">
<svg version="1.0" xmlns="http://www.w3.org/2000/svg"
 width="1024.000000pt" height="1024.000000pt" viewBox="0 0 1024.000000 1024.000000"
 preserveAspectRatio="xMidYMid meet">
<metadata>
Created by potrace 1.13, written by Peter Selinger 2001-2015
</metadata>
<g transform="translate(0.000000,1024.000000) scale(0.100000,-0.100000)"
fill="#000000" stroke="none">
<path d="M8118 9348 c-21 -33 -26 -52 -38 -158 -7 -52 -25 -148 -41 -213 -16
-64 -36 -179 -44 -255 -31 -281 -68 -457 -108 -499 -35 -39 -112 -30 -282 31
-40 14 -125 32 -195 41 -69 9 -172 29 -230 45 -133 36 -189 46 -380 65 -85 8
-211 25 -280 36 -247 39 -372 49 -850 65 -414 14 -552 14 -945 4 -504 -13
-715 -27 -935 -64 -80 -13 -224 -31 -320 -40 -201 -19 -246 -27 -390 -66 -58
-16 -161 -36 -230 -45 -71 -9 -154 -27 -195 -41 -85 -31 -211 -64 -245 -64
-46 0 -100 21 -116 44 -9 14 -21 77 -29 152 -9 71 -20 169 -25 217 -6 49 -24
143 -40 210 -17 67 -37 192 -46 277 -19 190 -27 223 -62 250 -31 25 -74 24
-252 -3 -58 -8 -152 -21 -210 -27 -58 -6 -168 -26 -245 -45 -80 -20 -203 -41
-287 -49 -156 -16 -209 -31 -228 -66 -16 -30 -14 -111 3 -167 23 -69 34 -139
52 -304 9 -82 30 -204 49 -280 21 -81 40 -196 50 -291 10 -94 30 -210 50 -291
20 -77 41 -199 51 -288 17 -158 30 -230 64 -356 11 -40 29 -154 40 -254 13
-110 32 -225 51 -293 16 -61 36 -162 43 -225 20 -160 29 -166 207 -137 47 8
128 25 180 39 52 14 140 30 195 36 239 28 276 34 380 61 61 15 136 31 168 35
32 4 72 17 90 29 29 20 32 27 31 72 -2 112 -36 357 -64 464 -16 63 -34 160
-41 215 -21 188 -38 310 -55 391 -14 70 -15 85 -3 110 18 37 66 60 154 74 39
6 123 29 187 50 138 47 170 49 203 15 l25 -24 0 -468 c1 -496 5 -566 46 -707
14 -49 34 -139 45 -200 14 -77 29 -127 49 -163 16 -29 38 -83 49 -121 20 -75
29 -93 66 -148 13 -19 33 -63 45 -98 11 -35 30 -72 42 -82 12 -11 34 -48 51
-84 16 -36 42 -80 58 -98 16 -18 40 -54 53 -80 14 -27 32 -55 42 -63 9 -8 37
-43 61 -79 51 -77 95 -134 158 -210 93 -111 124 -170 145 -279 10 -56 29 -122
40 -148 37 -82 49 -121 65 -215 9 -50 30 -121 46 -157 17 -36 42 -119 55 -183
13 -64 37 -145 54 -180 16 -35 36 -103 45 -153 9 -49 25 -116 36 -148 10 -31
19 -70 19 -86 0 -33 -70 -189 -106 -237 -14 -18 -34 -57 -45 -86 -11 -29 -34
-70 -51 -91 -16 -21 -40 -65 -53 -97 -13 -32 -37 -76 -53 -97 -17 -21 -41 -64
-52 -96 -12 -32 -35 -73 -51 -91 -15 -18 -38 -58 -49 -89 -12 -32 -32 -70 -46
-86 -13 -16 -38 -59 -55 -97 -17 -38 -42 -84 -56 -102 -14 -18 -36 -60 -48
-93 -13 -33 -37 -75 -53 -94 -17 -18 -37 -56 -47 -84 -20 -61 -122 -165 -193
-197 -26 -11 -62 -33 -79 -48 -18 -15 -59 -40 -91 -56 -32 -15 -64 -35 -72
-45 -7 -9 -41 -30 -74 -47 -34 -17 -74 -42 -90 -55 -16 -13 -55 -37 -86 -53
-31 -16 -71 -40 -88 -55 -17 -14 -54 -36 -84 -49 -29 -13 -62 -34 -73 -46 -11
-13 -48 -36 -82 -51 -34 -16 -77 -42 -96 -59 -19 -16 -54 -38 -78 -49 -24 -10
-62 -33 -83 -50 -22 -17 -60 -41 -85 -52 -25 -11 -57 -31 -71 -44 -14 -14 -53
-38 -86 -54 -33 -16 -73 -40 -89 -54 -17 -13 -55 -37 -85 -52 -30 -15 -66 -38
-80 -51 -14 -12 -47 -33 -75 -45 -31 -13 -74 -46 -113 -86 -63 -64 -73 -92
-35 -94 10 0 335 0 723 0 693 1 705 1 733 21 15 12 49 30 75 41 26 11 70 38
97 59 28 21 68 47 90 58 22 11 49 30 60 42 11 12 46 35 77 51 31 16 72 42 90
58 18 15 56 40 83 54 28 13 59 35 70 47 11 12 46 35 77 51 31 16 72 42 90 58
18 15 49 36 68 46 19 9 51 32 70 50 79 75 208 206 255 259 28 31 70 79 95 105
25 27 66 73 92 103 26 29 73 82 105 118 83 93 234 267 262 304 31 39 208 235
233 258 10 9 47 26 82 38 36 12 70 28 78 37 25 31 93 52 218 68 69 9 163 25
209 36 269 63 399 64 651 4 58 -13 160 -31 228 -39 128 -16 145 -22 202 -66
19 -15 51 -35 70 -45 51 -26 167 -151 174 -187 3 -17 6 -358 6 -758 0 -453 4
-748 10 -781 18 -96 -5 -91 409 -91 340 0 363 1 383 18 49 44 48 35 48 818 0
682 -1 745 -20 871 -20 137 -34 184 -68 233 -11 15 -31 59 -46 98 -15 40 -36
80 -48 90 -11 11 -32 42 -45 69 -30 59 -163 199 -214 225 -19 10 -54 34 -76
53 -23 19 -68 45 -100 57 -32 13 -79 38 -104 55 -26 17 -75 40 -110 49 -35 10
-95 33 -134 52 -38 18 -104 41 -145 49 -41 8 -101 29 -133 45 -31 17 -92 39
-134 50 -90 25 -109 34 -123 60 -14 27 -12 97 5 154 8 27 22 103 31 170 9 70
30 163 49 221 19 59 42 158 53 240 12 84 33 177 51 229 19 55 39 145 51 235
19 134 25 153 67 236 25 50 63 110 83 135 20 25 48 65 62 90 14 25 36 54 48
65 12 11 33 43 47 70 14 28 36 61 49 75 12 14 36 55 53 91 16 36 41 80 55 96
14 17 36 60 50 97 13 37 35 83 49 104 27 39 57 113 57 141 0 10 18 54 40 100
28 57 45 112 56 175 9 50 32 152 52 226 l36 135 5 508 6 509 25 20 c32 26 86
20 210 -22 50 -17 125 -38 168 -46 89 -17 126 -39 131 -80 3 -29 -11 -199 -30
-349 -6 -44 -23 -132 -39 -195 -26 -107 -40 -197 -55 -360 -9 -95 -24 -178
-41 -233 -29 -90 -4 -115 148 -147 51 -11 115 -26 141 -34 63 -20 135 -32 294
-51 73 -8 194 -31 270 -50 142 -37 273 -53 337 -41 55 10 66 36 82 193 15 151
33 248 64 362 11 41 25 115 31 165 5 50 14 129 20 176 5 47 25 148 44 225 20
82 41 206 50 299 10 96 30 211 51 293 20 80 40 195 49 286 9 90 30 209 50 292
33 133 75 439 75 545 0 47 -18 83 -50 100 -10 6 -83 17 -162 25 -177 19 -187
20 -327 56 -64 16 -181 36 -270 45 -86 9 -196 24 -246 35 -119 25 -149 25
-167 -3z m-2313 -1268 c273 -16 464 -39 513 -62 85 -40 82 -21 82 -546 l0
-463 -35 -210 c-31 -186 -39 -218 -69 -272 -19 -34 -41 -89 -50 -121 -8 -33
-30 -82 -49 -110 -19 -28 -45 -73 -56 -101 -12 -27 -33 -61 -45 -75 -13 -14
-37 -52 -54 -85 -16 -33 -40 -69 -52 -80 -13 -11 -34 -38 -48 -60 -14 -22 -40
-56 -59 -75 -18 -19 -62 -68 -98 -108 -62 -71 -137 -136 -182 -160 -31 -17
-935 -17 -966 0 -45 24 -120 89 -182 160 -36 40 -80 89 -98 108 -19 19 -45 53
-59 75 -14 22 -35 49 -48 60 -12 11 -36 47 -52 80 -17 33 -41 71 -54 85 -12
14 -33 48 -45 75 -11 28 -37 73 -56 101 -19 28 -41 77 -49 110 -9 32 -31 87
-50 121 -30 54 -38 86 -69 272 l-35 210 0 461 c0 511 -1 499 65 540 59 37 348
67 770 80 288 9 881 4 1130 -10z"/>
<path d="M5040 7668 c-41 -4 -95 -14 -120 -22 -169 -56 -247 -89 -274 -115
-17 -16 -50 -40 -73 -55 -23 -14 -55 -45 -72 -69 -17 -25 -37 -47 -45 -50 -9
-3 -29 -34 -47 -68 -17 -34 -46 -84 -64 -110 -91 -132 -88 -594 4 -709 15 -19
37 -56 48 -81 27 -61 161 -210 220 -245 26 -15 66 -42 89 -60 33 -24 60 -35
116 -44 40 -6 113 -22 161 -36 48 -13 110 -24 137 -24 27 0 89 11 137 24 48
14 121 30 161 36 56 9 83 20 116 44 23 18 63 45 89 60 59 35 193 184 220 245
11 25 33 62 48 81 50 62 84 285 68 443 -16 160 -29 215 -64 266 -18 26 -47 76
-64 110 -18 34 -38 65 -47 68 -8 3 -28 25 -45 50 -17 24 -49 55 -72 69 -23 15
-56 39 -73 55 -18 18 -69 43 -130 65 -200 72 -281 86 -424 72z"/>
</g>
</svg>
