<?xml version="1.0" standalone="no"?>
<!DOCTYPE svg PUBLIC "-//W3C//DTD SVG 20010904//EN"
 "http://www.w3.org/TR/2001/REC-SVG-20010904/DTD/svg10.dtd">
<svg version="1.0" xmlns="http://www.w3.org/2000/svg"
 width="1024.000000pt" height="1024.000000pt" viewBox="0 0 1024.000000 1024.000000"
 preserveAspectRatio="xMidYMid meet">
<metadata>
Created by potrace 1.13, written by Peter Selinger 2001-2015
</metadata>
<g transform="translate(0.000000,1024.000000) scale(0.100000,-0.100000)"
fill="#000000" stroke="none">
<path d="M3519 9389 c-49 -8 -77 -25 -94 -59 -14 -26 -15 -489 -15 -4210 0
-3729 1 -4184 15 -4210 31 -60 44 -62 415 -62 371 0 384 2 415 62 14 26 15
481 15 4210 0 3729 -1 4184 -15 4210 -31 59 -46 62 -390 63 -172 1 -327 -1
-346 -4z"/>
<path d="M8639 9389 c-49 -8 -77 -25 -94 -59 -14 -26 -15 -489 -15 -4210 0
-3729 1 -4184 15 -4210 31 -60 44 -62 415 -62 371 0 384 2 415 62 14 26 15
481 15 4210 0 3729 -1 4184 -15 4210 -31 59 -46 62 -390 63 -172 1 -327 -1
-346 -4z"/>
<path d="M2165 7655 l-25 -24 0 -2511 0 -2511 25 -24 24 -25 371 0 371 0 24
25 25 24 0 2511 0 2511 -25 24 -24 25 -371 0 -371 0 -24 -25z"/>
<path d="M4725 7655 l-25 -24 0 -2511 0 -2511 25 -24 24 -25 371 0 371 0 24
25 25 24 0 2511 0 2511 -25 24 -24 25 -371 0 -371 0 -24 -25z"/>
<path d="M7285 7655 l-25 -24 0 -2511 0 -2511 25 -24 24 -25 371 0 371 0 24
25 25 24 0 2511 0 2511 -25 24 -24 25 -371 0 -371 0 -24 -25z"/>
<path d="M933 6389 c-37 -11 -83 -62 -83 -92 0 -12 0 -551 0 -1197 -1 -1132 0
-1175 18 -1200 40 -54 49 -55 412 -55 363 0 372 1 412 55 18 25 19 68 19 1219
0 1308 4 1218 -58 1258 -24 16 -61 18 -358 20 -183 1 -344 -2 -362 -8z"/>
<path d="M6053 6389 c-37 -11 -83 -62 -83 -92 0 -12 0 -551 0 -1197 -1 -1132
0 -1175 18 -1200 40 -54 49 -55 412 -55 363 0 372 1 412 55 18 25 19 68 19
1219 0 1308 4 1218 -58 1258 -24 16 -61 18 -358 20 -183 1 -344 -2 -362 -8z"/>
</g>
</svg>
