<?xml version="1.0" standalone="no"?>
<!DOCTYPE svg PUBLIC "-//W3C//DTD SVG 20010904//EN"
 "http://www.w3.org/TR/2001/REC-SVG-20010904/DTD/svg10.dtd">
<svg version="1.0" xmlns="http://www.w3.org/2000/svg"
 width="200.000000pt" height="200.000000pt" viewBox="0 0 200.000000 200.000000"
 preserveAspectRatio="xMidYMid meet">
<metadata>
Created by potrace 1.15, written by Peter Selinger 2001-2017
</metadata>
<g transform="translate(0.000000,200.000000) scale(0.100000,-0.100000)"
fill="#000000" stroke="none">
<path d="M668 1827 c-11 -11 -13 -166 -12 -834 0 -451 4 -825 8 -831 9 -16
152 -16 162 -1 3 6 7 382 7 836 0 699 -2 826 -14 834 -22 14 -136 11 -151 -4z"/>
<path d="M1671 1831 c-20 -13 -20 -1659 1 -1672 17 -11 129 -11 146 0 20 12
20 1660 0 1672 -17 11 -129 11 -147 0z"/>
<path d="M410 995 l0 -506 83 3 82 3 0 500 0 500 -82 3 -83 3 0 -506z"/>
<path d="M915 1488 c-3 -7 -4 -233 -3 -503 l3 -490 80 0 80 0 0 500 0 500 -78
3 c-56 2 -79 -1 -82 -10z"/>
<path d="M1415 1488 c-3 -7 -4 -233 -3 -503 l3 -490 80 0 80 0 0 500 0 500
-78 3 c-56 2 -79 -1 -82 -10z"/>
<path d="M159 1238 c-1 -13 0 -475 1 -490 0 -5 38 -8 85 -8 l85 0 0 255 0 255
-85 0 c-61 0 -85 -4 -86 -12z"/>
<path d="M1165 1238 c-3 -7 -4 -121 -3 -253 l3 -240 80 0 80 0 0 250 0 250
-78 3 c-57 2 -79 -1 -82 -10z"/>
</g>
</svg>
