<?xml version="1.0" standalone="no"?>
<!DOCTYPE svg PUBLIC "-//W3C//DTD SVG 20010904//EN"
 "http://www.w3.org/TR/2001/REC-SVG-20010904/DTD/svg10.dtd">
<svg version="1.0" xmlns="http://www.w3.org/2000/svg"
 width="200.000000pt" height="200.000000pt" viewBox="0 0 200.000000 200.000000"
 preserveAspectRatio="xMidYMid meet">
<metadata>
Created by potrace 1.15, written by Peter Selinger 2001-2017
</metadata>
<g transform="translate(0.000000,200.000000) scale(0.100000,-0.100000)"
fill="#000000" stroke="none">
<path d="M347 1821 c-70 -15 -157 -97 -177 -170 -6 -22 -10 -269 -10 -652 0
-689 -2 -670 71 -753 70 -79 81 -81 484 -81 382 0 370 -2 444 61 67 56 75 87
81 308 5 217 8 226 63 212 l27 -6 0 -108 c0 -96 3 -114 26 -160 65 -130 208
-179 335 -114 61 31 113 92 129 153 7 27 10 160 8 387 -3 333 -4 349 -25 387
-27 51 -360 395 -382 395 -20 0 -111 -90 -111 -109 0 -7 36 -48 80 -90 44 -43
80 -82 79 -87 0 -5 -19 -23 -42 -39 -26 -19 -53 -51 -70 -85 -24 -47 -28 -64
-25 -121 7 -139 116 -235 261 -233 l67 1 0 -182 c0 -206 -5 -221 -70 -231 -27
-4 -42 -1 -63 16 -26 21 -27 25 -27 115 0 203 -38 261 -182 274 l-73 6 4 340
c2 235 0 353 -8 382 -15 54 -65 120 -121 158 l-45 30 -345 2 c-190 1 -362 -2
-383 -6z m705 -189 c22 -21 23 -32 26 -170 2 -106 -1 -154 -11 -172 -24 -46
-65 -52 -390 -48 l-299 3 -24 28 c-23 27 -24 34 -24 178 l0 151 30 29 29 30
320 -3 c318 -3 321 -3 343 -26z m583 -417 c52 -51 19 -130 -53 -130 -54 0 -82
26 -82 76 0 71 85 105 135 54z"/>
</g>
</svg>
