<?xml version="1.0" standalone="no"?>
<!DOCTYPE svg PUBLIC "-//W3C//DTD SVG 20010904//EN"
 "http://www.w3.org/TR/2001/REC-SVG-20010904/DTD/svg10.dtd">
<svg version="1.0" xmlns="http://www.w3.org/2000/svg"
 width="1024.000000pt" height="1024.000000pt" viewBox="0 0 1024.000000 1024.000000"
 preserveAspectRatio="xMidYMid meet">
<metadata>
Created by potrace 1.13, written by Peter Selinger 2001-2015
</metadata>
<g transform="translate(0.000000,1024.000000) scale(0.100000,-0.100000)"
fill="#000000" stroke="none">
<path d="M2145 9388 c-44 -3 -118 -15 -165 -27 -47 -11 -125 -25 -175 -31
-118 -14 -158 -25 -193 -55 -16 -14 -59 -38 -95 -54 -36 -16 -74 -38 -85 -49
-10 -10 -44 -36 -76 -57 -61 -40 -194 -180 -237 -248 -15 -23 -36 -51 -48 -62
-12 -11 -38 -51 -57 -90 -19 -38 -45 -87 -58 -108 -13 -21 -29 -64 -36 -95 -7
-31 -25 -99 -41 -151 l-29 -94 0 -3147 0 -3147 29 -94 c16 -52 34 -120 41
-151 7 -31 23 -74 36 -95 13 -21 39 -70 58 -108 19 -39 45 -79 57 -90 12 -11
33 -39 48 -62 43 -68 176 -208 237 -248 32 -21 66 -47 76 -57 11 -11 49 -33
85 -49 36 -16 79 -40 95 -54 35 -30 75 -41 193 -55 50 -6 138 -22 198 -36
l108 -24 1518 0 1518 0 104 24 c57 14 145 30 194 36 140 17 151 20 205 60 27
20 71 45 97 55 27 10 64 32 83 50 19 18 49 40 67 49 35 18 231 222 252 264 7
15 26 41 42 57 15 17 42 63 58 103 17 41 42 87 55 103 13 16 29 52 35 81 6 29
21 96 33 148 22 93 23 113 28 985 6 990 0 920 73 960 46 24 259 19 300 -8 59
-39 58 -23 61 -528 3 -565 9 -620 86 -773 28 -54 50 -104 50 -111 0 -7 16 -32
36 -56 19 -23 44 -60 55 -82 11 -21 37 -58 58 -80 21 -23 48 -59 60 -79 12
-21 26 -38 31 -38 4 0 35 -25 69 -55 34 -30 81 -65 104 -76 23 -12 57 -34 77
-50 19 -16 60 -37 90 -47 30 -11 82 -33 115 -50 73 -36 128 -48 308 -63 105
-8 170 -8 270 0 194 18 242 28 325 72 40 21 80 39 88 39 20 0 73 28 108 57 16
13 50 35 76 48 53 27 253 221 277 270 8 16 28 44 44 60 15 17 39 56 53 88 14
31 41 79 59 106 21 30 39 73 47 112 7 35 22 89 32 119 10 30 23 75 29 98 6 28
9 641 9 1667 l0 1622 -25 104 c-14 57 -32 144 -41 193 -17 100 -29 133 -67
189 -14 21 -33 59 -42 86 -8 26 -32 66 -51 87 -19 21 -42 53 -51 69 -25 49
-67 91 -941 968 -589 590 -842 837 -857 837 -49 0 -116 -32 -139 -67 -13 -19
-38 -45 -56 -58 -19 -14 -41 -36 -50 -50 -9 -14 -31 -36 -49 -49 -18 -14 -43
-39 -57 -57 -13 -18 -35 -40 -49 -49 -14 -9 -36 -31 -50 -50 -13 -18 -40 -43
-59 -56 -36 -25 -71 -102 -64 -145 2 -12 177 -195 406 -423 370 -370 404 -406
409 -442 6 -51 -20 -85 -84 -109 -26 -10 -65 -33 -85 -51 -20 -18 -52 -40 -70
-50 -18 -9 -49 -33 -68 -53 -19 -20 -46 -46 -60 -58 -57 -50 -109 -111 -130
-153 -13 -25 -35 -59 -50 -77 -15 -17 -38 -61 -50 -98 -12 -37 -36 -89 -52
-115 -34 -55 -52 -146 -67 -337 -16 -224 10 -430 70 -546 22 -43 49 -102 60
-131 10 -29 31 -64 45 -77 14 -13 37 -45 50 -71 13 -26 28 -49 34 -53 6 -4 32
-35 58 -69 52 -69 183 -181 253 -216 24 -13 59 -35 77 -51 17 -16 58 -36 90
-44 31 -9 89 -27 127 -41 121 -43 167 -54 285 -64 128 -12 243 -7 368 17 96
18 123 13 148 -24 18 -27 19 -64 19 -893 0 -1004 2 -974 -85 -1078 -26 -32
-59 -63 -72 -69 -12 -6 -63 -30 -111 -53 -84 -40 -92 -42 -160 -38 -57 4 -89
13 -157 45 -47 22 -97 45 -112 51 -17 7 -36 29 -52 60 -13 26 -32 55 -42 63
-48 40 -49 46 -54 670 l-5 587 -42 83 c-23 46 -50 104 -61 129 -10 25 -36 65
-56 89 -21 24 -44 57 -51 71 -16 31 -51 61 -116 103 -24 15 -59 38 -78 52 -19
14 -52 30 -75 36 -23 5 -99 26 -171 46 -125 35 -138 37 -340 43 -220 6 -253
13 -274 54 -8 15 -12 506 -14 1766 l-2 1745 -22 95 c-13 52 -28 119 -34 148
-6 29 -22 65 -35 81 -13 16 -38 62 -55 103 -16 40 -43 87 -58 103 -16 17 -35
42 -42 57 -21 42 -217 246 -252 264 -18 9 -48 31 -67 49 -19 18 -56 40 -83 50
-26 10 -70 35 -97 55 -54 40 -65 43 -205 60 -49 6 -137 22 -195 36 l-105 24
-1460 3 c-803 1 -1496 -1 -1540 -5z m3072 -880 c96 -22 118 -35 203 -119 125
-124 115 -44 115 -914 0 -573 -3 -759 -13 -790 -6 -22 -41 -77 -77 -122 -73
-90 -86 -98 -236 -135 l-94 -23 -1495 0 -1495 0 -104 28 c-107 29 -161 51
-161 66 0 5 -22 32 -50 60 -93 96 -100 160 -100 876 1 769 9 849 99 934 126
119 158 134 331 151 41 4 734 7 1540 6 1311 -2 1473 -4 1537 -18z m3041 -2152
c92 -23 94 -24 152 -87 37 -40 67 -84 80 -119 31 -79 37 -207 16 -304 -16 -68
-24 -84 -76 -145 -46 -52 -68 -70 -102 -80 -24 -7 -73 -26 -110 -42 -78 -34
-123 -36 -198 -8 -30 11 -89 33 -130 47 -58 21 -79 34 -95 59 -11 18 -37 59
-57 90 -42 66 -58 122 -58 208 0 91 16 141 67 214 91 130 116 149 243 177 85
19 166 16 268 -10z"/>
</g>
</svg>
