<?xml version="1.0" standalone="no"?>
<!DOCTYPE svg PUBLIC "-//W3C//DTD SVG 20010904//EN"
 "http://www.w3.org/TR/2001/REC-SVG-20010904/DTD/svg10.dtd">
<svg version="1.0" xmlns="http://www.w3.org/2000/svg"
 width="200.000000pt" height="200.000000pt" viewBox="0 0 200.000000 200.000000"
 preserveAspectRatio="xMidYMid meet">
<metadata>
Created by potrace 1.15, written by Peter Selinger 2001-2017
</metadata>
<g transform="translate(0.000000,200.000000) scale(0.100000,-0.100000)"
fill="#000000" stroke="none">
<path d="M943 1819 c-17 -5 -50 -27 -73 -49 -23 -22 -51 -40 -63 -40 -54 0
-199 -45 -287 -88 -78 -38 -110 -62 -181 -132 -60 -60 -95 -105 -120 -153
l-34 -68 27 -20 c39 -28 35 -52 -13 -91 -36 -29 -40 -37 -36 -66 3 -17 14 -45
25 -60 11 -15 26 -54 35 -87 8 -33 27 -105 42 -160 36 -136 61 -230 86 -323
40 -153 50 -181 79 -220 16 -23 51 -53 77 -69 l48 -28 445 0 445 0 47 28 c95
55 100 69 238 622 32 127 61 222 74 240 27 39 29 156 3 232 -40 115 -154 251
-267 317 -34 20 -63 36 -66 36 -3 0 -10 -14 -16 -30 -13 -39 -47 -48 -97 -25
-39 17 -77 67 -66 85 12 20 -17 39 -76 51 -49 10 -68 20 -103 54 -54 52 -103
64 -173 44z m-163 -267 c106 -106 18 -226 -90 -124 -38 37 -46 57 -40 107 4
40 20 55 57 55 28 0 43 -8 73 -38z m701 -211 c20 -16 24 -29 24 -71 0 -42 -4
-55 -24 -71 -31 -25 -47 -24 -76 6 -32 31 -34 91 -4 129 24 31 48 33 80 7z
m89 -450 c0 -10 -20 -97 -45 -192 -25 -96 -53 -205 -62 -244 -9 -38 -23 -80
-31 -92 -15 -24 -77 -42 -92 -27 -6 6 3 81 20 184 16 96 30 187 30 203 l0 27
-75 0 c-69 0 -76 -2 -85 -22 -5 -13 -22 -103 -39 -201 -17 -98 -33 -182 -36
-187 -3 -6 -22 -10 -41 -10 l-34 0 0 199 c0 133 -4 202 -11 207 -14 8 -134 8
-148 0 -7 -5 -11 -74 -11 -207 l0 -199 -34 0 c-19 0 -38 4 -41 10 -3 5 -19 89
-36 187 -17 98 -34 188 -39 201 -9 20 -16 22 -85 22 -71 0 -75 -1 -75 -22 0
-13 13 -104 30 -203 19 -113 26 -183 20 -189 -6 -6 -21 -6 -42 0 -37 11 -51
34 -73 117 -8 28 -37 137 -64 240 -28 104 -51 195 -51 203 0 12 82 14 575 14
556 0 575 -1 575 -19z"/>
</g>
</svg>
