<?xml version="1.0" standalone="no"?>
<!DOCTYPE svg PUBLIC "-//W3C//DTD SVG 20010904//EN"
 "http://www.w3.org/TR/2001/REC-SVG-20010904/DTD/svg10.dtd">
<svg version="1.0" xmlns="http://www.w3.org/2000/svg"
 width="200.000000pt" height="200.000000pt" viewBox="0 0 200.000000 200.000000"
 preserveAspectRatio="xMidYMid meet">
<metadata>
Created by potrace 1.15, written by Peter Selinger 2001-2017
</metadata>
<g transform="translate(0.000000,200.000000) scale(0.100000,-0.100000)"
fill="#000000" stroke="none">
<path d="M1265 1770 l-59 -60 22 -23 22 -24 -70 -67 c-38 -37 -70 -75 -70 -83
0 -8 26 -39 57 -69 l57 -55 71 71 c39 38 75 70 81 70 13 0 134 -122 134 -136
0 -5 -29 -39 -65 -74 -36 -35 -65 -69 -65 -75 0 -13 102 -115 116 -115 5 0 41
31 79 70 l69 70 33 -32 33 -32 62 62 62 62 -239 241 c-132 132 -247 244 -256
249 -12 7 -30 -5 -74 -50z"/>
<path d="M783 1584 c-29 -29 -53 -59 -53 -67 0 -7 23 -35 50 -62 28 -27 50
-54 50 -60 0 -6 -103 -114 -230 -240 -239 -239 -270 -279 -270 -354 0 -34 42
-155 70 -203 19 -33 10 -48 -75 -133 l-85 -85 0 -84 c0 -47 -3 -91 -6 -100 -4
-10 1 -18 11 -22 12 -5 50 26 145 121 l129 128 48 -18 c55 -20 130 -52 155
-66 34 -17 145 -11 185 12 21 11 142 124 268 250 l231 229 39 -40 c21 -22 44
-40 50 -40 13 0 115 102 115 116 0 12 -756 774 -767 773 -4 0 -32 -25 -60 -55z
m302 -425 l106 -112 -32 -33 c-18 -19 -37 -34 -42 -34 -5 0 -41 30 -79 68 -38
37 -74 69 -80 71 -12 4 -88 -68 -88 -85 0 -7 32 -41 70 -77 39 -36 70 -70 70
-76 0 -7 -16 -28 -36 -48 l-36 -36 -78 78 -78 78 -48 -46 -48 -45 77 -79 77
-79 -43 -42 c-24 -23 -47 -42 -53 -42 -5 0 -56 47 -114 105 l-105 105 220 220
c121 121 223 220 226 220 4 0 55 -50 114 -111z"/>
</g>
</svg>
