<?xml version="1.0" standalone="no"?>
<!DOCTYPE svg PUBLIC "-//W3C//DTD SVG 20010904//EN"
 "http://www.w3.org/TR/2001/REC-SVG-20010904/DTD/svg10.dtd">
<svg version="1.0" xmlns="http://www.w3.org/2000/svg"
 width="1024.000000pt" height="1024.000000pt" viewBox="0 0 1024.000000 1024.000000"
 preserveAspectRatio="xMidYMid meet">
<metadata>
Created by potrace 1.13, written by Peter Selinger 2001-2015
</metadata>
<g transform="translate(0.000000,1024.000000) scale(0.100000,-0.100000)"
fill="#000000" stroke="none">
<path d="M4749 8947 c-45 -34 -44 -18 -49 -874 -5 -804 -5 -812 -26 -840 -27
-36 -54 -49 -143 -68 -39 -8 -99 -29 -133 -46 -34 -17 -94 -40 -133 -51 -38
-10 -89 -32 -112 -49 -46 -32 -177 -89 -207 -89 -10 0 -39 16 -65 35 -25 19
-293 282 -596 585 -506 506 -552 550 -583 550 -18 0 -46 -7 -61 -15 -38 -19
-468 -449 -487 -487 -8 -16 -14 -45 -12 -64 3 -31 63 -94 574 -607 314 -314
578 -586 587 -602 14 -29 13 -35 -13 -112 -15 -44 -44 -104 -63 -131 -19 -28
-45 -83 -57 -123 -12 -39 -34 -95 -50 -123 -16 -28 -36 -89 -45 -136 -19 -95
-36 -133 -62 -146 -10 -5 -387 -11 -838 -14 -864 -5 -848 -4 -882 -49 -19 -24
-18 -719 1 -743 36 -48 33 -48 873 -48 515 0 801 -4 825 -11 47 -12 60 -37 83
-149 9 -47 29 -108 45 -136 16 -28 38 -84 50 -123 12 -40 38 -95 57 -123 19
-27 48 -87 63 -131 26 -77 27 -83 13 -112 -9 -16 -273 -288 -587 -602 -511
-513 -571 -576 -574 -607 -2 -19 4 -48 12 -64 19 -38 449 -468 487 -487 15 -8
43 -15 61 -15 31 0 77 44 583 550 303 303 571 566 596 585 26 19 55 35 65 35
30 0 161 -57 207 -89 23 -17 74 -39 112 -49 39 -11 99 -34 133 -51 34 -17 94
-38 133 -46 89 -19 116 -32 143 -68 21 -28 21 -36 26 -840 3 -452 9 -819 14
-827 5 -8 18 -25 29 -37 l20 -23 357 0 357 0 20 22 c11 13 24 30 29 38 5 8 11
375 14 827 5 804 5 812 26 840 27 36 54 49 143 68 39 8 99 29 133 46 34 17 94
40 133 51 38 10 89 32 112 49 46 32 177 89 207 89 10 0 39 -16 65 -35 25 -19
293 -282 596 -585 506 -506 552 -550 583 -550 18 0 46 7 61 15 38 19 468 449
487 487 8 16 14 45 12 64 -3 31 -63 94 -574 607 -314 314 -578 586 -587 602
-14 29 -13 35 13 112 15 44 44 104 63 131 19 28 45 83 57 123 12 39 34 95 50
123 16 28 36 89 45 136 23 112 36 137 83 149 24 7 310 11 825 11 840 0 837 0
873 48 19 24 20 719 1 743 -34 45 -18 44 -882 49 -451 3 -828 9 -838 14 -26
13 -43 51 -62 146 -9 47 -29 108 -45 136 -16 28 -38 84 -50 123 -12 40 -38 95
-57 123 -19 27 -48 87 -63 131 -26 77 -27 83 -13 112 9 16 273 288 587 602
511 513 571 576 574 607 2 19 -4 48 -12 64 -19 38 -449 468 -487 487 -15 8
-43 15 -61 15 -31 0 -77 -44 -583 -550 -303 -303 -571 -566 -596 -585 -26 -19
-55 -35 -65 -35 -30 0 -161 57 -207 89 -23 17 -74 39 -112 49 -39 11 -99 34
-133 51 -34 17 -94 38 -133 46 -89 19 -116 32 -143 68 -21 28 -21 36 -26 840
-5 856 -4 840 -49 874 -23 18 -719 18 -742 0z m504 -2571 c50 -8 126 -18 167
-21 104 -9 145 -21 201 -60 27 -18 71 -41 98 -50 26 -8 66 -31 87 -49 21 -18
55 -41 74 -51 45 -23 236 -218 261 -267 10 -21 32 -52 48 -71 17 -18 46 -67
66 -108 19 -41 46 -92 59 -114 35 -58 86 -336 86 -465 0 -129 -51 -407 -86
-465 -13 -22 -40 -73 -59 -114 -20 -41 -49 -90 -66 -108 -16 -19 -38 -50 -48
-71 -25 -49 -216 -244 -261 -267 -19 -10 -53 -33 -74 -51 -21 -18 -61 -41 -87
-49 -27 -9 -71 -32 -98 -50 -54 -37 -96 -50 -191 -59 -36 -3 -120 -14 -187
-23 -116 -16 -130 -16 -245 0 -68 9 -152 20 -188 23 -95 9 -137 22 -191 59
-27 18 -71 41 -98 50 -26 8 -66 31 -87 49 -21 18 -55 41 -74 51 -45 23 -236
218 -261 267 -10 21 -32 52 -48 71 -17 18 -46 67 -66 108 -19 41 -46 92 -59
114 -35 58 -86 336 -86 465 0 129 51 407 86 465 13 22 40 73 59 114 20 41 49
90 66 108 16 19 38 50 48 71 25 49 216 244 261 267 19 10 53 33 74 51 21 18
61 41 87 49 27 9 71 32 98 50 59 41 93 50 241 65 63 6 133 15 155 20 63 12
138 11 238 -4z"/>
</g>
</svg>
