<?xml version="1.0" standalone="no"?>
<!DOCTYPE svg PUBLIC "-//W3C//DTD SVG 20010904//EN"
 "http://www.w3.org/TR/2001/REC-SVG-20010904/DTD/svg10.dtd">
<svg version="1.0" xmlns="http://www.w3.org/2000/svg"
 width="200.000000pt" height="200.000000pt" viewBox="0 0 200.000000 200.000000"
 preserveAspectRatio="xMidYMid meet">
<metadata>
Created by potrace 1.15, written by Peter Selinger 2001-2017
</metadata>
<g transform="translate(0.000000,200.000000) scale(0.100000,-0.100000)"
fill="#000000" stroke="none">
<path d="M920 1752 c-6 -2 -10 -66 -10 -162 0 -170 -3 -190 -29 -191 -9 0 -38
-11 -66 -23 l-50 -24 -122 121 -122 121 -63 -62 -62 -63 122 -122 122 -122
-15 -29 c-8 -15 -21 -47 -29 -70 l-14 -41 -173 -5 -174 -5 0 -80 0 -80 174 -5
173 -5 14 -41 c8 -23 21 -55 29 -70 l15 -29 -122 -122 -122 -122 62 -63 63
-62 122 122 122 122 29 -15 c15 -8 47 -21 70 -29 l41 -14 5 -173 5 -174 80 0
80 0 5 174 5 173 41 14 c23 8 55 21 70 29 l29 15 122 -122 122 -122 63 62 62
63 -122 122 -122 122 15 29 c8 15 21 47 29 70 l14 41 171 3 c102 1 171 6 172
12 0 6 0 39 0 75 0 36 0 69 0 75 -1 6 -70 11 -172 12 l-171 3 -14 41 c-8 23
-21 55 -29 70 l-15 29 122 122 122 122 -62 63 -63 62 -122 -121 -122 -121 -50
24 c-27 12 -57 23 -66 23 -26 1 -29 21 -29 192 0 87 -3 159 -7 160 -44 3 -145
3 -153 1z m200 -551 c54 -32 105 -105 115 -162 17 -98 -30 -199 -118 -253 -42
-26 -57 -29 -122 -29 -65 0 -80 3 -122 29 -120 74 -156 222 -83 337 70 110
217 145 330 78z"/>
</g>
</svg>
