<?xml version="1.0" standalone="no"?>
<!DOCTYPE svg PUBLIC "-//W3C//DTD SVG 20010904//EN"
 "http://www.w3.org/TR/2001/REC-SVG-20010904/DTD/svg10.dtd">
<svg version="1.0" xmlns="http://www.w3.org/2000/svg"
 width="200.000000pt" height="200.000000pt" viewBox="0 0 200.000000 200.000000"
 preserveAspectRatio="xMidYMid meet">
<metadata>
Created by potrace 1.15, written by Peter Selinger 2001-2017
</metadata>
<g transform="translate(0.000000,200.000000) scale(0.100000,-0.100000)"
fill="#000000" stroke="none">
<path d="M1141 1820 c-50 -17 -85 -50 -488 -452 -239 -238 -444 -449 -456
-468 -57 -91 -59 -154 -8 -250 19 -36 397 -416 451 -453 42 -29 51 -31 130
-31 76 0 89 3 124 26 22 15 233 220 470 455 330 328 437 439 454 475 30 65 30
151 0 210 -27 52 -420 453 -463 473 -90 40 -132 43 -214 15z m317 -353 c199
-197 219 -224 201 -260 -6 -12 -201 -212 -433 -444 -394 -396 -423 -423 -456
-423 -32 0 -51 16 -232 197 -184 184 -198 200 -198 234 0 25 7 42 25 59 l26
24 97 -97 c54 -53 100 -97 104 -97 9 0 88 77 88 87 0 4 -44 51 -97 105 l-97
98 29 30 c16 16 34 30 40 30 6 0 33 -23 60 -50 27 -27 54 -50 59 -50 14 0 86
71 86 85 0 6 -22 33 -50 60 -28 27 -50 54 -50 59 0 6 14 25 31 42 l31 32 87
-86 c125 -126 111 -120 166 -66 l47 47 -101 101 -101 102 35 34 35 34 59 -58
59 -59 49 46 48 46 -60 60 -59 61 29 30 c16 16 34 30 40 30 6 0 51 -40 100
-90 49 -49 95 -90 103 -90 17 0 82 66 82 83 0 8 -40 54 -90 103 -49 48 -90 94
-90 101 0 7 14 22 31 32 25 15 38 17 58 10 14 -6 108 -92 209 -192z"/>
</g>
</svg>
