<?xml version="1.0" standalone="no"?>
<!DOCTYPE svg PUBLIC "-//W3C//DTD SVG 20010904//EN"
 "http://www.w3.org/TR/2001/REC-SVG-20010904/DTD/svg10.dtd">
<svg version="1.0" xmlns="http://www.w3.org/2000/svg"
 width="1024.000000pt" height="1024.000000pt" viewBox="0 0 1024.000000 1024.000000"
 preserveAspectRatio="xMidYMid meet">
<metadata>
Created by potrace 1.13, written by Peter Selinger 2001-2015
</metadata>
<g transform="translate(0.000000,1024.000000) scale(0.100000,-0.100000)"
fill="#000000" stroke="none">
<path d="M6210 9404 c-14 -3 -72 -18 -130 -34 -58 -15 -149 -36 -203 -45 -78
-14 -107 -24 -147 -51 -27 -19 -75 -45 -106 -59 -32 -14 -77 -42 -100 -63 -31
-26 -893 -884 -1252 -1245 -4 -4 -20 -20 -37 -35 -16 -15 -40 -39 -51 -52 -12
-14 -37 -39 -55 -55 -19 -17 -41 -39 -50 -50 -9 -11 -32 -34 -50 -51 -19 -17
-44 -41 -55 -55 -12 -13 -35 -36 -50 -50 -16 -14 -38 -37 -50 -50 -11 -13 -34
-36 -50 -50 -16 -15 -41 -40 -55 -55 -14 -16 -37 -39 -50 -50 -13 -12 -36 -35
-50 -50 -14 -16 -37 -39 -50 -50 -13 -12 -35 -35 -49 -50 -14 -16 -37 -39 -50
-50 -14 -12 -39 -37 -55 -55 -17 -19 -38 -41 -48 -49 -41 -36 -2186 -2195
-2228 -2242 -25 -29 -52 -64 -59 -78 -7 -14 -28 -44 -47 -68 -19 -24 -50 -73
-69 -110 -19 -37 -43 -78 -54 -92 -11 -14 -31 -65 -44 -115 -13 -49 -35 -117
-48 -150 -21 -54 -23 -76 -23 -230 0 -162 2 -173 28 -239 15 -38 36 -105 47
-149 12 -46 31 -95 46 -114 14 -19 38 -62 54 -96 15 -34 40 -73 55 -87 15 -14
34 -38 42 -55 31 -59 131 -162 1078 -1110 670 -671 975 -970 1010 -990 28 -16
64 -40 80 -55 17 -15 57 -37 89 -49 32 -12 77 -35 100 -51 47 -33 92 -46 191
-54 39 -4 119 -14 180 -23 93 -14 123 -14 200 -4 49 7 147 19 217 26 125 13
154 22 223 70 20 13 53 29 73 36 20 6 60 28 87 49 28 20 66 45 85 55 19 9 55
37 80 60 72 70 2223 2213 2240 2232 8 10 30 31 49 48 18 16 43 41 55 55 11 13
34 36 50 50 15 14 38 36 50 49 11 13 34 36 50 50 15 14 38 37 50 50 11 13 34
36 50 50 15 14 40 39 55 55 14 16 37 39 50 50 13 12 36 34 50 50 14 15 37 38
50 50 14 11 38 36 55 55 17 18 40 41 51 50 11 9 33 31 50 50 16 18 41 43 55
55 13 11 37 35 52 51 15 17 31 33 35 37 373 366 1191 1191 1210 1221 14 23 36
52 49 64 13 12 37 49 53 82 16 34 41 74 54 91 14 16 35 60 48 97 12 37 35 93
51 123 41 80 52 153 52 365 0 215 -10 277 -59 375 -18 36 -40 90 -49 121 -8
31 -30 73 -47 95 -17 21 -41 62 -53 89 -13 28 -31 57 -41 65 -10 8 -36 40 -58
70 -41 56 -1932 1950 -2024 2027 -28 24 -73 52 -99 64 -27 11 -62 31 -79 43
-51 39 -71 46 -182 66 -60 11 -146 31 -193 46 -64 19 -112 27 -195 29 -60 2
-121 1 -135 -1z m224 -860 c44 -20 95 -43 111 -50 17 -8 459 -443 982 -967
757 -758 956 -963 977 -1004 14 -28 36 -67 49 -87 48 -70 43 -190 -12 -270
-16 -22 -32 -52 -36 -66 -8 -24 -4206 -4225 -4303 -4307 -107 -88 -329 -98
-441 -18 -20 14 -58 42 -86 63 -49 37 -1767 1753 -1856 1855 -56 63 -73 96
-88 165 -16 74 -14 162 5 237 17 68 26 79 169 231 75 80 98 89 153 60 15 -8
234 -222 487 -475 497 -499 473 -479 550 -447 34 15 365 336 377 367 3 8 0 28
-7 45 -7 16 -224 241 -484 499 -259 259 -473 478 -477 488 -10 31 45 109 157
220 60 59 109 112 109 117 0 21 63 42 110 38 45 -5 50 -9 283 -242 130 -131
237 -241 237 -245 0 -13 50 -31 87 -31 32 0 49 14 207 173 95 94 178 182 184
194 29 53 8 114 -49 149 -8 5 -27 25 -42 45 -15 19 -38 42 -52 49 -14 8 -35
29 -46 47 -11 18 -34 41 -50 50 -17 10 -39 32 -50 49 -10 17 -34 42 -53 54
-18 13 -42 36 -52 52 -10 16 -34 38 -53 50 -39 24 -61 71 -61 127 0 31 6 45
31 68 17 15 74 71 127 124 121 121 179 169 202 169 11 0 215 -196 504 -484
455 -455 509 -506 535 -506 5 0 87 77 182 170 167 166 229 241 229 279 0 11
-198 217 -478 497 -263 263 -484 489 -490 501 -7 12 -9 30 -5 40 3 10 79 91
168 181 170 170 184 179 238 151 12 -6 137 -125 277 -265 276 -274 274 -273
343 -238 42 22 377 356 377 376 0 35 -81 128 -305 349 -129 128 -238 242 -241
252 -10 31 45 109 157 220 60 59 109 112 109 117 0 20 63 42 110 38 46 -5 47
-6 508 -468 l463 -463 49 -5 49 -4 180 180 c176 176 181 183 181 222 0 52 -22
94 -61 117 -17 10 -39 33 -50 50 -11 18 -34 41 -50 50 -17 10 -39 33 -50 50
-11 18 -34 41 -50 50 -17 10 -39 32 -50 49 -10 17 -34 42 -53 54 -18 13 -42
36 -52 52 -10 16 -35 39 -54 53 -20 13 -43 38 -53 54 -9 16 -32 39 -50 50 -17
11 -40 33 -50 50 -10 17 -31 38 -48 48 -17 10 -39 32 -50 49 -10 17 -34 42
-53 54 -18 13 -42 36 -52 52 -10 16 -34 38 -53 50 -39 25 -61 71 -61 129 0 33
6 46 31 67 17 15 50 45 73 68 26 26 61 47 94 59 30 9 73 28 95 41 61 34 113
31 211 -12z"/>
</g>
</svg>
