<?xml version="1.0" standalone="no"?>
<!DOCTYPE svg PUBLIC "-//W3C//DTD SVG 20010904//EN"
 "http://www.w3.org/TR/2001/REC-SVG-20010904/DTD/svg10.dtd">
<svg version="1.0" xmlns="http://www.w3.org/2000/svg"
 width="200.000000pt" height="200.000000pt" viewBox="0 0 200.000000 200.000000"
 preserveAspectRatio="xMidYMid meet">
<metadata>
Created by potrace 1.15, written by Peter Selinger 2001-2017
</metadata>
<g transform="translate(0.000000,200.000000) scale(0.100000,-0.100000)"
fill="#000000" stroke="none">
<path d="M363 1740 c-51 -12 -83 -38 -104 -83 -18 -40 -19 -75 -19 -662 l0
-621 22 -44 c14 -26 37 -53 58 -65 34 -20 51 -20 675 -20 624 0 641 0 675 20
21 12 44 39 58 65 l22 44 0 621 0 621 -22 44 c-14 26 -37 53 -58 65 -34 19
-52 20 -655 22 -341 1 -635 -2 -652 -7z m1207 -745 l0 -575 -575 0 -575 0 0
575 0 575 575 0 575 0 0 -575z"/>
<path d="M1330 1480 c-14 -11 -28 -20 -31 -20 -18 0 -161 -95 -179 -117 -24
-31 -26 -89 -5 -159 23 -76 19 -80 -34 -31 -53 49 -118 87 -151 87 -31 0 -315
-158 -361 -201 -34 -31 -39 -42 -39 -80 0 -24 7 -62 14 -84 37 -107 66 -239
66 -305 0 -74 7 -83 45 -56 11 7 37 23 58 35 91 52 105 60 124 72 57 35 65
103 29 242 l-22 88 75 -75 c80 -78 124 -106 166 -106 22 0 112 43 294 141 65
36 84 68 78 137 -2 31 -12 84 -21 117 -10 33 -24 85 -33 115 -8 30 -18 91 -22
134 -3 44 -10 81 -16 82 -5 2 -21 -5 -35 -16z m-373 -343 c25 -14 213 -211
213 -224 0 -16 -89 -65 -109 -58 -15 4 -93 82 -230 230 -3 4 90 65 99 64 3 0
15 -5 27 -12z"/>
</g>
</svg>
