<?xml version="1.0" standalone="no"?>
<!DOCTYPE svg PUBLIC "-//W3C//DTD SVG 20010904//EN"
 "http://www.w3.org/TR/2001/REC-SVG-20010904/DTD/svg10.dtd">
<svg version="1.0" xmlns="http://www.w3.org/2000/svg"
 width="200.000000pt" height="200.000000pt" viewBox="0 0 200.000000 200.000000"
 preserveAspectRatio="xMidYMid meet">
<metadata>
Created by potrace 1.15, written by Peter Selinger 2001-2017
</metadata>
<g transform="translate(0.000000,200.000000) scale(0.100000,-0.100000)"
fill="#000000" stroke="none">
<path d="M1064 1799 c-42 -45 -87 -61 -299 -114 -206 -50 -231 -59 -257 -90
-45 -53 0 -145 71 -145 42 0 685 156 721 175 14 8 33 25 44 38 18 25 18 26 -3
56 -24 33 -92 69 -181 95 -68 20 -61 21 -96 -15z"/>
<path d="M1340 1550 c-32 -11 -84 -24 -195 -50 -49 -12 -106 -25 -125 -30 -35
-9 -179 -43 -255 -60 -239 -54 -275 -71 -275 -132 0 -40 33 -84 67 -91 16 -4
88 9 173 29 207 50 449 107 528 125 106 23 129 28 154 33 14 3 40 18 57 32 49
41 41 112 -16 142 -24 13 -75 14 -113 2z"/>
<path d="M1250 1251 c-135 -35 -381 -94 -570 -137 -118 -27 -145 -36 -167 -57
-34 -30 -31 -85 5 -120 33 -31 64 -34 149 -12 32 8 61 11 66 6 4 -4 7 -28 5
-52 l-3 -44 -68 4 c-94 4 -97 1 -97 -123 0 -146 38 -239 125 -311 37 -30 45
-42 45 -69 0 -36 33 -86 56 -86 7 0 39 -22 69 -50 l55 -50 75 0 75 0 55 50
c30 28 62 50 69 50 23 0 56 50 56 85 0 27 9 40 49 74 86 73 121 161 121 313 0
122 1 121 -93 118 -28 -1 -58 -1 -64 -1 -9 1 -13 21 -13 65 0 41 -4 66 -12 68
-11 4 -142 -27 -160 -38 -4 -3 -8 -27 -8 -55 l0 -49 -75 0 -75 0 0 78 0 77
103 24 c56 13 134 31 172 41 39 9 95 22 125 29 117 26 141 34 160 59 26 32 25
82 -1 116 -18 22 -27 26 -72 25 -29 -1 -99 -13 -157 -28z m-21 -600 c32 -20
-39 -121 -98 -140 -44 -14 -228 -14 -272 0 -62 20 -129 119 -96 142 13 8 452
6 466 -2z"/>
</g>
</svg>
