<?xml version="1.0" standalone="no"?>
<!DOCTYPE svg PUBLIC "-//W3C//DTD SVG 20010904//EN"
 "http://www.w3.org/TR/2001/REC-SVG-20010904/DTD/svg10.dtd">
<svg version="1.0" xmlns="http://www.w3.org/2000/svg"
 width="1024.000000pt" height="1024.000000pt" viewBox="0 0 1024.000000 1024.000000"
 preserveAspectRatio="xMidYMid meet">
<metadata>
Created by potrace 1.13, written by Peter Selinger 2001-2015
</metadata>
<g transform="translate(0.000000,1024.000000) scale(0.100000,-0.100000)"
fill="#000000" stroke="none">
<path d="M5603 9325 c-29 -19 -53 -40 -53 -46 0 -18 -146 -157 -188 -178 -20
-10 -46 -29 -57 -41 -11 -12 -48 -35 -83 -51 -35 -15 -77 -40 -93 -54 -17 -13
-68 -36 -115 -51 -47 -14 -110 -37 -141 -50 -31 -14 -111 -34 -182 -46 -69
-11 -160 -33 -201 -48 -89 -34 -136 -46 -210 -55 -75 -9 -153 -29 -225 -59
-33 -13 -117 -34 -187 -45 -73 -12 -159 -34 -202 -51 -41 -17 -129 -39 -198
-51 -68 -11 -156 -34 -197 -50 -41 -17 -129 -39 -195 -50 -98 -16 -138 -29
-212 -65 -50 -24 -94 -44 -98 -44 -38 0 -170 -163 -192 -237 -18 -59 -18 -206
-1 -264 8 -25 29 -65 48 -90 19 -26 41 -60 50 -76 9 -17 34 -41 57 -54 22 -13
58 -37 80 -52 26 -19 67 -34 121 -44 74 -15 91 -15 202 0 78 11 166 31 243 56
67 22 166 47 222 55 57 8 135 28 178 46 45 17 127 38 199 50 68 11 165 35 217
53 52 19 133 40 180 46 107 15 146 25 240 61 41 15 126 36 190 45 64 9 149 30
190 45 91 35 130 44 240 60 47 7 128 28 180 47 51 18 149 42 217 53 67 11 155
33 195 49 88 34 97 36 227 56 56 8 137 29 179 45 44 17 139 41 222 55 103 18
155 32 180 49 19 12 57 31 85 42 62 24 152 111 185 179 36 74 32 124 -18 222
-28 55 -54 91 -79 110 -21 15 -57 44 -80 64 -24 20 -64 44 -90 54 -27 10 -65
31 -85 47 -21 16 -71 40 -112 52 -40 13 -98 37 -128 54 -30 17 -93 40 -141 52
-48 11 -114 33 -146 49 -33 17 -103 39 -160 50 -56 12 -110 25 -121 31 -35 19
-83 10 -137 -25z"/>
<path d="M7140 7979 c-30 -5 -100 -25 -155 -43 -56 -19 -151 -42 -215 -51 -63
-9 -160 -32 -215 -50 -56 -19 -157 -43 -231 -54 -72 -11 -155 -30 -185 -42
-83 -33 -104 -38 -240 -59 -72 -11 -163 -33 -210 -50 -49 -18 -139 -39 -214
-51 -72 -11 -175 -35 -230 -54 -55 -18 -151 -41 -213 -50 -113 -16 -147 -25
-252 -63 -31 -12 -107 -28 -170 -37 -63 -9 -162 -32 -219 -51 -57 -19 -150
-42 -205 -50 -133 -20 -168 -28 -250 -59 -38 -14 -127 -35 -198 -46 -73 -11
-172 -34 -228 -54 -59 -20 -148 -40 -216 -50 -63 -9 -152 -29 -197 -45 -45
-16 -128 -40 -185 -54 -71 -17 -113 -33 -134 -51 -17 -14 -47 -34 -67 -44 -43
-22 -129 -142 -142 -198 -14 -60 -10 -195 6 -250 8 -27 24 -58 36 -69 12 -10
29 -35 39 -55 10 -19 48 -61 84 -92 52 -44 78 -58 123 -69 131 -29 379 -4 556
57 53 19 148 41 210 50 61 9 157 32 212 51 55 18 147 41 205 49 137 21 172 29
253 60 37 14 125 34 195 45 70 11 172 36 227 55 55 18 150 41 212 49 110 16
147 26 253 64 30 11 107 28 170 37 64 9 159 32 215 51 55 18 147 41 205 49
114 17 174 32 262 64 31 11 114 30 185 41 70 11 173 36 228 55 55 18 152 41
215 50 63 9 139 26 170 37 79 30 179 54 305 73 61 9 137 28 170 41 33 14 87
35 120 46 47 17 73 35 120 83 33 34 75 87 94 118 30 52 34 65 38 160 7 130 -6
189 -55 250 -20 25 -45 58 -55 72 -10 14 -48 40 -85 59 -37 18 -85 42 -107 54
-48 25 -156 35 -235 21z"/>
<path d="M7111 6554 c-58 -8 -150 -30 -205 -49 -56 -19 -159 -44 -229 -55 -71
-11 -154 -30 -185 -41 -95 -34 -112 -39 -242 -59 -69 -12 -170 -36 -225 -55
-55 -18 -151 -41 -215 -50 -63 -9 -160 -32 -215 -51 -57 -19 -157 -42 -231
-53 -72 -11 -155 -30 -185 -42 -81 -32 -103 -38 -239 -59 -71 -11 -162 -32
-210 -50 -49 -18 -137 -39 -211 -50 -69 -11 -173 -35 -230 -54 -57 -19 -154
-41 -215 -50 -61 -9 -156 -32 -210 -50 -56 -20 -149 -42 -214 -51 -64 -9 -159
-31 -215 -51 -57 -19 -156 -42 -231 -53 -81 -13 -160 -32 -205 -49 -41 -16
-99 -35 -129 -42 -68 -16 -80 -22 -149 -76 -74 -58 -137 -145 -151 -206 -12
-59 -13 -179 -1 -231 5 -21 22 -56 38 -78 15 -22 39 -57 53 -79 25 -39 134
-120 197 -147 93 -38 309 -20 488 42 55 18 141 39 190 45 50 7 116 18 147 26
67 17 97 12 130 -23 22 -24 23 -30 26 -242 l3 -218 -25 -30 c-42 -49 -82 -54
-442 -52 -363 2 -364 2 -383 -68 -14 -49 -14 -893 -1 -988 6 -38 23 -110 39
-160 16 -49 37 -125 46 -167 9 -44 27 -93 42 -115 15 -21 39 -71 54 -110 15
-40 39 -87 54 -104 15 -18 37 -54 49 -80 53 -108 272 -330 430 -434 39 -26 74
-60 98 -95 36 -54 36 -56 40 -175 4 -100 10 -135 35 -211 28 -84 36 -98 96
-157 60 -60 70 -66 135 -81 39 -9 83 -21 99 -27 50 -19 135 -91 289 -245 105
-106 166 -160 204 -179 l53 -27 367 0 367 0 53 27 c38 19 99 73 204 179 154
154 239 226 289 245 16 6 60 18 99 27 65 15 75 21 135 81 60 60 68 73 96 157
25 74 31 114 36 216 6 124 6 126 42 175 19 28 62 68 95 90 159 105 378 326
430 434 12 26 34 62 49 80 15 17 39 64 54 104 15 39 39 89 54 110 15 22 33 71
42 115 9 42 30 118 46 167 16 50 33 122 39 160 13 95 13 939 -1 988 -19 70
-20 70 -387 69 -180 -1 -345 2 -367 7 -24 6 -51 22 -67 41 l-28 30 0 286 c0
306 -4 334 -51 349 -35 12 -95 7 -126 -8 -48 -25 -127 -45 -245 -62 -62 -9
-158 -32 -213 -50 -55 -19 -119 -39 -143 -45 -82 -21 -82 -22 -82 -260 0 -235
-5 -259 -61 -279 -21 -7 -146 -11 -361 -11 -362 0 -384 3 -407 57 -18 44 -11
697 8 734 18 36 44 46 148 60 48 6 140 28 203 49 63 21 165 45 226 54 61 9
156 32 210 50 55 19 150 42 213 51 67 10 153 31 207 50 54 20 140 40 206 50
62 9 158 32 213 50 55 19 157 44 227 55 70 11 165 34 210 50 46 17 138 39 208
50 69 11 175 35 235 54 61 20 136 42 167 51 64 17 177 105 205 159 9 17 26 43
39 58 28 35 44 108 44 206 -1 94 -12 147 -40 181 -11 14 -30 41 -41 59 -12 18
-51 57 -87 87 -50 41 -78 57 -116 64 -93 18 -180 20 -285 5z m-771 -3170 c55
-32 58 -57 26 -192 -22 -92 -36 -129 -65 -172 -21 -30 -48 -74 -59 -97 -12
-22 -32 -49 -44 -60 -13 -10 -34 -33 -47 -51 -12 -18 -36 -39 -52 -48 -17 -8
-48 -31 -69 -50 -49 -44 -249 -119 -375 -139 -129 -21 -941 -21 -1070 0 -126
20 -326 95 -375 139 -21 19 -52 42 -69 50 -16 9 -40 30 -52 48 -13 18 -34 41
-47 51 -12 11 -32 38 -44 60 -11 23 -36 64 -55 90 -27 36 -43 76 -64 160 -33
131 -35 157 -11 186 41 52 9 50 1267 48 1160 -2 1170 -2 1205 -23z"/>
</g>
</svg>
