<?xml version="1.0" standalone="no"?>
<!DOCTYPE svg PUBLIC "-//W3C//DTD SVG 20010904//EN"
 "http://www.w3.org/TR/2001/REC-SVG-20010904/DTD/svg10.dtd">
<svg version="1.0" xmlns="http://www.w3.org/2000/svg"
 width="200.000000pt" height="200.000000pt" viewBox="0 0 200.000000 200.000000"
 preserveAspectRatio="xMidYMid meet">
<metadata>
Created by potrace 1.15, written by Peter Selinger 2001-2017
</metadata>
<g transform="translate(0.000000,200.000000) scale(0.100000,-0.100000)"
fill="#000000" stroke="none">
<path d="M935 1821 c-126 -33 -213 -163 -186 -280 5 -23 6 -41 2 -41 -216 -2
-257 -6 -293 -28 -67 -42 -74 -63 -138 -424 -32 -183 -75 -420 -94 -527 -20
-107 -33 -205 -30 -220 11 -44 43 -89 82 -113 l37 -23 680 0 c750 0 717 -3
763 62 42 60 44 93 11 262 -16 86 -61 324 -99 530 -61 327 -72 377 -95 407
-44 58 -75 68 -216 72 l-126 4 9 40 c20 91 -30 195 -122 253 -41 26 -135 39
-185 26z m108 -181 c33 -26 41 -63 23 -99 -27 -52 -114 -53 -141 -1 -21 41
-19 58 14 91 34 34 68 37 104 9z"/>
</g>
</svg>
