<?xml version="1.0" standalone="no"?>
<!DOCTYPE svg PUBLIC "-//W3C//DTD SVG 20010904//EN"
 "http://www.w3.org/TR/2001/REC-SVG-20010904/DTD/svg10.dtd">
<svg version="1.0" xmlns="http://www.w3.org/2000/svg"
 width="1024.000000pt" height="1024.000000pt" viewBox="0 0 1024.000000 1024.000000"
 preserveAspectRatio="xMidYMid meet">
<metadata>
Created by potrace 1.13, written by Peter Selinger 2001-2015
</metadata>
<g transform="translate(0.000000,1024.000000) scale(0.100000,-0.100000)"
fill="#000000" stroke="none">
<path d="M5065 9384 c-122 -31 -195 -45 -275 -54 -127 -15 -149 -22 -201 -62
-25 -18 -67 -42 -94 -52 -28 -10 -66 -33 -85 -51 -19 -18 -49 -40 -66 -49 -36
-17 -231 -223 -253 -264 -7 -15 -26 -40 -42 -57 -15 -16 -42 -64 -59 -105 -17
-41 -39 -84 -50 -95 -25 -27 -34 -53 -67 -210 -36 -174 -36 -325 0 -509 27
-137 25 -166 -12 -185 -13 -7 -195 -11 -548 -11 -577 0 -668 -7 -786 -55 -34
-14 -84 -35 -112 -46 -27 -10 -86 -48 -130 -83 -117 -94 -194 -190 -264 -331
-60 -119 -60 -121 -80 -280 -12 -88 -34 -205 -50 -260 -17 -60 -36 -161 -46
-250 -18 -166 -24 -197 -60 -320 -13 -46 -31 -149 -40 -227 -18 -156 -38 -265
-60 -328 -19 -53 -31 -125 -50 -292 -9 -75 -29 -184 -45 -241 -30 -108 -44
-183 -55 -302 -9 -104 -23 -178 -56 -293 -16 -60 -35 -166 -44 -250 -18 -162
-24 -193 -60 -316 -13 -47 -31 -147 -40 -223 -21 -182 -22 -191 -55 -313 -33
-122 -34 -131 -55 -313 -9 -76 -27 -176 -40 -223 -36 -123 -42 -154 -60 -315
-8 -81 -22 -171 -30 -200 -8 -30 -24 -87 -35 -128 -29 -106 -44 -275 -37 -420
6 -138 17 -186 52 -240 13 -20 34 -63 46 -96 12 -33 34 -73 49 -90 16 -16 37
-45 48 -63 20 -34 156 -162 172 -162 5 0 29 -18 55 -40 47 -41 84 -55 189 -71
34 -6 99 -21 146 -35 l84 -24 3256 0 3255 0 90 25 c50 13 117 28 151 34 97 15
140 29 165 55 13 12 44 36 68 51 87 54 233 220 262 296 11 28 35 81 55 118 41
78 54 149 54 301 0 127 -15 259 -41 355 -11 38 -26 95 -34 125 -8 30 -23 127
-35 215 -11 92 -32 200 -49 255 -15 52 -34 136 -40 185 -6 50 -16 126 -22 169
-6 44 -22 118 -35 165 -34 115 -41 155 -58 306 -9 72 -27 169 -41 218 -36 126
-42 157 -60 307 -8 76 -30 189 -50 260 -19 69 -41 185 -50 260 -18 155 -17
150 -56 290 -16 58 -38 177 -49 265 -11 89 -33 205 -49 261 -16 56 -34 137
-40 180 -6 44 -16 120 -22 169 -6 50 -22 126 -36 170 -34 115 -40 144 -58 304
-9 79 -28 182 -42 230 -37 126 -41 145 -58 292 -17 144 -36 238 -59 294 -8 19
-25 71 -37 116 -15 56 -32 92 -56 121 -19 23 -41 54 -49 70 -15 29 -122 138
-207 211 -26 21 -74 47 -113 61 -38 13 -90 33 -116 45 -95 43 -206 51 -751 51
-339 0 -515 4 -528 11 -37 19 -39 48 -12 185 36 184 36 335 0 509 -33 157 -42
183 -67 210 -11 11 -33 54 -50 95 -17 41 -44 89 -59 105 -16 17 -35 42 -42 57
-22 41 -217 247 -253 264 -17 9 -47 31 -66 49 -19 18 -57 41 -85 51 -27 10
-69 34 -94 52 -53 41 -74 47 -205 62 -55 7 -134 21 -175 31 -81 21 -173 31
-206 23z m189 -885 c60 -12 138 -69 207 -151 63 -76 73 -111 73 -243 0 -124
-11 -167 -57 -225 -18 -22 -42 -53 -55 -69 -12 -16 -39 -35 -60 -42 -20 -7
-68 -27 -107 -46 -57 -27 -81 -33 -135 -33 -54 0 -78 6 -135 33 -39 19 -87 39
-107 46 -21 7 -48 26 -60 42 -13 16 -37 47 -55 69 -47 59 -57 101 -57 230 0
96 3 123 21 163 25 55 152 185 205 210 70 33 201 40 322 16z"/>
</g>
</svg>
