<?xml version="1.0" standalone="no"?>
<!DOCTYPE svg PUBLIC "-//W3C//DTD SVG 20010904//EN"
 "http://www.w3.org/TR/2001/REC-SVG-20010904/DTD/svg10.dtd">
<svg version="1.0" xmlns="http://www.w3.org/2000/svg"
 width="200.000000pt" height="200.000000pt" viewBox="0 0 200.000000 200.000000"
 preserveAspectRatio="xMidYMid meet">
<metadata>
Created by potrace 1.15, written by Peter Selinger 2001-2017
</metadata>
<g transform="translate(0.000000,200.000000) scale(0.100000,-0.100000)"
fill="#000000" stroke="none">
<path d="M1040 1823 c-45 -16 -64 -88 -34 -128 15 -20 13 -20 -208 -25 l-223
-5 0 -85 0 -85 38 -3 37 -3 0 -117 0 -117 -202 -405 -202 -405 0 -82 c-1 -76
1 -83 30 -119 17 -21 46 -47 65 -59 33 -19 50 -20 621 -23 385 -2 601 1 626 8
52 13 117 62 139 102 12 22 17 56 17 103 l1 70 -203 405 -202 405 0 117 0 117
38 3 37 3 0 85 0 85 -137 3 c-76 1 -138 4 -138 6 0 1 7 17 15 34 36 72 -36
144 -115 115z m116 -472 l5 -133 95 -189 c52 -104 94 -191 94 -194 0 -2 -125
-6 -277 -7 l-278 -3 -108 -215 c-91 -179 -108 -220 -104 -247 l6 -33 -70 0
c-80 0 -113 20 -101 62 11 35 382 771 398 788 12 12 14 12 14 -4 0 -27 39 -76
69 -88 128 -49 236 90 151 194 -47 57 -130 63 -183 14 -14 -13 -28 -22 -30
-19 -3 2 -3 50 -1 106 2 56 4 103 4 105 0 1 70 1 155 0 l155 -3 6 -134z m-129
-617 c30 -8 56 -65 44 -96 -13 -35 -38 -52 -76 -52 -63 0 -96 53 -69 109 19
40 50 52 101 39z m331 -182 c51 -33 66 -104 32 -159 -55 -91 -184 -78 -219 24
-15 42 -9 73 24 116 31 42 113 51 163 19z"/>
</g>
</svg>
