<?xml version="1.0" standalone="no"?>
<!DOCTYPE svg PUBLIC "-//W3C//DTD SVG 20010904//EN"
 "http://www.w3.org/TR/2001/REC-SVG-20010904/DTD/svg10.dtd">
<svg version="1.0" xmlns="http://www.w3.org/2000/svg"
 width="1024.000000pt" height="1024.000000pt" viewBox="0 0 1024.000000 1024.000000"
 preserveAspectRatio="xMidYMid meet">
<metadata>
Created by potrace 1.13, written by Peter Selinger 2001-2015
</metadata>
<g transform="translate(0.000000,1024.000000) scale(0.100000,-0.100000)"
fill="#000000" stroke="none">
<path d="M4745 8088 c-44 -26 -44 -26 -44 -408 0 -272 3 -369 12 -381 28 -37
48 -39 414 -39 285 -1 362 -3 376 -14 28 -22 37 -72 37 -213 0 -124 1 -134 24
-159 31 -37 78 -42 419 -43 309 -1 353 5 392 51 24 28 25 37 25 146 0 64 5
134 11 155 20 72 18 71 430 77 l367 5 26 24 26 24 0 367 0 367 -26 24 -26 24
-1221 2 c-910 2 -1227 0 -1242 -9z"/>
<path d="M4295 6379 c-64 -26 -72 -33 -100 -88 -12 -25 -33 -55 -45 -66 -12
-11 -35 -46 -51 -77 -16 -31 -42 -72 -58 -90 -15 -18 -37 -51 -49 -73 -11 -22
-30 -49 -42 -60 -12 -11 -35 -45 -51 -76 -15 -31 -46 -78 -69 -104 -22 -25
-40 -52 -40 -60 0 -8 -18 -35 -40 -60 -23 -26 -54 -73 -69 -104 -16 -31 -39
-65 -51 -76 -12 -11 -33 -41 -46 -66 -12 -25 -36 -61 -51 -79 -15 -18 -41 -58
-58 -89 -47 -88 -32 -86 -480 -89 -382 -3 -390 -3 -412 -24 l-23 -21 0 -779
c0 -791 3 -851 37 -880 11 -9 95 -11 347 -9 429 3 494 -7 531 -86 10 -21 40
-66 67 -101 26 -35 48 -70 48 -78 0 -8 17 -33 39 -57 21 -23 49 -62 61 -87 13
-25 36 -60 51 -78 16 -18 40 -54 53 -80 13 -26 34 -56 46 -67 12 -11 34 -42
47 -70 14 -27 39 -65 54 -83 16 -18 43 -60 59 -93 17 -33 37 -62 44 -65 7 -3
26 -29 41 -57 16 -29 41 -66 56 -84 15 -17 42 -59 59 -92 31 -57 36 -62 84
-76 45 -13 240 -15 1505 -13 l1452 3 54 60 c30 33 63 79 74 102 11 23 34 57
49 75 16 18 40 53 52 78 12 25 38 62 57 84 19 21 41 53 48 71 8 17 31 52 51
76 20 24 46 64 56 87 11 24 35 60 53 80 18 21 40 53 50 72 10 19 31 50 46 68
16 18 42 59 58 90 16 31 39 66 51 77 12 11 31 38 42 60 12 22 36 58 55 80 67
78 63 -10 63 1567 0 1531 2 1477 -48 1514 -14 11 -349 13 -1862 13 -1829 0
-1845 0 -1895 -20z m2038 -782 c7 -23 2 -41 -32 -110 -22 -45 -48 -116 -57
-157 -9 -41 -31 -102 -49 -135 -18 -33 -40 -94 -49 -135 -10 -41 -35 -111 -57
-155 -54 -109 -59 -146 -26 -179 l26 -26 215 0 c118 0 226 -4 241 -10 33 -13
41 -35 24 -68 -19 -39 -1291 -1312 -1310 -1312 -55 0 -49 109 11 210 21 36 47
97 58 135 12 39 35 90 51 115 16 25 37 75 46 111 9 36 27 83 41 105 46 76 58
110 62 179 6 108 5 109 -221 109 -191 1 -220 7 -232 46 -4 13 1 32 12 49 15
24 173 193 398 427 28 29 97 102 155 163 58 62 148 156 200 211 52 54 141 147
197 207 104 110 125 132 178 181 17 15 38 38 48 51 24 30 58 24 70 -12z"/>
<path d="M8613 6389 c-37 -11 -83 -62 -83 -92 0 -12 0 -646 0 -1409 -1 -1532
-5 -1429 62 -1464 27 -14 77 -16 368 -16 291 0 341 2 368 16 67 35 63 -70 63
1482 0 1541 4 1431 -58 1471 -24 16 -61 18 -358 20 -183 1 -344 -2 -362 -8z"/>
<path d="M1341 5525 c-19 -9 -40 -23 -47 -33 -19 -24 -19 -2388 -1 -2442 8
-24 23 -41 47 -53 32 -16 67 -17 392 -15 357 3 358 3 380 26 l23 23 3 1227 2
1228 -26 25 -26 24 -356 2 c-299 2 -362 0 -391 -12z"/>
</g>
</svg>
