<?xml version="1.0" standalone="no"?>
<!DOCTYPE svg PUBLIC "-//W3C//DTD SVG 20010904//EN"
 "http://www.w3.org/TR/2001/REC-SVG-20010904/DTD/svg10.dtd">
<svg version="1.0" xmlns="http://www.w3.org/2000/svg"
 width="200.000000pt" height="200.000000pt" viewBox="0 0 200.000000 200.000000"
 preserveAspectRatio="xMidYMid meet">
<metadata>
Created by potrace 1.15, written by Peter Selinger 2001-2017
</metadata>
<g transform="translate(0.000000,200.000000) scale(0.100000,-0.100000)"
fill="#000000" stroke="none">
<path d="M910 1495 l0 -85 80 0 80 0 0 -33 c0 -18 5 -38 12 -45 13 -13 135
-16 155 -4 6 4 13 23 15 42 l3 35 80 5 80 5 3 83 3 82 -256 0 -255 0 0 -85z"/>
<path d="M818 1233 c-9 -10 -48 -66 -87 -125 l-70 -107 -83 -3 -83 -3 0 -170
0 -170 83 0 c50 0 85 -4 90 -11 4 -6 40 -61 81 -123 l74 -111 296 0 296 1 83
124 82 125 -2 293 -3 292 -371 3 c-343 2 -372 1 -386 -15z m382 -228 c-16 -44
-26 -83 -22 -87 4 -4 30 -8 57 -10 l50 -3 -132 -133 c-73 -73 -133 -126 -133
-117 0 8 14 45 30 82 40 88 39 93 -15 93 -25 0 -45 4 -45 10 0 10 231 252 236
247 2 -2 -10 -39 -26 -82z"/>
<path d="M1659 1238 c-2 -7 -3 -140 -1 -295 l3 -283 84 0 84 0 3 283 c2 155 1
288 -1 295 -2 8 -28 12 -86 12 -58 0 -84 -4 -86 -12z"/>
<path d="M242 828 l3 -253 85 0 85 0 0 250 0 250 -88 3 -87 3 2 -253z"/>
</g>
</svg>
