<?xml version="1.0" standalone="no"?>
<!DOCTYPE svg PUBLIC "-//W3C//DTD SVG 20010904//EN"
 "http://www.w3.org/TR/2001/REC-SVG-20010904/DTD/svg10.dtd">
<svg version="1.0" xmlns="http://www.w3.org/2000/svg"
 width="1024.000000pt" height="1024.000000pt" viewBox="0 0 1024.000000 1024.000000"
 preserveAspectRatio="xMidYMid meet">
<metadata>
Created by potrace 1.13, written by Peter Selinger 2001-2015
</metadata>
<g transform="translate(0.000000,1024.000000) scale(0.100000,-0.100000)"
fill="#000000" stroke="none">
<path d="M5000 9379 c-101 -20 -253 -39 -395 -49 -203 -15 -264 -25 -364 -64
-47 -19 -116 -39 -153 -45 -80 -14 -140 -34 -176 -60 -15 -10 -64 -30 -109
-44 -45 -14 -97 -36 -115 -51 -19 -14 -65 -38 -104 -54 -39 -16 -88 -42 -110
-59 -21 -17 -56 -36 -77 -43 -21 -6 -58 -27 -82 -46 -24 -18 -66 -44 -92 -58
-26 -13 -57 -33 -67 -45 -11 -12 -47 -37 -81 -56 -34 -19 -68 -42 -76 -51 -8
-9 -36 -34 -64 -54 -61 -46 -241 -225 -312 -311 -29 -35 -71 -86 -94 -114 -24
-27 -57 -72 -74 -100 -18 -27 -43 -59 -55 -70 -12 -11 -31 -37 -41 -58 -11
-21 -35 -55 -53 -75 -18 -20 -45 -60 -59 -88 -14 -28 -37 -65 -51 -81 -14 -17
-35 -51 -46 -77 -11 -26 -33 -63 -49 -84 -17 -20 -39 -62 -50 -93 -10 -31 -35
-79 -53 -107 -19 -27 -43 -78 -52 -113 -10 -35 -33 -91 -51 -124 -21 -37 -42
-97 -55 -155 -11 -52 -33 -126 -49 -165 -70 -168 -101 -730 -66 -1176 22 -275
33 -344 66 -429 17 -41 39 -117 50 -169 12 -61 31 -116 53 -155 19 -34 42 -90
51 -126 9 -36 31 -87 50 -115 18 -27 40 -72 49 -99 21 -63 33 -85 62 -116 12
-14 32 -49 44 -79 11 -29 36 -72 54 -95 19 -22 40 -57 49 -76 8 -19 31 -55 51
-79 21 -25 46 -61 56 -82 11 -20 38 -58 60 -84 22 -25 40 -50 40 -56 0 -15
160 -195 270 -305 120 -118 153 -149 190 -174 19 -14 43 -35 53 -47 10 -13 33
-31 50 -40 18 -8 49 -31 69 -49 21 -18 63 -47 95 -63 32 -16 67 -39 78 -51 11
-12 43 -34 70 -47 28 -14 66 -38 86 -54 20 -16 58 -38 84 -49 26 -11 65 -35
86 -54 25 -21 64 -40 102 -51 34 -9 89 -32 122 -50 40 -23 93 -40 160 -54 55
-11 135 -33 177 -50 49 -20 123 -38 206 -51 187 -28 307 -73 330 -125 9 -19
12 -128 12 -390 l0 -364 -23 -27 c-19 -22 -36 -29 -88 -35 -35 -5 -870 -8
-1856 -8 -1980 0 -1834 5 -1869 -63 -14 -27 -16 -77 -16 -368 0 -371 2 -384
62 -415 26 -14 481 -15 4210 -15 3729 0 4184 1 4210 15 60 31 62 44 62 415 0
291 -2 341 -16 368 -35 68 111 63 -1869 63 -986 0 -1821 3 -1856 8 -52 6 -69
13 -88 35 l-23 27 0 364 c0 262 3 371 12 390 23 52 143 97 330 125 83 13 157
31 206 51 42 17 122 39 177 50 67 14 120 31 160 54 33 18 88 41 122 50 38 11
77 30 102 51 21 19 60 43 86 54 26 11 64 33 84 49 20 16 59 40 86 54 28 13 59
35 70 47 11 12 46 35 78 51 32 16 74 45 95 63 20 18 51 41 69 49 17 9 40 27
50 40 10 12 34 33 53 47 37 25 70 56 190 174 110 110 270 290 270 305 0 6 18
31 40 56 22 26 50 66 62 88 11 23 36 59 55 81 19 21 42 55 50 75 8 20 30 55
49 77 18 23 43 66 54 95 12 30 32 65 44 79 29 31 41 53 62 116 9 27 31 72 49
99 19 28 41 79 50 115 9 36 32 92 51 126 22 39 41 94 53 155 11 52 33 128 50
169 68 172 102 776 66 1203 -22 254 -33 322 -66 402 -16 39 -38 113 -49 165
-13 58 -34 118 -55 155 -18 33 -41 89 -51 124 -9 35 -33 86 -52 113 -18 28
-43 76 -53 107 -11 31 -33 73 -50 93 -16 21 -38 58 -49 84 -11 26 -32 60 -46
77 -14 16 -37 53 -51 81 -14 28 -41 68 -59 88 -18 20 -42 54 -53 75 -10 21
-29 47 -41 58 -12 11 -37 43 -55 70 -17 28 -50 73 -74 100 -23 28 -65 79 -94
114 -71 86 -251 265 -312 311 -28 20 -56 45 -64 54 -8 9 -42 32 -76 51 -34 19
-70 44 -81 56 -10 12 -41 32 -67 45 -26 14 -68 40 -92 58 -24 19 -61 40 -82
46 -21 7 -56 26 -77 43 -22 17 -71 43 -110 59 -39 16 -85 40 -104 54 -18 15
-70 37 -115 51 -45 14 -94 34 -109 44 -36 26 -96 46 -176 60 -37 6 -105 26
-152 44 -96 38 -163 51 -300 60 -150 9 -286 24 -411 45 -122 21 -214 24 -289
9z m425 -874 c216 -14 249 -20 348 -61 32 -14 99 -33 150 -43 67 -14 118 -32
180 -65 49 -25 96 -46 106 -46 10 0 42 -16 71 -36 29 -20 80 -48 114 -63 33
-16 67 -35 75 -45 8 -9 49 -35 92 -57 44 -23 79 -45 79 -50 0 -5 24 -24 53
-43 28 -18 104 -85 167 -149 162 -162 195 -198 214 -234 9 -18 25 -37 36 -43
11 -6 32 -32 47 -58 15 -26 46 -72 68 -102 23 -30 47 -69 54 -86 7 -18 25 -44
41 -59 16 -15 39 -53 51 -84 12 -31 35 -73 51 -94 17 -21 41 -71 54 -112 13
-40 37 -95 54 -122 18 -30 37 -83 50 -144 11 -54 34 -133 50 -178 43 -118 53
-250 47 -639 -5 -342 -12 -403 -55 -503 -11 -26 -30 -91 -41 -144 -13 -61 -33
-119 -52 -154 -18 -30 -42 -86 -55 -123 -12 -37 -34 -82 -48 -100 -13 -18 -38
-62 -54 -98 -16 -36 -37 -71 -46 -79 -10 -8 -31 -42 -48 -75 -17 -34 -48 -80
-69 -103 -22 -24 -39 -47 -39 -53 0 -5 -16 -28 -36 -50 -20 -22 -53 -62 -73
-89 -106 -145 -233 -274 -342 -348 -25 -17 -51 -39 -59 -48 -8 -9 -34 -27 -59
-40 -25 -13 -57 -34 -70 -48 -13 -14 -49 -36 -80 -48 -31 -12 -68 -33 -82 -46
-14 -13 -62 -38 -106 -57 -45 -18 -96 -45 -115 -59 -21 -17 -67 -34 -122 -47
-49 -11 -119 -34 -156 -50 -84 -37 -125 -45 -315 -65 -82 -9 -202 -25 -266
-35 -145 -25 -193 -25 -338 0 -64 10 -183 26 -266 35 -190 20 -231 28 -315 65
-37 16 -107 39 -156 50 -55 13 -101 30 -122 47 -19 14 -70 41 -115 59 -44 19
-92 44 -106 57 -14 13 -51 34 -82 46 -31 12 -67 34 -80 48 -13 14 -45 35 -70
48 -25 13 -51 31 -59 40 -8 9 -34 31 -59 48 -109 74 -236 203 -342 348 -20 27
-53 67 -73 89 -20 22 -36 45 -36 50 0 6 -17 29 -39 53 -21 23 -52 69 -69 103
-17 33 -38 67 -48 75 -9 8 -30 43 -46 79 -16 36 -41 80 -54 98 -14 18 -36 63
-48 100 -13 37 -37 93 -55 123 -19 35 -39 93 -52 154 -11 53 -30 118 -41 144
-43 100 -50 161 -55 503 -6 389 4 521 47 639 16 45 39 124 50 178 13 61 32
114 50 144 17 27 41 82 54 122 13 41 37 91 54 112 16 21 39 63 51 94 12 31 35
69 51 84 16 15 34 41 41 59 7 17 31 56 54 86 22 30 53 76 68 102 15 26 36 52
47 58 11 6 27 25 36 43 19 36 52 72 214 234 63 64 139 131 168 149 28 19 52
38 52 43 0 5 35 27 79 50 43 22 84 48 92 57 8 10 42 29 75 45 34 15 85 43 114
63 29 20 61 36 71 36 10 0 57 21 106 46 62 33 113 51 180 65 51 10 118 29 150
43 99 41 132 47 328 60 254 18 380 18 630 1z"/>
<path d="M6035 7493 c-28 -21 -155 -144 -282 -273 -128 -129 -237 -239 -243
-245 -5 -5 -27 -27 -47 -48 -21 -21 -232 -234 -470 -474 -238 -239 -435 -444
-438 -454 -8 -24 72 -148 106 -167 13 -7 35 -28 48 -47 13 -19 38 -44 55 -54
17 -11 39 -33 49 -50 10 -17 31 -38 48 -48 17 -10 39 -32 50 -49 10 -17 34
-42 53 -55 19 -13 42 -36 51 -51 23 -40 70 -61 120 -56 39 5 66 30 602 564
309 307 572 568 585 580 13 11 35 34 49 50 15 16 40 41 55 55 16 14 38 36 49
48 11 12 57 58 103 102 71 69 82 84 82 114 0 18 -4 44 -9 58 -5 13 -111 124
-235 248 -210 208 -299 289 -322 289 -5 0 -32 -17 -59 -37z"/>
</g>
</svg>
