<?xml version="1.0" standalone="no"?>
<!DOCTYPE svg PUBLIC "-//W3C//DTD SVG 20010904//EN"
 "http://www.w3.org/TR/2001/REC-SVG-20010904/DTD/svg10.dtd">
<svg version="1.0" xmlns="http://www.w3.org/2000/svg"
 width="200.000000pt" height="200.000000pt" viewBox="0 0 200.000000 200.000000"
 preserveAspectRatio="xMidYMid meet">
<metadata>
Created by potrace 1.15, written by Peter Selinger 2001-2017
</metadata>
<g transform="translate(0.000000,200.000000) scale(0.100000,-0.100000)"
fill="#000000" stroke="none">
<path d="M905 1825 c-109 -18 -118 -21 -214 -68 -158 -77 -280 -223 -347 -412
-14 -38 -18 -81 -18 -180 0 -111 3 -139 23 -195 92 -256 251 -398 521 -467
l35 -9 0 -79 0 -80 -362 4 c-282 3 -366 1 -378 -9 -19 -16 -22 -155 -3 -167 7
-4 382 -8 832 -8 676 -1 821 2 832 13 17 17 19 124 3 154 -11 21 -15 21 -378
17 l-366 -4 0 80 0 79 35 9 c139 36 233 82 327 162 72 61 149 182 194 307 20
54 23 82 23 193 0 165 -20 228 -115 370 -66 99 -149 173 -250 222 -100 48
-134 59 -214 68 -33 3 -69 8 -80 10 -11 1 -56 -3 -100 -10z m238 -194 c247
-81 397 -343 333 -583 -20 -77 -25 -86 -77 -164 -50 -75 -93 -114 -169 -155
-77 -42 -129 -54 -235 -54 -133 0 -217 28 -318 108 -36 28 -124 148 -141 192
-105 274 38 572 318 660 64 20 223 18 289 -4z"/>
<path d="M1027 1322 c-81 -81 -147 -152 -147 -157 0 -16 106 -118 118 -114 21
8 302 288 302 301 0 15 -100 118 -115 118 -6 0 -77 -66 -158 -148z"/>
</g>
</svg>
