<?xml version="1.0" standalone="no"?>
<!DOCTYPE svg PUBLIC "-//W3C//DTD SVG 20010904//EN"
 "http://www.w3.org/TR/2001/REC-SVG-20010904/DTD/svg10.dtd">
<svg version="1.0" xmlns="http://www.w3.org/2000/svg"
 width="1024.000000pt" height="1024.000000pt" viewBox="0 0 1024.000000 1024.000000"
 preserveAspectRatio="xMidYMid meet">
<metadata>
Created by potrace 1.13, written by Peter Selinger 2001-2015
</metadata>
<g transform="translate(0.000000,1024.000000) scale(0.100000,-0.100000)"
fill="#000000" stroke="none">
<path d="M4970 9809 c-47 -5 -161 -20 -255 -34 -93 -13 -242 -29 -330 -35
-216 -14 -285 -25 -371 -60 -40 -16 -124 -39 -186 -50 -68 -13 -143 -35 -188
-55 -41 -19 -109 -41 -150 -50 -42 -10 -99 -31 -130 -50 -30 -18 -85 -42 -121
-54 -36 -12 -84 -35 -107 -52 -22 -16 -66 -38 -97 -49 -31 -11 -78 -35 -103
-53 -26 -18 -67 -41 -92 -50 -25 -9 -68 -34 -96 -55 -27 -20 -69 -44 -92 -51
-23 -8 -59 -29 -80 -46 -20 -18 -57 -42 -82 -55 -25 -12 -60 -36 -78 -51 -18
-16 -54 -40 -80 -53 -26 -13 -56 -34 -67 -46 -11 -13 -38 -34 -60 -48 -91 -58
-294 -248 -467 -437 -176 -194 -200 -221 -253 -285 -27 -33 -68 -82 -91 -108
-22 -26 -52 -67 -66 -92 -14 -25 -36 -54 -48 -65 -12 -11 -33 -41 -46 -67 -13
-26 -38 -62 -55 -79 -17 -17 -40 -52 -50 -77 -11 -26 -35 -65 -54 -88 -19 -23
-43 -64 -53 -91 -11 -28 -34 -69 -51 -90 -18 -22 -39 -62 -47 -89 -8 -27 -32
-78 -53 -114 -22 -36 -47 -94 -56 -130 -8 -35 -29 -85 -45 -110 -17 -27 -40
-86 -53 -141 -13 -52 -35 -116 -49 -144 -29 -57 -41 -97 -63 -211 -8 -44 -26
-108 -40 -141 -31 -78 -41 -122 -55 -253 -6 -58 -25 -173 -41 -256 -37 -191
-49 -339 -49 -624 0 -285 12 -433 49 -624 16 -83 35 -198 41 -256 14 -131 24
-175 55 -253 14 -33 32 -97 40 -141 22 -114 34 -154 63 -211 14 -27 36 -92 49
-144 13 -55 36 -114 53 -141 16 -25 37 -75 45 -110 9 -36 34 -94 56 -130 21
-36 45 -87 53 -114 8 -27 29 -67 47 -89 17 -21 40 -62 51 -90 10 -27 34 -68
53 -91 19 -23 43 -62 54 -88 10 -25 33 -60 50 -77 17 -17 42 -53 55 -79 13
-26 34 -56 46 -67 12 -11 34 -40 48 -65 14 -25 44 -66 66 -92 23 -26 64 -75
91 -108 53 -64 77 -91 253 -285 173 -189 376 -379 467 -437 22 -14 49 -35 60
-48 11 -12 41 -33 67 -46 26 -13 62 -37 80 -53 18 -15 53 -39 78 -51 25 -13
62 -37 82 -55 21 -17 57 -38 80 -46 23 -7 65 -31 92 -51 28 -21 71 -46 96 -55
25 -9 66 -32 92 -50 25 -18 72 -42 103 -53 31 -11 75 -33 97 -49 23 -17 71
-40 107 -52 36 -12 91 -36 121 -54 31 -19 88 -40 130 -50 41 -9 109 -31 150
-50 45 -20 120 -42 188 -55 62 -11 146 -34 186 -50 86 -35 155 -46 371 -60 88
-6 237 -22 330 -35 376 -54 434 -54 810 0 94 13 242 29 330 35 216 14 285 25
371 60 40 16 124 39 186 50 68 13 143 35 188 55 41 19 109 41 150 50 42 10 99
31 130 50 30 18 85 42 121 54 36 12 84 35 107 52 22 16 66 38 97 49 31 11 78
35 103 53 26 18 67 41 92 50 25 9 68 34 96 55 27 20 69 44 92 51 23 8 59 29
80 46 20 18 57 42 82 55 25 12 60 36 78 51 18 16 54 40 80 53 26 13 56 34 67
46 11 13 38 34 60 48 91 58 294 248 467 437 176 194 200 221 253 285 28 33 68
82 91 108 22 26 52 67 66 92 14 25 36 54 48 65 12 11 33 41 46 67 13 26 38 62
55 79 17 17 40 52 50 77 11 26 35 65 54 88 19 23 43 64 53 91 11 28 34 69 51
90 18 22 39 62 47 89 8 27 32 78 53 114 22 36 47 94 56 130 8 35 29 85 45 110
17 27 40 86 53 141 13 52 35 117 49 144 29 57 41 97 63 211 8 44 26 108 40
141 31 78 41 122 55 253 6 58 25 173 41 256 37 191 49 339 49 624 0 285 -12
433 -49 624 -16 83 -35 198 -41 256 -14 131 -24 175 -55 253 -14 33 -32 97
-40 141 -22 114 -34 154 -63 211 -14 28 -36 92 -49 144 -13 55 -36 114 -53
141 -16 25 -37 75 -45 110 -9 36 -34 94 -56 130 -21 36 -45 87 -53 114 -8 27
-29 67 -47 89 -17 21 -40 62 -51 90 -10 27 -34 68 -53 91 -19 23 -43 62 -54
88 -10 25 -33 60 -50 77 -17 17 -42 53 -55 79 -13 26 -34 56 -46 67 -12 11
-34 40 -48 65 -14 25 -44 66 -66 92 -23 26 -63 75 -91 108 -53 64 -77 91 -253
285 -173 189 -376 379 -467 437 -22 14 -49 35 -60 48 -11 12 -41 33 -67 46
-26 13 -62 37 -80 53 -18 15 -53 39 -78 51 -25 13 -62 37 -82 55 -21 17 -57
38 -80 46 -23 7 -65 31 -92 51 -28 21 -71 46 -96 55 -25 9 -66 32 -92 50 -25
18 -72 42 -103 53 -31 11 -75 33 -97 49 -23 17 -71 40 -107 52 -36 12 -91 36
-121 54 -31 19 -88 40 -130 50 -41 9 -109 31 -150 50 -45 20 -120 42 -188 55
-62 11 -146 34 -186 50 -86 35 -155 46 -371 60 -88 6 -236 22 -330 35 -317 45
-395 50 -555 34z m325 -868 c44 -5 175 -15 290 -21 233 -12 329 -27 424 -66
35 -14 110 -34 167 -44 64 -12 132 -32 181 -54 43 -19 111 -42 151 -51 45 -10
90 -29 120 -49 26 -18 76 -43 112 -54 36 -12 82 -36 102 -52 21 -17 63 -40 95
-51 32 -11 74 -33 95 -49 20 -16 60 -40 90 -53 29 -13 67 -35 83 -49 17 -14
58 -40 93 -57 35 -17 65 -38 69 -47 3 -8 26 -26 52 -41 25 -14 60 -38 76 -53
17 -15 51 -41 76 -58 25 -17 52 -38 60 -48 8 -9 36 -34 62 -55 49 -39 236
-241 342 -369 33 -40 78 -93 101 -119 22 -25 50 -62 62 -81 11 -20 33 -47 47
-60 15 -14 36 -43 47 -65 11 -22 36 -59 55 -82 18 -23 41 -59 49 -80 9 -20 31
-55 49 -76 18 -21 43 -65 55 -98 13 -33 36 -76 51 -96 16 -19 38 -68 50 -107
12 -39 36 -96 55 -126 18 -30 40 -86 49 -125 9 -38 31 -102 50 -141 21 -44 41
-111 53 -175 11 -57 31 -134 45 -170 36 -96 44 -142 77 -473 37 -372 37 -480
0 -852 -33 -331 -41 -377 -77 -473 -14 -36 -34 -113 -45 -170 -12 -64 -32
-131 -53 -175 -19 -39 -41 -102 -50 -141 -9 -38 -31 -95 -49 -125 -19 -30 -43
-87 -55 -126 -12 -39 -34 -88 -50 -107 -15 -20 -38 -63 -51 -96 -12 -33 -37
-77 -55 -98 -18 -21 -40 -56 -49 -76 -8 -21 -31 -57 -49 -80 -19 -23 -44 -60
-55 -82 -11 -22 -32 -51 -47 -65 -14 -13 -36 -40 -47 -60 -12 -19 -40 -56 -62
-81 -23 -26 -68 -79 -101 -119 -106 -128 -293 -330 -342 -369 -26 -21 -54 -46
-62 -55 -8 -10 -35 -31 -60 -48 -25 -17 -59 -43 -76 -58 -16 -15 -51 -39 -76
-53 -26 -15 -49 -33 -52 -41 -4 -9 -34 -30 -69 -47 -35 -17 -76 -43 -93 -57
-16 -14 -54 -36 -83 -49 -30 -13 -70 -37 -90 -53 -21 -16 -63 -38 -95 -49 -32
-11 -74 -34 -95 -51 -20 -16 -66 -40 -102 -52 -36 -11 -86 -36 -112 -54 -30
-20 -75 -39 -120 -49 -40 -9 -108 -32 -151 -51 -49 -22 -117 -42 -181 -54 -57
-10 -132 -30 -167 -44 -95 -39 -191 -54 -424 -66 -115 -6 -246 -16 -290 -21
-102 -11 -248 -11 -350 0 -44 5 -175 15 -290 21 -233 12 -329 27 -424 66 -35
14 -110 34 -167 44 -64 12 -132 32 -181 54 -43 19 -111 42 -151 51 -45 10 -90
29 -120 49 -26 18 -76 43 -112 54 -36 12 -82 36 -102 52 -21 17 -63 40 -95 51
-32 11 -74 33 -95 49 -20 16 -60 40 -90 53 -29 13 -66 35 -83 49 -16 14 -58
40 -93 57 -35 17 -65 38 -69 47 -3 8 -26 26 -52 41 -25 14 -59 38 -76 53 -16
15 -51 41 -76 58 -25 17 -52 38 -60 48 -8 9 -36 34 -62 55 -49 39 -236 241
-342 369 -33 40 -78 93 -101 119 -22 25 -50 62 -62 81 -11 20 -33 47 -47 60
-15 14 -36 43 -47 65 -11 22 -36 59 -55 82 -18 23 -41 59 -49 80 -9 20 -31 55
-49 76 -18 21 -43 65 -55 98 -13 33 -36 76 -51 96 -16 19 -38 68 -50 107 -12
39 -36 96 -55 126 -18 30 -40 87 -49 125 -9 39 -31 102 -50 141 -21 44 -41
111 -53 175 -11 57 -31 134 -45 170 -36 96 -44 142 -77 473 -37 372 -37 480 0
852 33 331 41 377 77 473 14 36 34 113 45 170 12 64 32 131 53 175 19 39 41
103 50 141 9 39 31 95 49 125 19 30 43 87 55 126 12 39 34 88 50 107 15 20 38
63 51 96 12 33 37 77 55 98 18 21 40 56 49 76 8 21 31 57 49 80 19 23 44 60
55 82 11 22 32 51 47 65 14 13 36 40 47 60 12 19 40 56 62 81 23 26 68 79 101
119 106 128 293 330 342 369 26 21 54 46 62 55 8 10 35 31 60 48 25 17 60 43
76 58 17 15 51 39 76 53 26 15 49 33 52 41 4 9 34 30 69 47 35 17 77 43 93 57
17 14 54 36 83 49 30 13 70 37 90 53 21 16 63 38 95 49 32 11 74 34 95 51 20
16 66 40 102 52 36 11 86 36 112 54 30 20 75 39 120 49 40 9 108 32 151 51 49
22 117 42 181 54 56 10 132 30 168 44 99 40 181 53 418 66 118 7 244 15 280
20 94 11 273 11 365 1z"/>
<path d="M3519 7602 c-47 -26 -105 -64 -128 -85 -22 -20 -45 -37 -51 -37 -5 0
-34 -21 -64 -47 -30 -27 -87 -75 -127 -108 -110 -90 -202 -179 -298 -287 -137
-154 -167 -190 -189 -233 -11 -22 -34 -57 -51 -78 -16 -22 -40 -64 -51 -95
-12 -30 -34 -72 -51 -93 -16 -21 -40 -69 -53 -107 -13 -38 -37 -88 -54 -110
-16 -23 -37 -72 -46 -109 -10 -38 -32 -97 -50 -133 -21 -40 -42 -104 -55 -169
-11 -57 -34 -142 -50 -190 -36 -104 -51 -225 -54 -428 -2 -152 -2 -152 24
-178 l25 -26 884 1 c827 0 886 2 914 18 42 24 62 69 82 182 23 133 39 181 73
224 17 21 39 57 51 82 22 44 279 313 350 365 31 23 34 30 33 69 -2 31 -12 58
-36 94 -19 28 -40 67 -48 85 -7 19 -26 49 -41 67 -15 17 -40 58 -54 90 -14 33
-36 70 -49 84 -13 14 -36 52 -50 84 -14 32 -41 77 -59 100 -18 23 -39 57 -46
76 -7 19 -30 58 -50 85 -21 28 -45 71 -55 97 -9 25 -28 57 -42 70 -14 13 -41
57 -60 98 -19 41 -45 86 -58 100 -13 14 -33 47 -45 74 -11 27 -33 65 -49 85
-16 20 -40 61 -54 91 -13 30 -32 61 -41 69 -10 8 -31 42 -48 75 -36 72 -55 96
-77 96 -9 -1 -55 -22 -102 -48z"/>
<path d="M6588 7633 c-9 -10 -29 -45 -46 -79 -17 -33 -38 -67 -48 -75 -9 -8
-28 -39 -41 -69 -14 -30 -38 -71 -54 -91 -16 -20 -38 -58 -49 -85 -12 -27 -32
-60 -45 -74 -13 -14 -39 -59 -58 -100 -19 -41 -46 -85 -60 -98 -14 -13 -33
-45 -42 -70 -10 -26 -34 -69 -55 -97 -20 -27 -43 -66 -50 -85 -7 -19 -28 -53
-46 -76 -18 -23 -45 -68 -59 -100 -14 -32 -37 -70 -50 -84 -13 -14 -35 -51
-49 -84 -14 -32 -39 -73 -54 -90 -15 -18 -34 -48 -41 -67 -8 -18 -29 -57 -48
-85 -24 -36 -34 -63 -36 -94 -1 -39 2 -46 33 -69 71 -52 328 -321 350 -365 12
-25 34 -61 51 -82 34 -43 50 -91 73 -224 20 -113 40 -158 82 -182 28 -16 87
-18 914 -18 l884 -1 25 26 c26 26 26 26 24 178 -3 204 -18 325 -54 427 -17 47
-39 128 -49 181 -12 61 -32 123 -54 166 -19 38 -42 99 -51 134 -9 35 -32 87
-51 115 -19 28 -41 73 -49 101 -8 27 -26 65 -40 84 -14 19 -42 70 -63 114 -22
44 -47 86 -56 94 -10 8 -29 38 -43 65 -14 28 -44 72 -67 98 -22 26 -68 79
-101 118 -106 124 -498 490 -525 490 -6 0 -29 17 -53 39 -43 39 -172 117 -211
127 -14 3 -28 -1 -38 -13z"/>
<path d="M4987 5619 c-21 -5 -57 -22 -80 -37 -23 -15 -66 -39 -96 -52 -43 -20
-67 -41 -122 -110 -58 -72 -71 -96 -90 -165 -35 -122 -36 -221 -6 -332 29
-107 24 -97 106 -196 72 -87 88 -98 221 -158 92 -42 98 -43 200 -43 102 0 108
1 200 43 133 60 149 71 221 158 82 99 76 89 106 196 31 113 32 187 4 296 -25
96 -49 147 -81 176 -12 11 -36 39 -52 63 -25 36 -48 52 -142 97 -144 70 -274
91 -389 64z"/>
<path d="M4612 4083 c-40 -19 -82 -72 -111 -138 -12 -27 -33 -61 -46 -75 -13
-14 -37 -54 -53 -90 -16 -36 -37 -72 -47 -80 -9 -8 -33 -46 -51 -84 -19 -39
-43 -80 -54 -91 -11 -11 -35 -52 -54 -91 -18 -38 -42 -76 -51 -84 -10 -8 -31
-44 -47 -80 -16 -36 -40 -76 -53 -90 -13 -14 -35 -50 -48 -81 -14 -30 -37 -69
-52 -87 -15 -17 -39 -58 -55 -90 -15 -32 -39 -72 -53 -88 -14 -17 -37 -57 -52
-90 -14 -32 -37 -70 -50 -84 -34 -36 -78 -136 -70 -160 4 -12 36 -45 71 -74
51 -42 80 -58 142 -75 42 -12 94 -34 116 -48 21 -14 84 -36 139 -50 55 -13
122 -36 149 -49 70 -36 148 -52 283 -59 66 -3 192 -14 280 -23 202 -21 348
-21 550 0 88 9 214 20 280 23 135 7 213 23 283 59 27 13 94 36 149 49 55 14
118 36 139 50 22 14 74 36 116 48 62 17 91 33 142 75 35 29 67 62 71 74 8 24
-36 124 -70 160 -13 14 -36 52 -50 84 -15 33 -38 73 -52 90 -14 16 -38 56 -53
88 -16 32 -40 73 -55 90 -15 18 -38 57 -52 87 -13 31 -35 67 -48 81 -13 14
-37 54 -53 90 -16 36 -37 72 -47 80 -9 8 -33 46 -51 84 -19 39 -43 80 -54 91
-11 11 -35 52 -54 91 -18 38 -42 76 -51 84 -10 8 -31 44 -47 80 -16 36 -40 76
-53 90 -13 14 -35 51 -49 82 -32 73 -93 135 -141 144 -28 5 -59 -2 -138 -29
-218 -76 -456 -77 -670 -1 -111 38 -128 40 -175 17z"/>
</g>
</svg>
