<?xml version="1.0" standalone="no"?>
<!DOCTYPE svg PUBLIC "-//W3C//DTD SVG 20010904//EN"
 "http://www.w3.org/TR/2001/REC-SVG-20010904/DTD/svg10.dtd">
<svg version="1.0" xmlns="http://www.w3.org/2000/svg"
 width="1024.000000pt" height="1024.000000pt" viewBox="0 0 1024.000000 1024.000000"
 preserveAspectRatio="xMidYMid meet">
<metadata>
Created by potrace 1.13, written by Peter Selinger 2001-2015
</metadata>
<g transform="translate(0.000000,1024.000000) scale(0.100000,-0.100000)"
fill="#000000" stroke="none">
<path d="M6552 10216 c-29 -31 -91 -52 -227 -77 -66 -12 -140 -34 -185 -53
-41 -19 -100 -39 -130 -46 -61 -14 -99 -31 -145 -65 -16 -13 -52 -32 -78 -44
-27 -11 -62 -32 -79 -46 -17 -15 -56 -39 -88 -55 -31 -16 -63 -36 -71 -46 -8
-10 -32 -29 -55 -43 -84 -54 -246 -206 -324 -306 -86 -109 -101 -121 -155
-129 -27 -5 -100 -21 -160 -37 -61 -15 -164 -35 -230 -44 -143 -19 -187 -30
-240 -60 -22 -13 -74 -33 -115 -45 -41 -12 -91 -34 -110 -49 -20 -16 -56 -38
-80 -51 -46 -23 -103 -72 -222 -189 -126 -124 -155 -156 -182 -199 -15 -24
-33 -45 -41 -49 -8 -3 -28 -33 -45 -67 -16 -34 -43 -80 -60 -101 -16 -21 -35
-56 -40 -79 -6 -22 -26 -91 -45 -152 -25 -80 -35 -130 -35 -177 0 -118 5 -119
457 -115 417 4 396 -2 427 117 17 65 27 81 97 160 42 48 101 103 131 121 29
19 68 46 85 62 18 15 65 37 104 48 40 12 90 33 111 46 71 45 191 61 608 79 63
3 127 10 142 16 17 7 37 32 59 72 18 34 43 74 55 90 13 15 33 55 45 88 13 36
36 73 56 92 19 18 43 46 54 64 11 17 41 45 68 62 26 17 57 41 67 52 10 12 46
35 79 51 33 17 74 43 92 58 17 16 58 36 90 45 32 9 96 34 143 55 76 35 108 42
295 70 241 35 303 51 342 84 l28 24 3 396 3 396 -238 0 -238 0 -23 -24z"/>
<path d="M8593 9598 c-47 -10 -72 -38 -93 -101 -20 -63 -170 -229 -255 -284
-22 -14 -53 -38 -70 -54 -16 -15 -50 -36 -75 -47 -25 -11 -63 -34 -84 -51 -22
-17 -64 -39 -95 -47 -31 -9 -84 -31 -118 -50 -34 -19 -99 -43 -145 -55 -46
-11 -117 -35 -158 -54 -79 -36 -128 -45 -345 -65 -194 -17 -241 -28 -275 -62
-49 -48 -52 -82 -49 -438 5 -417 -1 -405 191 -381 53 6 141 20 195 31 54 10
148 24 208 30 213 21 257 30 334 65 42 19 116 43 165 55 49 11 116 36 150 54
33 19 85 39 114 46 30 7 77 28 105 47 28 19 78 46 111 59 33 13 72 35 86 48
14 13 50 36 80 51 30 15 73 42 95 60 22 18 59 42 83 54 24 12 46 29 49 37 3 8
26 29 52 47 62 42 235 220 275 282 18 28 40 56 50 64 9 8 32 46 51 85 19 39
43 82 54 96 12 14 32 70 45 125 14 55 32 120 41 144 19 56 20 150 0 178 -8 11
-34 26 -59 32 -55 14 -651 13 -713 -1z"/>
<path d="M2589 7241 l-24 -19 0 -380 c0 -371 1 -381 21 -409 l21 -28 154 -3
c231 -4 219 22 219 -464 0 -200 -5 -392 -10 -428 -6 -39 -25 -93 -47 -135 -19
-38 -46 -109 -59 -157 -13 -48 -35 -106 -49 -129 -15 -22 -36 -78 -47 -122
-11 -45 -33 -106 -49 -135 -16 -29 -40 -93 -54 -142 -13 -50 -37 -114 -54
-143 -16 -28 -39 -90 -51 -137 -12 -47 -35 -108 -51 -136 -16 -28 -38 -89 -50
-135 -11 -46 -34 -108 -51 -136 -16 -29 -41 -95 -54 -145 -14 -51 -36 -110
-50 -131 -13 -20 -36 -81 -50 -135 -14 -53 -36 -113 -48 -132 -28 -44 -41 -78
-61 -160 -9 -36 -29 -88 -45 -116 -16 -29 -39 -90 -50 -136 -12 -45 -36 -110
-54 -143 -18 -33 -41 -94 -51 -135 -9 -41 -32 -102 -50 -135 -18 -33 -42 -97
-54 -142 -11 -45 -34 -106 -51 -137 -22 -38 -39 -93 -56 -173 -22 -110 -24
-140 -24 -441 0 -356 5 -397 52 -437 l30 -25 3328 0 3328 0 30 25 c47 40 52
81 52 437 0 301 -2 331 -24 441 -17 80 -34 135 -56 173 -17 31 -40 92 -51 137
-12 45 -36 109 -54 142 -18 33 -41 94 -50 135 -10 41 -33 102 -51 135 -18 33
-42 98 -54 143 -11 46 -34 107 -50 136 -16 28 -36 80 -45 116 -20 82 -33 116
-61 160 -12 19 -34 79 -48 132 -14 54 -37 115 -50 135 -14 21 -36 80 -50 131
-13 50 -38 116 -54 145 -17 28 -40 90 -51 136 -12 46 -34 107 -50 135 -16 28
-39 89 -51 136 -12 47 -35 109 -51 137 -17 29 -41 93 -54 143 -14 49 -38 113
-54 142 -16 29 -38 90 -49 135 -11 44 -32 100 -47 122 -14 23 -36 81 -49 129
-13 48 -40 119 -59 157 -22 42 -41 96 -47 135 -5 36 -10 228 -10 428 0 486
-12 460 219 464 l154 3 21 28 c20 28 21 38 21 409 l0 380 -24 19 c-23 19 -77
19 -2531 19 -2454 0 -2508 0 -2531 -19z m3453 -1960 c18 -15 53 -41 78 -56 96
-60 277 -236 338 -328 19 -29 45 -63 58 -77 12 -14 32 -51 44 -82 11 -31 29
-67 39 -80 29 -37 42 -66 62 -140 11 -38 30 -91 43 -117 35 -69 45 -114 61
-286 18 -183 14 -202 -50 -223 -58 -19 -1039 -13 -1075 7 -49 27 -70 55 -95
131 -19 58 -39 92 -75 135 -28 31 -53 67 -56 81 -11 44 16 143 54 192 19 25
48 75 64 111 16 36 38 75 48 86 10 11 34 54 53 95 19 41 44 83 55 94 12 10 33
49 47 86 14 37 35 76 47 86 11 11 38 55 59 99 22 44 55 103 74 130 67 98 75
101 127 56z m-1711 -57 c35 -18 43 -29 74 -105 14 -37 37 -77 50 -89 13 -12
33 -48 46 -79 12 -31 35 -73 51 -93 16 -21 42 -68 59 -105 17 -38 39 -77 49
-88 10 -11 33 -51 50 -90 17 -38 42 -81 55 -95 13 -14 35 -53 49 -88 14 -35
36 -77 50 -93 34 -40 33 -58 -9 -110 -19 -24 -35 -49 -35 -54 0 -6 -18 -33
-41 -60 -54 -65 -58 -74 -75 -163 -17 -94 -34 -112 -108 -112 -555 -4 -1078 0
-1094 9 -29 15 -35 43 -33 141 4 188 27 322 70 408 15 31 34 82 41 112 14 61
32 100 65 145 12 17 30 54 40 83 9 30 30 68 45 85 15 18 36 46 47 64 17 28 95
112 208 222 22 21 54 46 70 54 17 8 41 27 55 42 14 15 52 40 84 56 62 29 84
30 137 3z m943 -1135 c29 -14 105 -109 128 -159 6 -14 11 -54 11 -90 0 -75 -7
-93 -66 -175 -54 -75 -100 -94 -227 -94 -127 0 -173 19 -227 94 -58 80 -63 95
-63 175 0 78 10 110 48 156 15 18 37 47 50 63 15 20 37 33 65 40 60 14 245 8
281 -10z m-239 -693 c22 -8 60 -15 85 -15 25 0 63 7 85 15 71 28 96 27 146 -5
39 -25 50 -40 73 -98 15 -37 38 -79 51 -93 13 -14 38 -56 55 -95 17 -38 40
-79 50 -90 10 -11 32 -50 49 -88 17 -37 43 -84 59 -105 16 -20 39 -62 51 -93
13 -31 33 -67 46 -79 13 -12 36 -52 50 -89 15 -36 37 -77 49 -91 51 -55 43
-82 -40 -131 -31 -19 -73 -44 -93 -56 -63 -38 -478 -113 -622 -113 -41 0 -117
10 -169 21 -52 11 -160 31 -240 45 -131 21 -155 29 -250 76 -58 29 -113 59
-122 67 -25 20 -22 54 6 88 14 16 36 59 51 95 14 36 37 76 50 88 13 12 33 48
46 79 12 31 35 73 51 93 16 21 42 68 59 105 17 38 39 77 49 88 10 11 33 52 50
90 17 39 42 81 55 95 13 14 36 56 51 93 23 58 34 73 73 98 50 32 75 33 146 5z"/>
</g>
</svg>
