<?xml version="1.0" standalone="no"?>
<!DOCTYPE svg PUBLIC "-//W3C//DTD SVG 20010904//EN"
 "http://www.w3.org/TR/2001/REC-SVG-20010904/DTD/svg10.dtd">
<svg version="1.0" xmlns="http://www.w3.org/2000/svg"
 width="200.000000pt" height="200.000000pt" viewBox="0 0 200.000000 200.000000"
 preserveAspectRatio="xMidYMid meet">
<metadata>
Created by potrace 1.15, written by Peter Selinger 2001-2017
</metadata>
<g transform="translate(0.000000,200.000000) scale(0.100000,-0.100000)"
fill="#000000" stroke="none">
<path d="M1260 1990 c0 -5 -10 -10 -21 -10 -40 0 -163 -68 -215 -118 -45 -43
-59 -51 -105 -57 -30 -4 -72 -16 -95 -26 -62 -30 -133 -108 -154 -170 -25 -73
-17 -81 79 -77 72 3 76 4 89 31 22 47 81 77 173 90 80 12 83 13 101 49 30 57
141 118 216 118 51 0 60 28 46 134 l-7 46 -53 0 c-30 0 -54 -4 -54 -10z"/>
<path d="M1637 1835 c-52 -62 -130 -99 -257 -122 l-45 -8 -3 -79 c-2 -44 1
-82 5 -86 9 -8 148 11 198 28 89 28 188 90 241 150 30 34 57 102 52 133 -3 23
-8 24 -78 27 l-75 3 -38 -46z"/>
<path d="M494 1407 c-3 -8 -4 -47 -2 -88 l3 -74 38 -3 37 -3 0 -88 c0 -63 -5
-102 -19 -137 -18 -46 -36 -94 -110 -291 -16 -43 -48 -127 -72 -188 -44 -111
-60 -209 -45 -270 l6 -25 664 0 c596 0 664 2 670 16 3 9 6 43 6 77 -1 62 -12
101 -88 302 -17 44 -44 116 -60 160 -17 44 -46 123 -66 175 -31 82 -36 107
-36 182 l0 87 38 3 37 3 0 85 0 85 -498 3 c-411 2 -498 0 -503 -11z m725 -419
c24 -24 54 -65 66 -93 25 -55 41 -135 28 -135 -4 0 -54 -3 -110 -6 l-102 -5
-26 41 -26 41 37 67 c55 101 75 132 83 132 4 0 27 -19 50 -42z m-323 -67 l52
-94 -22 -43 -21 -44 -115 3 -115 2 3 44 c4 44 38 132 64 161 26 30 81 71 91
67 6 -2 34 -45 63 -96z m136 -138 c34 -31 11 -93 -35 -93 -27 0 -57 28 -57 53
0 48 56 73 92 40z m64 -221 c30 -52 54 -95 54 -97 0 -3 -15 -12 -32 -22 -44
-23 -188 -23 -241 0 l-38 16 17 33 c9 18 34 63 55 99 l38 66 47 -1 46 -1 54
-93z"/>
</g>
</svg>
