<?xml version="1.0" standalone="no"?>
<!DOCTYPE svg PUBLIC "-//W3C//DTD SVG 20010904//EN"
 "http://www.w3.org/TR/2001/REC-SVG-20010904/DTD/svg10.dtd">
<svg version="1.0" xmlns="http://www.w3.org/2000/svg"
 width="200.000000pt" height="200.000000pt" viewBox="0 0 200.000000 200.000000"
 preserveAspectRatio="xMidYMid meet">
<metadata>
Created by potrace 1.15, written by Peter Selinger 2001-2017
</metadata>
<g transform="translate(0.000000,200.000000) scale(0.100000,-0.100000)"
fill="#000000" stroke="none">
<path d="M885 1904 c-150 -19 -201 -35 -324 -100 -116 -60 -201 -130 -284
-235 -109 -136 -166 -270 -194 -459 -35 -238 37 -493 194 -689 83 -105 168
-175 284 -235 125 -66 175 -81 329 -100 86 -11 124 -11 210 0 155 19 204 34
329 100 392 205 577 666 440 1097 -48 151 -162 320 -286 421 -62 52 -215 139
-276 158 -82 25 -138 36 -202 42 -38 4 -81 8 -95 10 -14 2 -70 -2 -125 -10z
m327 -195 c134 -44 236 -107 321 -198 75 -82 113 -138 146 -219 49 -119 56
-159 56 -302 0 -113 -4 -146 -23 -202 -47 -142 -93 -219 -191 -321 -79 -83
-183 -145 -316 -188 -60 -20 -91 -23 -210 -23 -118 0 -151 3 -211 23 -254 82
-419 248 -506 506 -20 60 -23 90 -23 210 0 152 13 209 75 340 37 77 140 202
208 251 104 76 231 131 337 145 94 12 266 1 337 -22z"/>
<path d="M614 1431 c-74 -61 -117 -119 -157 -211 -28 -65 -50 -164 -45 -205
l3 -30 165 -3 c91 -1 175 0 186 3 16 3 23 15 28 44 4 27 20 55 52 90 32 36 44
56 39 69 -6 18 -96 172 -147 255 -17 26 -35 47 -42 47 -6 0 -43 -27 -82 -59z"/>
<path d="M1252 1443 c-51 -83 -141 -237 -147 -255 -5 -13 7 -33 39 -69 32 -35
48 -63 52 -90 5 -29 12 -41 28 -44 11 -3 95 -4 186 -3 l165 3 3 42 c7 94 -67
266 -154 355 -49 51 -120 108 -134 108 -5 0 -21 -21 -38 -47z"/>
<path d="M945 1082 c-44 -28 -57 -48 -59 -92 -1 -51 29 -92 77 -104 77 -20
143 29 141 105 -2 45 -24 75 -71 95 -42 18 -52 18 -88 -4z"/>
<path d="M802 649 c-51 -83 -92 -158 -92 -165 0 -16 16 -25 100 -54 94 -34
276 -34 370 0 84 29 100 38 100 54 0 7 -41 82 -92 165 -87 146 -92 152 -117
144 -14 -4 -48 -7 -76 -7 -27 0 -62 3 -76 7 -25 8 -30 2 -117 -144z"/>
</g>
</svg>
