<?xml version="1.0" standalone="no"?>
<!DOCTYPE svg PUBLIC "-//W3C//DTD SVG 20010904//EN"
 "http://www.w3.org/TR/2001/REC-SVG-20010904/DTD/svg10.dtd">
<svg version="1.0" xmlns="http://www.w3.org/2000/svg"
 width="1024.000000pt" height="1024.000000pt" viewBox="0 0 1024.000000 1024.000000"
 preserveAspectRatio="xMidYMid meet">
<metadata>
Created by potrace 1.13, written by Peter Selinger 2001-2015
</metadata>
<g transform="translate(0.000000,1024.000000) scale(0.100000,-0.100000)"
fill="#000000" stroke="none">
<path d="M4915 8939 c-44 -5 -196 -15 -337 -23 l-257 -15 -118 -40 c-65 -22
-161 -47 -213 -56 -56 -9 -124 -29 -170 -49 -41 -19 -111 -41 -155 -50 -52
-11 -100 -28 -135 -50 -30 -18 -85 -43 -122 -55 -37 -12 -83 -35 -102 -50 -19
-15 -63 -38 -98 -50 -35 -13 -80 -37 -102 -53 -21 -17 -61 -39 -90 -50 -28
-11 -68 -33 -89 -49 -20 -17 -61 -41 -90 -53 -28 -13 -61 -34 -72 -46 -11 -12
-45 -35 -76 -50 -30 -16 -75 -45 -99 -65 -24 -20 -61 -45 -82 -56 -21 -11 -44
-29 -51 -40 -6 -11 -28 -30 -47 -41 -52 -32 -222 -196 -380 -368 -47 -51 -104
-112 -128 -136 -23 -24 -50 -57 -60 -72 -9 -16 -32 -44 -51 -63 -42 -43 -91
-107 -139 -183 -20 -32 -51 -75 -68 -95 -17 -20 -39 -52 -49 -71 -10 -19 -31
-50 -47 -68 -16 -19 -40 -59 -54 -90 -14 -32 -39 -74 -55 -95 -17 -21 -40 -64
-51 -97 -11 -33 -33 -76 -49 -96 -16 -21 -36 -62 -44 -93 -8 -31 -33 -90 -54
-131 -21 -41 -46 -109 -56 -150 -10 -41 -33 -105 -51 -141 -20 -41 -40 -104
-52 -170 -11 -57 -34 -142 -51 -188 -24 -64 -36 -122 -51 -251 -11 -91 -29
-222 -40 -291 -44 -261 -44 -687 -1 -924 11 -60 29 -183 41 -273 16 -128 27
-181 54 -250 19 -48 41 -125 50 -172 9 -48 30 -114 50 -155 19 -38 42 -99 51
-135 9 -36 31 -90 49 -120 18 -30 43 -85 55 -121 12 -36 35 -84 52 -107 16
-22 38 -66 49 -98 11 -32 36 -78 55 -102 19 -24 39 -61 46 -81 6 -20 28 -58
49 -86 20 -27 46 -70 57 -95 11 -25 32 -59 47 -75 16 -17 35 -43 43 -60 23
-46 54 -75 79 -75 39 0 129 39 155 66 13 15 53 46 89 70 72 49 136 97 193 145
21 17 59 45 85 61 123 77 153 154 88 225 -18 21 -47 65 -64 99 -17 33 -38 67
-48 75 -9 8 -32 47 -51 87 -18 41 -44 88 -57 105 -14 18 -36 63 -49 100 -14
37 -37 85 -52 107 -15 21 -37 74 -50 118 -13 43 -37 103 -53 133 -20 35 -38
90 -51 156 -11 56 -31 128 -45 160 -33 81 -43 134 -62 339 -20 227 -20 579 0
835 18 227 26 271 60 363 14 36 35 117 46 178 14 71 33 133 52 172 17 34 41
100 54 147 13 48 37 109 54 135 17 27 38 73 46 101 8 29 31 76 50 104 20 28
44 71 55 96 11 25 31 59 45 76 14 16 38 55 54 86 15 31 40 67 55 81 15 14 34
39 42 55 9 17 33 50 55 75 22 25 56 66 76 92 169 215 372 419 515 517 26 17
58 43 72 57 14 14 41 32 60 40 19 7 50 27 68 44 19 17 61 42 93 56 33 15 73
39 89 55 17 15 57 37 90 49 33 12 77 36 98 52 21 16 64 38 96 49 32 11 82 35
111 54 34 22 81 40 129 51 42 9 110 32 153 50 48 22 118 42 190 54 62 12 141
30 175 41 96 31 227 48 476 60 370 17 773 -9 930 -60 34 -11 113 -29 175 -41
72 -12 142 -32 190 -54 43 -18 111 -41 153 -50 48 -11 95 -29 129 -51 29 -19
79 -43 111 -54 32 -11 75 -33 96 -49 21 -16 65 -40 98 -52 33 -12 74 -34 90
-49 17 -16 56 -40 89 -55 32 -14 74 -39 93 -56 18 -17 49 -37 68 -44 19 -8 46
-26 60 -40 14 -14 46 -40 72 -57 143 -98 346 -302 515 -517 20 -26 54 -67 76
-92 22 -25 46 -58 55 -75 8 -16 27 -41 42 -55 15 -14 40 -50 55 -81 16 -31 40
-70 54 -86 14 -17 34 -51 45 -76 11 -25 35 -68 55 -96 19 -28 42 -75 50 -104
8 -28 29 -74 46 -101 17 -26 41 -87 54 -135 13 -47 37 -113 54 -147 19 -39 38
-101 52 -172 11 -61 32 -142 46 -178 34 -92 42 -136 60 -363 20 -256 20 -608
0 -835 -19 -205 -29 -258 -62 -339 -14 -32 -34 -104 -45 -160 -13 -66 -31
-121 -51 -156 -16 -30 -40 -90 -53 -133 -13 -44 -35 -97 -50 -118 -15 -22 -38
-70 -52 -107 -13 -37 -35 -82 -49 -100 -13 -17 -39 -64 -57 -105 -19 -40 -42
-79 -51 -87 -10 -8 -31 -42 -48 -75 -17 -34 -46 -78 -64 -99 -48 -53 -47 -100
4 -155 20 -22 58 -53 84 -70 26 -16 64 -44 85 -61 57 -48 121 -96 193 -145 36
-24 76 -55 89 -70 26 -27 116 -66 155 -66 25 0 56 29 79 75 8 17 27 43 43 60
15 16 36 50 47 75 11 25 33 62 49 82 15 20 40 62 53 93 14 31 39 73 55 93 16
21 38 63 49 95 11 32 34 77 50 99 17 23 40 71 52 107 12 36 37 91 55 121 18
30 40 84 49 120 9 36 32 97 51 135 20 41 41 107 50 155 9 47 31 124 50 172 27
69 38 122 54 250 12 90 30 213 41 273 43 237 43 663 -1 924 -11 69 -29 200
-40 291 -15 129 -27 187 -51 251 -17 46 -40 131 -51 188 -12 66 -32 129 -52
170 -18 36 -41 100 -51 141 -10 41 -35 109 -56 150 -21 41 -46 100 -54 131 -8
31 -28 72 -44 93 -16 20 -38 63 -49 96 -11 33 -34 76 -51 97 -16 21 -41 63
-55 95 -14 31 -38 71 -54 90 -16 18 -37 49 -47 68 -10 19 -32 51 -49 71 -17
20 -48 63 -68 95 -48 76 -97 140 -139 183 -19 19 -42 47 -51 63 -10 15 -37 48
-60 72 -24 24 -81 85 -128 136 -158 172 -328 336 -380 368 -19 11 -41 30 -47
41 -7 11 -30 29 -51 40 -21 11 -58 36 -82 56 -24 20 -69 49 -99 65 -31 15 -65
38 -76 50 -11 12 -44 33 -72 46 -29 12 -70 36 -90 53 -21 16 -61 38 -89 49
-29 11 -69 33 -90 50 -22 16 -67 40 -102 53 -35 12 -79 35 -98 50 -19 15 -65
38 -102 50 -37 12 -92 37 -122 55 -35 22 -83 39 -135 50 -44 9 -114 31 -155
50 -46 20 -114 40 -170 49 -52 9 -148 34 -213 56 l-117 40 -258 15 c-141 8
-301 19 -356 24 -113 12 -276 11 -391 -1z"/>
<path d="M6644 6808 c-20 -18 -340 -334 -710 -703 -369 -368 -696 -687 -725
-707 -34 -25 -64 -38 -85 -38 -61 0 -279 -42 -305 -58 -176 -113 -167 -106
-241 -207 -37 -50 -64 -103 -94 -187 -68 -188 -67 -244 8 -459 40 -113 89
-178 224 -300 61 -54 300 -133 404 -133 104 0 343 79 404 133 132 119 190 195
217 284 12 40 28 84 35 99 8 16 19 65 25 110 6 46 13 99 15 118 5 31 96 125
719 750 626 628 714 720 720 752 l7 37 -271 270 c-173 173 -278 271 -290 271
-11 0 -37 -15 -57 -32z"/>
</g>
</svg>
