<?xml version="1.0" standalone="no"?>
<!DOCTYPE svg PUBLIC "-//W3C//DTD SVG 20010904//EN"
 "http://www.w3.org/TR/2001/REC-SVG-20010904/DTD/svg10.dtd">
<svg version="1.0" xmlns="http://www.w3.org/2000/svg"
 width="200.000000pt" height="200.000000pt" viewBox="0 0 200.000000 200.000000"
 preserveAspectRatio="xMidYMid meet">
<metadata>
Created by potrace 1.15, written by Peter Selinger 2001-2017
</metadata>
<g transform="translate(0.000000,200.000000) scale(0.100000,-0.100000)"
fill="#000000" stroke="none">
<path d="M865 1740 c-33 -4 -76 -12 -95 -18 -19 -6 -46 -14 -60 -18 -29 -9
-162 -78 -205 -107 -48 -32 -170 -161 -212 -224 -43 -64 -83 -145 -83 -167 0
-8 -4 -17 -9 -20 -5 -3 -11 -18 -14 -33 -30 -152 -37 -196 -37 -247 0 -64 16
-170 31 -198 5 -10 9 -25 9 -33 0 -8 4 -23 9 -33 5 -9 24 -48 42 -87 18 -38
44 -87 57 -107 22 -34 26 -36 46 -25 59 34 116 83 116 100 0 10 -13 37 -28 60
-26 39 -53 100 -81 188 -13 42 -15 233 -2 275 5 16 15 49 22 74 33 112 127
247 217 313 61 45 158 97 181 97 10 0 21 3 25 7 15 15 123 32 201 32 78 0 186
-17 201 -32 4 -4 15 -7 25 -7 20 0 111 -47 173 -89 70 -49 177 -185 205 -261
7 -19 17 -44 21 -55 27 -64 39 -285 20 -350 -32 -107 -44 -134 -82 -192 -15
-23 -28 -50 -28 -60 0 -17 57 -66 116 -100 20 -11 24 -9 46 25 22 35 81 154
98 197 27 70 50 192 50 262 0 76 -25 215 -51 281 -53 134 -92 198 -178 293
-89 98 -237 195 -351 228 -25 7 -55 17 -67 22 -32 12 -258 19 -328 9z"/>
<path d="M1151 1196 c-116 -116 -151 -146 -180 -151 -67 -13 -121 -74 -121
-137 0 -59 83 -138 145 -138 61 0 145 79 145 136 0 11 59 78 140 159 77 77
140 145 140 152 0 11 -102 114 -119 121 -3 1 -71 -63 -150 -142z"/>
</g>
</svg>
