<?xml version="1.0" standalone="no"?>
<!DOCTYPE svg PUBLIC "-//W3C//DTD SVG 20010904//EN"
 "http://www.w3.org/TR/2001/REC-SVG-20010904/DTD/svg10.dtd">
<svg version="1.0" xmlns="http://www.w3.org/2000/svg"
 width="200.000000pt" height="200.000000pt" viewBox="0 0 200.000000 200.000000"
 preserveAspectRatio="xMidYMid meet">
<metadata>
Created by potrace 1.15, written by Peter Selinger 2001-2017
</metadata>
<g transform="translate(0.000000,200.000000) scale(0.100000,-0.100000)"
fill="#000000" stroke="none">
<path d="M450 1823 c-14 -3 -40 -16 -58 -29 -65 -50 -62 -11 -62 -799 l0 -715
25 -40 c49 -78 22 -75 640 -75 618 0 591 -3 640 75 l25 40 0 715 c0 794 4 748
-67 802 l-36 28 -541 1 c-298 1 -552 0 -566 -3z m662 -265 c103 -22 215 -123
270 -243 19 -42 23 -67 23 -156 0 -100 -2 -108 -35 -173 -47 -94 -110 -158
-195 -198 -61 -29 -82 -33 -165 -36 -78 -3 -105 0 -150 17 -93 36 -92 28 -32
141 78 146 62 160 -89 84 -68 -33 -94 -42 -104 -34 -7 6 -23 42 -35 80 -47
147 -8 304 104 416 107 106 239 139 408 102z"/>
<path d="M931 1214 c-26 -33 -27 -75 -2 -105 15 -19 29 -24 66 -24 37 0 51 5
66 24 25 30 24 72 -2 105 -16 21 -29 26 -64 26 -35 0 -48 -5 -64 -26z"/>
</g>
</svg>
