<?xml version="1.0" standalone="no"?>
<!DOCTYPE svg PUBLIC "-//W3C//DTD SVG 20010904//EN"
 "http://www.w3.org/TR/2001/REC-SVG-20010904/DTD/svg10.dtd">
<svg version="1.0" xmlns="http://www.w3.org/2000/svg"
 width="1024.000000pt" height="1024.000000pt" viewBox="0 0 1024.000000 1024.000000"
 preserveAspectRatio="xMidYMid meet">
<metadata>
Created by potrace 1.13, written by Peter Selinger 2001-2015
</metadata>
<g transform="translate(0.000000,1024.000000) scale(0.100000,-0.100000)"
fill="#000000" stroke="none">
<path d="M2575 9389 c-33 -3 -89 -15 -125 -27 -52 -17 -221 -52 -252 -52 -3 0
-25 -16 -49 -36 -24 -19 -64 -46 -90 -59 -56 -29 -192 -179 -220 -243 -10 -23
-32 -59 -48 -80 -37 -45 -57 -126 -71 -283 -14 -157 -14 -6821 0 -6978 14
-157 34 -238 71 -283 16 -21 38 -57 48 -80 28 -64 164 -214 220 -243 26 -13
66 -40 90 -59 24 -20 46 -36 49 -36 32 0 203 -36 265 -56 l79 -24 2578 0 2578
0 79 24 c62 20 233 56 265 56 3 0 25 16 49 36 24 19 64 46 90 59 56 29 192
179 220 243 10 23 32 59 48 80 37 45 57 126 71 283 14 157 14 6821 0 6978 -14
157 -34 238 -71 283 -16 21 -38 57 -48 80 -28 64 -164 214 -220 243 -26 13
-66 40 -90 59 -24 20 -46 36 -49 36 -31 0 -203 36 -267 56 l-80 25 -2530 2
c-1392 1 -2557 -1 -2590 -4z m2925 -1310 c41 -6 109 -24 150 -41 41 -16 117
-38 169 -49 64 -13 110 -29 142 -49 25 -17 74 -41 107 -54 33 -13 76 -35 94
-49 18 -14 62 -39 98 -56 35 -17 78 -44 95 -60 16 -16 41 -34 55 -41 73 -38
325 -293 365 -369 8 -17 24 -35 35 -41 11 -6 31 -33 45 -60 14 -27 38 -65 55
-84 17 -18 41 -58 54 -87 13 -30 38 -72 55 -93 17 -22 39 -64 47 -95 9 -31 32
-81 50 -111 23 -38 40 -85 54 -150 11 -52 31 -128 45 -168 37 -108 45 -182 45
-447 0 -269 -8 -341 -49 -470 -16 -49 -38 -129 -49 -176 -11 -48 -32 -104 -46
-125 -14 -22 -35 -66 -46 -99 -11 -33 -34 -79 -51 -102 -16 -23 -41 -67 -54
-97 -14 -31 -39 -72 -58 -93 -18 -21 -46 -59 -61 -85 -15 -27 -30 -48 -34 -48
-4 0 -23 -24 -41 -52 -71 -109 -231 -275 -324 -336 -29 -18 -63 -44 -77 -57
-14 -13 -42 -30 -64 -39 -21 -9 -53 -29 -71 -45 -18 -16 -60 -39 -92 -51 -32
-12 -80 -37 -108 -55 -32 -22 -80 -42 -134 -55 -46 -12 -106 -32 -133 -46 -67
-34 -150 -51 -313 -64 -77 -6 -167 -15 -200 -20 -78 -13 -179 -13 -263 0 -37
5 -148 16 -247 25 -176 15 -182 16 -260 54 -44 22 -102 45 -128 51 -62 13
-111 34 -143 59 -14 11 -51 30 -82 41 -69 26 -102 55 -102 89 0 14 13 53 28
86 16 33 34 77 41 98 7 20 27 58 45 85 18 26 40 70 49 97 10 28 35 79 57 115
22 36 45 81 50 101 5 20 27 63 49 96 21 32 46 83 55 111 10 29 33 74 51 101
40 57 55 107 55 179 0 64 -25 94 -90 112 -37 10 -50 8 -133 -21 -50 -18 -111
-47 -136 -64 -25 -18 -68 -39 -96 -49 -27 -9 -84 -37 -125 -61 -41 -25 -81
-45 -90 -45 -9 0 -43 -16 -76 -36 -32 -20 -93 -51 -135 -69 -42 -18 -92 -44
-110 -57 -36 -27 -148 -68 -184 -68 -42 0 -129 124 -166 236 -15 46 -37 97
-48 113 -12 16 -28 58 -36 93 -25 112 -55 231 -76 308 -18 63 -22 113 -26 310
-6 262 2 357 42 471 14 41 34 117 45 169 14 65 31 112 54 150 18 30 41 80 50
111 8 31 30 73 47 95 17 21 42 63 55 93 13 29 37 69 54 87 17 19 41 57 55 84
14 27 34 54 45 60 11 6 27 24 35 41 40 76 292 331 365 369 14 7 39 25 55 41
17 16 60 43 95 60 36 17 80 42 98 56 18 14 61 36 94 49 33 13 82 37 107 54 32
20 78 36 144 50 53 10 123 31 156 44 85 37 139 47 291 56 158 10 523 3 630
-11z"/>
<path d="M4952 6355 c-51 -12 -97 -26 -102 -31 -30 -32 -116 -155 -128 -184
-19 -43 -22 -265 -4 -325 6 -22 24 -53 38 -70 14 -16 37 -47 50 -67 13 -21 25
-38 27 -38 3 0 157 -56 202 -73 51 -20 119 -20 170 0 45 17 199 73 202 73 2 0
14 17 27 38 13 20 36 51 50 67 39 45 50 96 50 235 0 146 -5 160 -89 273 -46
61 -66 79 -94 87 -180 47 -258 50 -399 15z"/>
</g>
</svg>
