<?xml version="1.0" standalone="no"?>
<!DOCTYPE svg PUBLIC "-//W3C//DTD SVG 20010904//EN"
 "http://www.w3.org/TR/2001/REC-SVG-20010904/DTD/svg10.dtd">
<svg version="1.0" xmlns="http://www.w3.org/2000/svg"
 width="1024.000000pt" height="1024.000000pt" viewBox="0 0 1024.000000 1024.000000"
 preserveAspectRatio="xMidYMid meet">
<metadata>
Created by potrace 1.13, written by Peter Selinger 2001-2015
</metadata>
<g transform="translate(0.000000,1024.000000) scale(0.100000,-0.100000)"
fill="#000000" stroke="none">
<path d="M5040 9380 c-19 -4 -69 -14 -110 -23 -41 -9 -127 -21 -190 -27 -154
-15 -194 -25 -245 -60 -24 -16 -73 -41 -110 -54 -37 -13 -79 -36 -94 -49 -14
-14 -53 -37 -85 -51 -32 -15 -78 -44 -102 -66 -24 -22 -48 -40 -54 -40 -5 0
-46 -37 -90 -82 -44 -46 -95 -99 -114 -118 -18 -19 -42 -48 -52 -65 -10 -16
-33 -47 -52 -69 -19 -21 -43 -59 -55 -85 -11 -25 -35 -63 -53 -85 -18 -21 -43
-66 -54 -100 -11 -33 -34 -80 -50 -104 -18 -27 -35 -73 -45 -120 -9 -42 -28
-117 -41 -167 -14 -49 -27 -107 -30 -130 -3 -22 -6 -614 -7 -1315 -2 -1464 12
-1291 -117 -1435 -44 -49 -95 -110 -113 -134 -18 -25 -43 -54 -55 -65 -13 -12
-35 -39 -48 -62 -13 -22 -35 -51 -50 -65 -14 -13 -36 -44 -49 -69 -13 -25 -37
-63 -55 -85 -18 -22 -45 -67 -61 -100 -16 -33 -40 -75 -53 -93 -14 -18 -34
-61 -45 -96 -11 -35 -34 -86 -50 -113 -18 -28 -40 -90 -55 -148 -13 -55 -36
-132 -50 -171 -40 -110 -49 -235 -43 -603 5 -341 12 -403 55 -501 11 -25 30
-89 41 -143 13 -62 32 -119 51 -152 17 -30 42 -85 55 -124 13 -39 35 -85 49
-103 13 -18 38 -62 54 -98 16 -36 37 -71 46 -79 10 -8 33 -44 51 -80 18 -36
45 -77 60 -91 15 -14 35 -41 45 -60 10 -19 28 -44 40 -55 12 -11 36 -40 53
-65 78 -114 250 -292 347 -359 31 -22 62 -46 70 -56 7 -9 32 -26 54 -37 23
-11 55 -33 71 -48 17 -16 53 -38 82 -49 28 -11 72 -36 97 -55 25 -19 68 -42
96 -51 27 -9 73 -32 100 -51 34 -23 77 -40 136 -54 48 -11 117 -34 155 -50 81
-36 117 -43 314 -65 83 -9 202 -25 266 -35 145 -25 193 -25 338 0 64 10 184
26 266 35 197 22 233 29 314 65 38 16 107 39 155 50 59 14 102 31 136 54 27
19 73 42 100 51 28 9 71 32 96 51 25 19 69 44 97 55 29 11 66 33 82 49 17 15
48 37 71 48 22 11 47 28 54 37 8 10 39 34 70 56 97 67 269 245 347 359 17 25
41 54 53 65 12 11 30 36 40 55 10 19 30 46 45 60 15 14 42 55 60 91 18 36 41
72 51 80 9 8 30 43 46 79 16 36 41 80 54 98 14 18 36 64 49 103 13 39 38 94
55 124 19 33 38 90 51 152 11 54 30 118 41 143 42 96 50 162 55 475 6 365 -3
477 -51 619 -19 55 -42 136 -50 179 -16 80 -26 105 -57 146 -11 13 -28 54 -39
91 -11 37 -34 86 -50 109 -17 23 -42 67 -56 99 -14 31 -36 68 -48 82 -13 14
-36 50 -51 80 -15 30 -44 73 -64 96 -20 22 -44 54 -53 70 -10 16 -47 63 -83
104 -36 41 -65 82 -65 90 0 8 10 22 23 30 18 12 76 16 313 18 289 3 292 3 313
26 22 23 22 26 19 399 l-3 376 -23 23 -23 23 -364 1 c-297 1 -367 4 -381 15
-29 24 -46 80 -51 174 -7 110 8 183 44 216 l25 24 365 5 366 5 21 28 c20 28
21 38 21 409 l0 380 -24 19 c-22 18 -44 19 -383 19 -403 0 -407 1 -429 67 -9
27 -10 90 -6 229 7 224 -2 336 -37 459 -13 50 -32 125 -41 167 -10 47 -27 93
-45 120 -16 24 -39 71 -50 104 -11 34 -36 79 -54 100 -18 22 -42 60 -53 85
-12 26 -36 64 -55 85 -19 22 -42 53 -52 69 -10 17 -34 46 -52 65 -19 19 -70
72 -114 118 -44 45 -85 82 -90 82 -6 0 -30 18 -54 40 -24 22 -70 51 -102 66
-32 14 -71 37 -85 51 -15 13 -57 36 -94 49 -37 13 -86 38 -110 54 -50 35 -91
45 -243 60 -113 11 -146 16 -277 44 -74 17 -128 18 -185 6z m266 -874 c126
-13 200 -36 219 -66 4 -6 32 -22 62 -35 76 -34 212 -173 258 -265 19 -38 40
-72 46 -75 18 -12 39 -72 55 -159 21 -112 31 -529 15 -579 -23 -69 -4 -67
-638 -67 -623 -1 -595 2 -613 -61 -6 -21 -10 -544 -10 -1371 0 -918 -3 -1346
-11 -1365 -5 -15 -23 -41 -38 -58 -15 -16 -37 -46 -49 -66 -12 -19 -31 -44
-43 -55 -12 -10 -34 -44 -49 -74 -15 -30 -42 -72 -58 -93 -17 -21 -38 -62 -48
-90 -9 -29 -34 -86 -55 -127 -33 -64 -41 -93 -55 -200 -22 -166 -22 -419 0
-579 17 -126 30 -171 64 -219 11 -15 29 -57 41 -94 12 -37 36 -84 53 -105 16
-21 39 -56 50 -78 11 -22 38 -59 59 -82 22 -24 39 -47 39 -53 0 -18 171 -200
218 -232 26 -17 61 -44 77 -59 17 -15 53 -38 80 -50 28 -12 69 -37 93 -54 27
-22 67 -39 115 -50 39 -10 110 -32 157 -50 101 -39 122 -43 305 -55 148 -9
195 -20 195 -44 0 -15 -48 -46 -71 -46 -7 0 -58 -23 -114 -50 l-101 -50 -204
-17 c-173 -13 -231 -14 -375 -4 -208 15 -272 25 -350 58 -33 14 -102 36 -154
49 -64 17 -107 34 -140 57 -25 19 -66 42 -91 51 -25 10 -67 35 -95 56 -27 21
-63 45 -80 53 -27 15 -131 112 -213 200 -19 20 -47 58 -64 84 -17 26 -43 63
-59 81 -16 18 -36 49 -44 68 -8 19 -29 53 -47 74 -19 21 -42 62 -52 92 -10 29
-34 79 -53 111 -24 40 -40 85 -53 150 -10 50 -31 133 -46 182 -26 86 -27 99
-26 285 1 140 5 213 17 260 8 36 29 130 45 210 22 105 38 158 59 191 16 26 36
71 46 100 22 67 42 108 65 134 10 11 29 41 43 66 13 26 38 62 55 80 17 19 60
66 94 104 76 85 261 254 327 297 18 13 51 48 72 79 l39 55 3 1440 c3 1271 5
1448 19 1515 18 84 40 143 57 154 6 3 27 37 46 75 46 92 182 231 258 265 30
13 58 29 62 35 18 29 94 53 205 65 155 17 231 17 386 1z"/>
</g>
</svg>
