<?xml version="1.0" standalone="no"?>
<!DOCTYPE svg PUBLIC "-//W3C//DTD SVG 20010904//EN"
 "http://www.w3.org/TR/2001/REC-SVG-20010904/DTD/svg10.dtd">
<svg version="1.0" xmlns="http://www.w3.org/2000/svg"
 width="200.000000pt" height="200.000000pt" viewBox="0 0 200.000000 200.000000"
 preserveAspectRatio="xMidYMid meet">
<metadata>
Created by potrace 1.15, written by Peter Selinger 2001-2017
</metadata>
<g transform="translate(0.000000,200.000000) scale(0.100000,-0.100000)"
fill="#000000" stroke="none">
<path d="M910 1821 c-83 -18 -172 -91 -216 -176 -43 -82 -47 -122 -41 -376 l5
-239 -50 -62 c-89 -112 -118 -186 -118 -309 0 -94 7 -124 52 -215 58 -120 166
-215 296 -261 60 -22 251 -24 302 -4 91 35 150 71 206 127 172 172 203 406 79
600 -18 28 -38 55 -44 58 -25 16 -7 25 52 28 l62 3 0 85 0 85 -77 -2 c-75 -2
-78 -1 -84 23 -12 46 -1 53 83 56 l78 3 0 85 0 85 -80 5 -80 5 3 38 c11 122
-75 272 -191 332 -52 28 -171 41 -237 26z m177 -191 c43 -26 63 -67 70 -145
l6 -64 -124 -3 -124 -3 -3 -273 -2 -274 -28 -41 c-43 -65 -52 -93 -52 -167 0
-74 9 -102 52 -167 47 -69 143 -122 224 -123 l29 -1 -29 -16 c-45 -24 -167
-21 -240 7 -136 52 -219 201 -195 350 13 83 40 133 104 194 l54 51 3 295 c3
327 6 341 71 380 44 27 140 27 184 0z"/>
</g>
</svg>
