<?xml version="1.0" standalone="no"?>
<!DOCTYPE svg PUBLIC "-//W3C//DTD SVG 20010904//EN"
 "http://www.w3.org/TR/2001/REC-SVG-20010904/DTD/svg10.dtd">
<svg version="1.0" xmlns="http://www.w3.org/2000/svg"
 width="1024.000000pt" height="1024.000000pt" viewBox="0 0 1024.000000 1024.000000"
 preserveAspectRatio="xMidYMid meet">
<metadata>
Created by potrace 1.13, written by Peter Selinger 2001-2015
</metadata>
<g transform="translate(0.000000,1024.000000) scale(0.100000,-0.100000)"
fill="#000000" stroke="none">
<path d="M3840 9855 l0 -385 28 -30 c16 -19 43 -35 67 -40 61 -14 2315 -13
2371 1 28 7 54 23 69 41 l25 30 0 384 0 384 -1280 0 -1280 0 0 -385z"/>
<path d="M8138 9422 c-53 -53 -113 -113 -132 -132 -19 -19 -42 -42 -50 -50
-150 -146 -249 -246 -256 -261 -19 -35 -41 -8 223 -281 78 -81 214 -222 302
-314 88 -92 232 -241 320 -331 148 -150 163 -163 196 -163 29 0 43 8 75 43 22
23 114 112 204 197 204 193 279 269 289 295 13 31 -1 54 -80 135 -40 41 -112
116 -159 166 -110 119 -356 379 -538 571 -80 84 -152 162 -160 174 -18 25 -71
49 -109 49 -22 0 -49 -21 -125 -98z"/>
<path d="M4915 8939 c-44 -5 -196 -15 -337 -23 l-257 -15 -118 -40 c-65 -22
-161 -47 -213 -56 -56 -9 -124 -29 -170 -49 -41 -19 -111 -41 -155 -50 -52
-11 -100 -28 -135 -50 -30 -18 -85 -43 -122 -55 -37 -12 -83 -35 -102 -50 -19
-15 -63 -38 -98 -50 -35 -13 -80 -37 -102 -53 -21 -17 -61 -39 -90 -50 -28
-11 -68 -33 -89 -49 -20 -17 -61 -41 -90 -53 -28 -13 -61 -34 -72 -46 -11 -12
-45 -35 -76 -50 -30 -16 -75 -45 -99 -65 -24 -20 -61 -45 -82 -56 -21 -11 -44
-29 -51 -40 -6 -11 -28 -30 -47 -41 -52 -32 -222 -196 -380 -368 -47 -51 -104
-112 -128 -136 -23 -24 -50 -57 -60 -72 -9 -16 -32 -44 -51 -63 -42 -43 -91
-107 -139 -183 -20 -32 -51 -75 -68 -95 -17 -20 -39 -52 -49 -71 -10 -19 -31
-50 -47 -68 -16 -19 -40 -59 -54 -90 -14 -32 -39 -74 -55 -95 -17 -21 -40 -64
-51 -97 -11 -33 -33 -76 -49 -96 -16 -21 -36 -62 -44 -93 -8 -31 -33 -90 -54
-131 -21 -41 -46 -109 -56 -150 -10 -41 -33 -105 -51 -141 -20 -41 -40 -104
-52 -170 -11 -57 -34 -142 -51 -188 -24 -64 -36 -122 -51 -250 -11 -92 -30
-225 -42 -296 -20 -117 -23 -163 -23 -450 0 -301 2 -329 27 -480 15 -88 32
-209 38 -270 14 -133 22 -174 56 -262 14 -37 36 -120 48 -184 15 -73 33 -133
50 -161 14 -24 37 -88 51 -141 14 -54 37 -115 51 -137 14 -21 36 -72 49 -114
13 -41 39 -101 59 -133 19 -32 42 -78 51 -102 8 -24 30 -64 49 -90 18 -25 43
-68 55 -96 12 -27 35 -63 50 -80 16 -16 40 -53 54 -81 14 -27 33 -56 42 -64 9
-7 28 -34 42 -59 15 -25 45 -67 67 -93 23 -26 64 -74 91 -108 297 -363 505
-575 683 -697 26 -17 65 -47 87 -66 22 -19 56 -42 75 -52 19 -10 51 -31 69
-48 19 -16 58 -40 87 -53 29 -13 67 -36 86 -53 19 -16 57 -38 85 -49 28 -11
68 -33 89 -50 22 -17 63 -40 92 -51 30 -11 77 -35 105 -54 29 -19 75 -42 103
-51 27 -9 74 -32 104 -51 31 -20 81 -40 124 -50 39 -9 103 -32 141 -51 45 -22
104 -40 160 -50 50 -8 115 -24 145 -35 149 -54 174 -59 368 -74 189 -15 269
-25 495 -62 132 -21 342 -21 475 0 225 37 305 47 494 62 194 15 219 20 368 74
30 11 95 27 145 35 56 10 115 28 160 50 38 19 102 42 141 51 43 10 93 30 124
50 30 19 77 42 104 51 28 9 74 32 103 51 28 19 75 43 105 54 29 11 70 34 92
51 21 17 61 39 89 50 28 11 66 33 85 49 19 17 57 40 86 53 29 13 68 37 87 53
18 17 50 38 69 48 19 10 53 33 75 52 22 19 61 49 87 66 178 122 386 334 683
697 28 34 68 82 91 108 22 26 52 68 67 93 14 25 33 52 42 59 9 8 28 37 42 64
14 28 38 65 54 81 15 17 38 53 50 80 12 28 37 71 55 96 19 26 41 66 49 90 9
24 32 70 51 102 20 32 46 92 59 133 13 42 35 93 49 114 14 22 37 83 51 137 14
53 37 117 51 141 17 28 35 88 50 161 12 64 34 147 48 184 34 88 42 129 56 262
6 61 23 182 38 270 25 151 27 179 27 480 0 287 -3 333 -23 450 -12 71 -31 204
-42 296 -15 128 -27 186 -51 250 -17 46 -40 131 -51 188 -12 66 -32 129 -52
170 -18 36 -41 100 -51 141 -10 41 -35 109 -56 150 -21 41 -46 100 -54 131 -8
31 -28 72 -44 93 -16 20 -38 63 -49 96 -11 33 -34 76 -51 97 -16 21 -41 63
-55 95 -14 31 -38 71 -54 90 -16 18 -37 49 -47 68 -10 19 -32 51 -49 71 -17
20 -48 63 -68 95 -48 76 -97 140 -139 183 -19 19 -42 47 -51 63 -10 15 -37 48
-60 72 -24 24 -81 85 -128 136 -158 172 -328 336 -380 368 -19 11 -41 30 -47
41 -7 11 -30 29 -51 40 -21 11 -58 36 -82 56 -24 20 -69 49 -99 65 -31 15 -65
38 -76 50 -11 12 -44 33 -72 46 -29 12 -70 36 -90 53 -21 16 -61 38 -89 49
-29 11 -69 33 -90 50 -22 16 -67 40 -102 53 -35 12 -79 35 -98 50 -19 15 -65
38 -102 50 -37 12 -92 37 -122 55 -35 22 -83 39 -135 50 -44 9 -114 31 -155
50 -46 20 -114 40 -170 49 -52 9 -148 34 -213 56 l-117 40 -258 15 c-141 8
-301 19 -356 24 -113 12 -276 11 -391 -1z m455 -849 c219 -10 366 -30 455 -59
33 -11 111 -30 173 -41 72 -12 142 -32 190 -54 43 -18 111 -41 153 -50 48 -11
95 -29 129 -51 29 -19 79 -43 111 -54 32 -11 75 -33 96 -49 21 -16 65 -40 98
-52 33 -12 74 -34 90 -49 17 -16 56 -40 89 -55 32 -14 74 -39 93 -56 18 -17
49 -37 68 -44 19 -8 46 -26 60 -40 14 -14 46 -40 72 -57 143 -98 346 -302 515
-517 20 -26 54 -67 76 -92 22 -25 46 -58 55 -75 8 -16 27 -41 42 -55 15 -14
40 -50 55 -81 16 -31 40 -70 54 -86 14 -17 34 -51 45 -76 11 -25 35 -68 55
-96 19 -28 42 -75 50 -104 8 -28 29 -74 46 -101 17 -26 41 -87 54 -135 13 -47
37 -113 54 -147 19 -39 38 -101 52 -172 11 -61 32 -142 46 -178 34 -92 42
-137 60 -363 19 -251 19 -562 0 -816 -18 -222 -27 -279 -61 -369 -13 -34 -34
-115 -48 -182 -16 -77 -36 -141 -55 -177 -17 -32 -38 -91 -47 -131 -10 -46
-30 -94 -51 -127 -19 -30 -42 -80 -51 -112 -9 -32 -30 -77 -48 -100 -17 -23
-44 -68 -58 -100 -15 -32 -38 -72 -52 -89 -15 -17 -37 -52 -50 -77 -12 -25
-35 -57 -50 -71 -15 -14 -36 -42 -46 -62 -11 -21 -39 -60 -64 -88 -25 -28 -45
-55 -45 -60 0 -5 -21 -32 -47 -60 -27 -27 -70 -75 -98 -107 -73 -82 -315 -323
-326 -323 -5 0 -28 -17 -52 -39 -23 -21 -60 -48 -83 -59 -22 -11 -60 -37 -85
-58 -24 -20 -64 -45 -88 -56 -24 -10 -59 -31 -76 -47 -18 -16 -55 -37 -81 -46
-27 -10 -66 -31 -87 -48 -22 -16 -69 -41 -105 -55 -37 -14 -88 -40 -114 -57
-25 -18 -77 -40 -115 -50 -37 -10 -97 -33 -133 -52 -42 -21 -101 -40 -165 -52
-55 -11 -145 -36 -200 -56 -96 -35 -108 -37 -320 -51 -121 -7 -261 -18 -312
-24 -116 -13 -230 -13 -346 0 -51 6 -191 17 -312 24 -212 14 -224 16 -320 51
-55 20 -145 45 -200 56 -64 12 -123 31 -165 52 -36 19 -96 42 -133 52 -38 10
-90 32 -115 50 -26 17 -77 43 -114 57 -36 14 -83 39 -105 55 -21 17 -60 38
-87 48 -26 9 -63 30 -81 46 -17 16 -52 37 -76 47 -24 11 -64 36 -88 56 -25 21
-63 47 -85 58 -23 11 -60 38 -83 59 -24 22 -47 39 -52 39 -11 0 -253 241 -326
323 -27 32 -71 80 -97 107 -27 28 -48 55 -48 60 0 5 -20 32 -45 60 -25 28 -53
67 -64 88 -10 20 -31 48 -46 62 -15 14 -38 46 -50 71 -13 25 -35 60 -50 77
-14 17 -37 57 -52 89 -14 32 -41 77 -58 100 -18 23 -39 68 -48 100 -9 32 -32
82 -51 112 -21 33 -41 81 -51 127 -9 40 -30 99 -47 131 -19 36 -39 100 -55
177 -14 67 -35 148 -48 182 -34 90 -43 147 -61 369 -19 254 -19 565 0 816 18
226 26 271 60 363 14 36 35 117 46 178 14 71 33 133 52 172 17 34 41 100 54
147 13 48 37 109 54 135 17 27 38 73 46 101 8 29 31 76 50 104 20 28 44 71 55
96 11 25 31 59 45 76 14 16 38 55 54 86 15 31 40 67 55 81 15 14 34 39 42 55
9 17 33 50 55 75 22 25 56 66 76 92 169 215 372 419 515 517 26 17 58 43 72
57 14 14 41 32 60 40 19 7 50 27 68 44 19 17 61 42 93 56 33 15 73 39 89 55
17 15 57 37 90 49 33 12 77 36 98 52 21 16 64 38 96 49 32 11 82 35 111 54 34
22 81 40 129 51 42 9 110 32 153 50 48 22 118 42 190 54 62 11 140 30 173 41
164 54 554 79 955 59z"/>
<path d="M4737 7246 c-10 -8 -22 -29 -27 -47 -14 -49 -13 -3249 1 -3286 6 -15
20 -38 31 -50 l21 -23 357 0 357 0 21 23 c11 12 25 35 31 50 14 37 15 3237 1
3286 -17 62 -9 60 -410 60 -292 0 -369 -2 -383 -13z"/>
</g>
</svg>
