<?xml version="1.0" standalone="no"?>
<!DOCTYPE svg PUBLIC "-//W3C//DTD SVG 20010904//EN"
 "http://www.w3.org/TR/2001/REC-SVG-20010904/DTD/svg10.dtd">
<svg version="1.0" xmlns="http://www.w3.org/2000/svg"
 width="200.000000pt" height="200.000000pt" viewBox="0 0 200.000000 200.000000"
 preserveAspectRatio="xMidYMid meet">
<metadata>
Created by potrace 1.15, written by Peter Selinger 2001-2017
</metadata>
<g transform="translate(0.000000,200.000000) scale(0.100000,-0.100000)"
fill="#000000" stroke="none">
<path d="M740 1916 c0 -67 3 -85 16 -90 20 -8 458 -8 478 0 13 5 16 23 16 90
l0 84 -255 0 -255 0 0 -84z"/>
<path d="M1547 1802 l-58 -59 102 -106 c56 -59 105 -107 110 -107 11 0 119
102 119 114 0 5 -39 49 -87 98 -48 49 -91 95 -96 103 -14 25 -31 17 -90 -43z"/>
<path d="M905 1744 c-191 -14 -403 -124 -539 -280 -155 -177 -236 -426 -207
-637 7 -51 16 -103 20 -117 5 -14 15 -45 22 -70 38 -127 166 -310 274 -388 69
-50 158 -99 240 -132 86 -35 263 -54 366 -40 138 18 172 28 269 74 162 78 253
157 348 303 107 163 156 364 132 541 -40 304 -208 540 -477 670 -62 30 -71 33
-158 56 -54 15 -210 25 -290 20z m295 -202 c178 -58 336 -203 404 -372 52
-130 63 -323 25 -441 -78 -245 -212 -375 -473 -459 -50 -16 -272 -16 -322 0
-251 81 -399 220 -464 435 -7 22 -16 50 -21 63 -5 13 -9 74 -9 137 0 158 28
257 103 369 75 111 130 161 248 224 50 26 72 35 169 62 60 16 266 6 340 -18z"/>
<path d="M917 1414 c-4 -4 -7 -157 -7 -341 l0 -333 85 0 85 0 -2 338 -3 337
-75 3 c-42 1 -79 0 -83 -4z"/>
</g>
</svg>
