<?xml version="1.0" standalone="no"?>
<!DOCTYPE svg PUBLIC "-//W3C//DTD SVG 20010904//EN"
 "http://www.w3.org/TR/2001/REC-SVG-20010904/DTD/svg10.dtd">
<svg version="1.0" xmlns="http://www.w3.org/2000/svg"
 width="1024.000000pt" height="1024.000000pt" viewBox="0 0 1024.000000 1024.000000"
 preserveAspectRatio="xMidYMid meet">
<metadata>
Created by potrace 1.13, written by Peter Selinger 2001-2015
</metadata>
<g transform="translate(0.000000,1024.000000) scale(0.100000,-0.100000)"
fill="#000000" stroke="none">
<path d="M3005 9365 c-77 -12 -196 -27 -265 -33 -139 -12 -156 -16 -170 -43
-11 -19 5 -69 22 -69 14 0 1591 -1582 1629 -1635 20 -27 39 -59 43 -71 3 -11
-7 -66 -23 -125 -17 -57 -35 -134 -42 -171 -7 -46 -23 -88 -49 -130 -20 -35
-45 -87 -55 -116 -9 -30 -30 -68 -45 -85 -15 -18 -39 -55 -53 -84 -15 -28 -31
-54 -37 -58 -5 -3 -29 -34 -52 -68 -76 -113 -242 -293 -296 -321 -15 -8 -55
-34 -87 -58 -33 -25 -76 -50 -95 -58 -19 -7 -52 -26 -73 -42 -21 -16 -68 -40
-105 -53 -37 -12 -93 -39 -125 -58 -41 -25 -79 -39 -130 -47 -40 -6 -108 -20
-152 -32 -44 -11 -90 -22 -103 -25 -15 -4 -40 7 -79 33 -33 22 -407 388 -865
847 -532 531 -814 807 -828 807 -29 0 -48 -36 -60 -120 -6 -41 -21 -124 -33
-185 -19 -94 -22 -144 -22 -345 0 -204 3 -250 22 -345 13 -60 31 -176 42 -257
15 -108 28 -168 51 -225 17 -43 40 -118 50 -168 21 -101 30 -127 60 -170 11
-16 29 -61 41 -100 11 -38 36 -93 55 -122 20 -28 44 -75 55 -105 11 -29 33
-66 49 -83 16 -16 36 -47 45 -69 9 -21 38 -67 66 -103 27 -35 49 -68 49 -73 0
-5 20 -32 45 -60 24 -27 49 -60 56 -72 6 -13 27 -39 45 -58 19 -19 80 -86 135
-148 56 -62 119 -127 141 -145 22 -17 55 -46 72 -63 18 -18 53 -41 77 -51 24
-11 52 -30 63 -41 10 -12 53 -35 95 -53 42 -17 85 -39 96 -49 33 -29 76 -47
160 -65 44 -10 117 -31 162 -46 127 -43 215 -53 468 -53 253 0 398 12 580 49
161 32 228 42 370 55 66 5 167 17 223 27 98 15 108 15 178 -1 127 -30 107 -12
564 -496 91 -95 188 -199 215 -229 28 -30 73 -77 100 -105 28 -28 95 -100 150
-160 95 -103 140 -151 246 -263 60 -63 325 -359 412 -459 38 -43 88 -101 112
-129 25 -27 69 -79 100 -115 63 -73 128 -146 195 -219 25 -27 72 -81 105 -121
33 -40 72 -85 86 -101 15 -15 42 -48 60 -71 18 -24 49 -62 68 -85 20 -23 61
-71 91 -107 74 -89 152 -181 200 -236 40 -46 76 -91 152 -190 23 -30 63 -79
90 -108 26 -30 48 -57 48 -62 0 -5 17 -19 37 -31 21 -13 58 -40 83 -60 25 -21
66 -47 92 -58 25 -11 69 -35 97 -54 38 -26 69 -38 123 -47 80 -13 213 -42 298
-65 86 -24 182 -19 301 14 57 17 146 37 197 46 94 15 123 25 153 52 9 7 44 28
77 46 78 42 200 148 243 212 19 28 50 68 69 91 19 23 41 59 49 80 8 21 29 61
47 87 32 46 41 69 62 162 5 22 21 80 36 129 39 132 37 245 -8 396 -18 63 -37
134 -41 158 -4 23 -23 66 -42 95 -19 29 -45 75 -58 103 -12 27 -36 66 -52 85
-16 18 -42 55 -57 81 -15 25 -37 53 -50 62 -13 8 -33 30 -44 49 -12 18 -44 48
-72 66 -27 18 -50 36 -50 41 0 5 -26 28 -57 50 -62 43 -138 104 -216 173 -27
23 -56 46 -65 51 -9 5 -36 28 -58 50 -23 23 -72 66 -109 96 -37 30 -83 70
-102 88 -19 18 -49 42 -67 55 -17 12 -54 42 -83 67 -29 25 -82 70 -118 100
-36 30 -87 74 -113 97 -116 103 -191 169 -240 212 -29 25 -75 66 -101 91 -26
25 -108 97 -181 160 -162 140 -459 407 -517 464 -23 22 -70 67 -105 99 -127
117 -475 448 -793 756 -194 188 -220 220 -234 288 -26 133 -5 336 54 507 22
65 42 152 55 242 11 77 31 177 44 222 62 206 62 606 1 801 -13 42 -33 119 -45
171 -13 63 -31 114 -53 150 -19 30 -42 78 -52 105 -10 28 -31 65 -46 83 -16
18 -38 52 -50 75 -12 23 -38 62 -58 86 -20 25 -44 56 -53 70 -37 56 -331 361
-365 379 -12 7 -43 30 -68 52 -26 22 -66 50 -88 61 -23 12 -53 32 -67 45 -14
13 -55 38 -90 55 -36 17 -77 41 -92 54 -15 13 -58 35 -97 50 -38 14 -75 33
-82 41 -17 21 -62 43 -123 61 -28 8 -76 30 -106 49 -40 24 -83 39 -157 53 -56
11 -129 32 -163 46 -81 34 -165 52 -280 60 -122 8 -312 31 -420 50 -109 19
-155 18 -325 -10z m5249 -6746 c28 -10 85 -36 126 -57 68 -33 81 -45 132 -117
67 -94 76 -112 90 -185 12 -64 5 -257 -12 -313 -6 -21 -24 -52 -39 -70 -15
-17 -38 -51 -51 -73 -13 -26 -38 -51 -64 -64 -22 -13 -56 -36 -73 -51 -18 -15
-49 -33 -70 -39 -102 -29 -359 -20 -408 15 -11 8 -54 38 -95 67 -68 48 -79 61
-116 133 -22 44 -49 96 -60 115 -16 29 -19 56 -19 155 l0 120 54 99 c72 134
114 176 231 232 141 67 258 77 374 33z"/>
</g>
</svg>
