<?xml version="1.0" standalone="no"?>
<!DOCTYPE svg PUBLIC "-//W3C//DTD SVG 20010904//EN"
 "http://www.w3.org/TR/2001/REC-SVG-20010904/DTD/svg10.dtd">
<svg version="1.0" xmlns="http://www.w3.org/2000/svg"
 width="200.000000pt" height="200.000000pt" viewBox="0 0 200.000000 200.000000"
 preserveAspectRatio="xMidYMid meet">
<metadata>
Created by potrace 1.15, written by Peter Selinger 2001-2017
</metadata>
<g transform="translate(0.000000,200.000000) scale(0.100000,-0.100000)"
fill="#000000" stroke="none">
<path d="M553 1828 c-35 -5 -63 -14 -63 -18 0 -5 72 -79 160 -166 88 -87 163
-167 166 -179 8 -33 -24 -115 -67 -171 -43 -56 -125 -107 -193 -120 l-39 -7
-163 167 c-91 91 -168 166 -173 166 -5 0 -14 -30 -21 -66 -25 -132 25 -309
125 -442 66 -88 111 -121 204 -151 40 -13 170 -14 226 -2 22 5 65 12 95 16
l55 6 99 -103 c54 -57 146 -157 204 -223 59 -66 109 -122 112 -125 3 -3 25
-30 50 -60 25 -30 51 -61 58 -68 6 -8 17 -22 22 -32 6 -11 29 -32 53 -48 151
-103 328 -31 371 151 8 35 -10 100 -42 150 -14 20 -75 79 -136 129 -61 51
-113 95 -116 98 -3 3 -43 39 -90 80 -47 41 -119 107 -160 146 -41 39 -97 91
-124 115 l-48 43 5 56 c3 30 11 75 17 100 6 25 14 72 17 105 13 152 -89 307
-257 388 -88 42 -125 53 -200 62 -30 4 -62 8 -70 9 -8 2 -43 -1 -77 -6z m1062
-1332 c93 -39 65 -176 -37 -176 -44 0 -83 31 -93 73 -9 35 20 86 58 102 40 18
32 17 72 1z"/>
</g>
</svg>
