<?xml version="1.0" standalone="no"?>
<!DOCTYPE svg PUBLIC "-//W3C//DTD SVG 20010904//EN"
 "http://www.w3.org/TR/2001/REC-SVG-20010904/DTD/svg10.dtd">
<svg version="1.0" xmlns="http://www.w3.org/2000/svg"
 width="200.000000pt" height="200.000000pt" viewBox="0 0 200.000000 200.000000"
 preserveAspectRatio="xMidYMid meet">
<metadata>
Created by potrace 1.15, written by Peter Selinger 2001-2017
</metadata>
<g transform="translate(0.000000,200.000000) scale(0.100000,-0.100000)"
fill="#000000" stroke="none">
<path d="M285 1821 c-48 -12 -82 -39 -105 -85 -17 -37 -20 -62 -20 -184 l0
-142 168 2 167 3 5 67 c4 59 9 72 35 98 39 38 90 48 137 26 47 -23 68 -62 68
-130 0 -49 3 -56 23 -61 12 -3 256 -4 542 -3 l520 3 3 130 c2 72 -2 146 -7
165 -14 47 -69 99 -117 111 -46 10 -1375 10 -1419 0z"/>
<path d="M253 1268 c4 -35 11 -92 16 -128 5 -36 32 -222 60 -415 67 -463 64
-447 90 -489 46 -73 28 -71 576 -71 448 0 493 1 522 18 41 22 79 88 88 152 14
106 25 182 79 557 31 212 56 398 56 412 l0 26 -495 0 -495 0 -6 -27 c-15 -58
-16 -58 329 -63 300 -5 317 -6 344 -26 15 -11 38 -36 51 -54 21 -32 22 -40 22
-288 0 -243 -1 -256 -22 -293 -14 -25 -37 -46 -64 -59 -40 -20 -57 -21 -422
-18 -366 3 -382 4 -408 24 -15 11 -37 33 -48 48 -20 26 -21 44 -26 389 l-5
362 -124 3 -124 3 6 -63z"/>
<path d="M664 1067 c-3 -8 -4 -45 -2 -83 l3 -69 330 0 330 0 0 80 0 80 -328 3
c-269 2 -328 0 -333 -11z"/>
<path d="M660 745 l0 -85 335 0 335 0 0 85 0 85 -335 0 -335 0 0 -85z"/>
</g>
</svg>
