<?xml version="1.0" standalone="no"?>
<!DOCTYPE svg PUBLIC "-//W3C//DTD SVG 20010904//EN"
 "http://www.w3.org/TR/2001/REC-SVG-20010904/DTD/svg10.dtd">
<svg version="1.0" xmlns="http://www.w3.org/2000/svg"
 width="200.000000pt" height="200.000000pt" viewBox="0 0 200.000000 200.000000"
 preserveAspectRatio="xMidYMid meet">
<metadata>
Created by potrace 1.15, written by Peter Selinger 2001-2017
</metadata>
<g transform="translate(0.000000,200.000000) scale(0.100000,-0.100000)"
fill="#000000" stroke="none">
<path d="M940 1743 c-62 -11 -127 -62 -176 -138 -18 -29 -19 -54 -19 -610 0
-650 -6 -592 74 -678 68 -73 63 -72 471 -72 l365 0 47 28 c56 33 93 78 119
147 18 47 19 81 19 575 0 494 -1 528 -19 575 -26 69 -63 114 -119 147 l-47 28
-345 1 c-190 1 -356 0 -370 -3z m688 -193 l22 -21 0 -534 0 -534 -22 -21 c-21
-19 -34 -20 -339 -20 -305 0 -317 1 -343 21 l-26 20 0 534 0 534 26 20 c26 20
38 21 343 21 305 0 318 -1 339 -20z"/>
<path d="M550 1639 c-53 -31 -97 -77 -120 -126 -19 -41 -20 -61 -20 -518 0
-462 1 -476 21 -520 38 -80 135 -149 201 -143 l33 3 0 79 c0 79 0 79 -32 95
-17 9 -37 26 -42 39 -15 32 -15 862 0 894 5 13 25 30 42 38 l32 15 0 80 0 80
-40 2 c-25 1 -53 -5 -75 -18z"/>
<path d="M252 1479 c-47 -24 -67 -48 -83 -100 -5 -19 -10 -189 -10 -395 -1
-345 0 -362 20 -406 16 -36 30 -51 65 -68 25 -12 55 -20 66 -18 l21 3 2 500
c1 486 0 500 -19 503 -10 1 -38 -7 -62 -19z"/>
</g>
</svg>
