<?xml version="1.0" standalone="no"?>
<!DOCTYPE svg PUBLIC "-//W3C//DTD SVG 20010904//EN"
 "http://www.w3.org/TR/2001/REC-SVG-20010904/DTD/svg10.dtd">
<svg version="1.0" xmlns="http://www.w3.org/2000/svg"
 width="1024.000000pt" height="1024.000000pt" viewBox="0 0 1024.000000 1024.000000"
 preserveAspectRatio="xMidYMid meet">
<metadata>
Created by potrace 1.13, written by Peter Selinger 2001-2015
</metadata>
<g transform="translate(0.000000,1024.000000) scale(0.100000,-0.100000)"
fill="#000000" stroke="none">
<path d="M2195 8516 c-53 -23 -55 -35 -55 -427 l0 -360 25 -25 24 -24 795 2
c790 3 795 3 823 24 l28 21 3 361 2 361 -27 31 c-17 19 -44 35 -68 40 -23 5
-363 9 -780 9 -590 0 -746 -2 -770 -13z"/>
<path d="M6490 8520 c-19 -5 -47 -22 -62 -40 l-28 -31 2 -361 3 -361 28 -21
c28 -21 33 -21 823 -24 l795 -2 24 24 25 25 0 361 c0 399 -1 408 -61 429 -38
13 -1493 14 -1549 1z"/>
<path d="M1660 7253 c-14 -2 -59 -15 -100 -28 -41 -13 -106 -31 -144 -40 -94
-22 -132 -39 -177 -80 -22 -19 -44 -35 -50 -35 -18 0 -145 -132 -168 -175 -11
-22 -35 -57 -52 -77 -18 -21 -39 -64 -50 -100 -10 -35 -29 -95 -44 -135 l-25
-72 0 -2245 0 -2245 29 -83 c17 -46 35 -101 40 -124 6 -23 22 -56 35 -75 14
-19 41 -60 61 -92 45 -75 152 -180 213 -211 26 -13 65 -38 86 -55 47 -37 66
-43 271 -76 l160 -25 3375 0 3375 0 160 25 c205 33 224 39 271 76 21 17 60 42
86 55 61 31 168 136 213 211 20 32 47 73 61 92 13 19 29 52 35 75 5 23 23 78
40 124 l29 83 0 2245 0 2245 -25 72 c-15 40 -34 100 -44 135 -11 36 -32 79
-50 100 -17 20 -41 55 -52 77 -23 43 -150 175 -168 175 -6 0 -28 16 -50 35
-45 41 -83 58 -177 80 -38 9 -103 28 -144 43 l-75 27 -3460 1 c-1903 1 -3471
0 -3485 -3z m5995 -1738 l25 -24 0 -371 0 -371 25 -24 24 -25 365 0 365 0 27
-24 c37 -31 42 -78 43 -419 1 -299 -5 -350 -46 -389 l-25 -23 -365 -5 -366 -5
-21 -28 c-20 -27 -21 -42 -26 -409 l-5 -380 -24 -19 c-22 -18 -44 -19 -388
-19 l-365 0 -27 28 c-24 24 -29 38 -35 111 -4 46 -6 206 -5 356 4 389 40 358
-426 365 -368 5 -377 7 -418 62 -19 25 -20 43 -19 378 0 393 0 390 69 409 23
7 167 11 358 11 176 0 338 5 359 10 21 5 48 18 60 29 20 20 20 29 17 361 -2
239 1 350 9 375 21 64 24 64 428 65 l363 0 24 -25z m-3452 -826 c69 -19 69
-16 69 -409 1 -335 0 -353 -19 -378 -44 -60 31 -57 -1270 -60 l-1191 -2 -30
25 c-46 39 -52 83 -51 392 1 341 6 388 43 419 l27 24 1192 0 c797 0 1204 -4
1230 -11z"/>
</g>
</svg>
