<?xml version="1.0" standalone="no"?>
<!DOCTYPE svg PUBLIC "-//W3C//DTD SVG 20010904//EN"
 "http://www.w3.org/TR/2001/REC-SVG-20010904/DTD/svg10.dtd">
<svg version="1.0" xmlns="http://www.w3.org/2000/svg"
 width="200.000000pt" height="200.000000pt" viewBox="0 0 200.000000 200.000000"
 preserveAspectRatio="xMidYMid meet">
<metadata>
Created by potrace 1.15, written by Peter Selinger 2001-2017
</metadata>
<g transform="translate(0.000000,200.000000) scale(0.100000,-0.100000)"
fill="#000000" stroke="none">
<path d="M419 1659 c-6 -3 -9 -41 -7 -85 l3 -79 145 -3 c201 -4 191 -8 188 86
l-3 77 -159 5 c-87 3 -162 2 -167 -1z"/>
<path d="M1385 1661 l-140 -6 -3 -77 c-3 -94 -13 -90 188 -86 l145 3 0 85 c0
99 24 89 -190 81z"/>
<path d="M900 1410 l-635 -5 -33 -23 c-18 -13 -41 -41 -52 -62 -19 -37 -20
-61 -20 -485 0 -472 1 -487 48 -538 43 -48 29 -47 764 -50 381 -2 708 0 727 4
49 11 83 39 109 89 22 44 22 47 22 490 0 412 -2 448 -19 486 -32 70 -112 106
-223 102 -29 -2 -339 -5 -688 -8z m597 -405 c1 -38 2 -76 2 -82 1 -9 24 -13
81 -13 l81 0 -3 -82 -3 -83 -75 -1 -75 -1 -5 -79 -5 -79 -82 -3 -82 -3 -3 78
-3 78 -80 5 -80 5 -3 83 -3 82 70 0 c101 0 101 0 101 84 0 40 3 76 7 80 4 4
41 5 83 4 l75 -3 2 -70z m-669 -179 l-3 -81 -245 0 -245 0 -3 82 -3 83 233 2
c128 2 241 1 251 -1 16 -3 17 -13 15 -85z"/>
</g>
</svg>
