<?xml version="1.0" standalone="no"?>
<!DOCTYPE svg PUBLIC "-//W3C//DTD SVG 20010904//EN"
 "http://www.w3.org/TR/2001/REC-SVG-20010904/DTD/svg10.dtd">
<svg version="1.0" xmlns="http://www.w3.org/2000/svg"
 width="200.000000pt" height="200.000000pt" viewBox="0 0 200.000000 200.000000"
 preserveAspectRatio="xMidYMid meet">
<metadata>
Created by potrace 1.15, written by Peter Selinger 2001-2017
</metadata>
<g transform="translate(0.000000,200.000000) scale(0.100000,-0.100000)"
fill="#000000" stroke="none">
<path d="M302 1824 c-33 -13 -62 -49 -62 -76 0 -15 82 -229 134 -353 7 -16 18
-43 25 -58 8 -20 11 -180 11 -543 0 -567 -2 -550 62 -597 60 -44 94 -47 477
-47 447 0 474 5 526 95 l25 42 0 688 0 687 56 -4 c39 -3 61 -11 77 -27 22 -21
22 -27 24 -364 2 -188 3 -345 3 -349 0 -12 168 -10 172 2 2 5 1 173 -2 373
l-5 364 -30 49 c-41 65 -109 111 -178 118 -28 3 -330 7 -669 9 -473 3 -624 1
-646 -9z m1012 -170 c13 -5 16 -25 16 -120 l0 -113 -127 -3 -128 -3 -3 -65
c-5 -114 -11 -109 131 -112 l122 -3 3 -54 c6 -103 10 -100 -131 -103 l-122 -3
0 -80 0 -80 122 -3 121 -3 4 -70 c2 -42 -1 -74 -8 -80 -5 -4 -62 -10 -125 -11
l-114 -3 0 -85 0 -85 123 -5 c67 -3 122 -8 122 -12 0 -5 0 -55 0 -113 l0 -105
-370 0 -370 0 0 519 c0 560 4 515 -54 646 -12 28 -29 66 -36 85 -7 19 -18 40
-23 47 -7 9 14 13 90 16 191 6 742 7 757 1z"/>
</g>
</svg>
