<?xml version="1.0" standalone="no"?>
<!DOCTYPE svg PUBLIC "-//W3C//DTD SVG 20010904//EN"
 "http://www.w3.org/TR/2001/REC-SVG-20010904/DTD/svg10.dtd">
<svg version="1.0" xmlns="http://www.w3.org/2000/svg"
 width="1024.000000pt" height="1024.000000pt" viewBox="0 0 1024.000000 1024.000000"
 preserveAspectRatio="xMidYMid meet">
<metadata>
Created by potrace 1.13, written by Peter Selinger 2001-2015
</metadata>
<g transform="translate(0.000000,1024.000000) scale(0.100000,-0.100000)"
fill="#000000" stroke="none">
<path d="M1740 9389 c-41 -3 -84 -10 -95 -16 -11 -6 -55 -23 -99 -37 -67 -22
-86 -33 -135 -83 -70 -70 -74 -78 -100 -180 -27 -105 -27 -121 9 -263 29 -121
38 -144 71 -190 10 -14 28 -61 40 -105 12 -44 36 -105 55 -135 18 -30 40 -84
49 -120 9 -36 34 -96 55 -135 21 -38 43 -95 50 -125 7 -30 29 -86 50 -125 21
-38 45 -99 54 -135 9 -35 30 -85 46 -110 16 -25 41 -84 54 -132 14 -47 39
-107 55 -134 16 -27 37 -78 46 -114 9 -36 32 -93 52 -128 19 -35 43 -95 54
-135 11 -40 30 -88 43 -107 12 -19 27 -44 32 -55 5 -12 11 -1067 14 -2665 6
-2895 1 -2702 62 -2782 14 -18 34 -55 46 -81 35 -79 172 -235 242 -275 25 -14
56 -35 70 -47 39 -35 58 -42 175 -64 61 -12 139 -30 174 -41 64 -20 85 -21
1996 -20 l1932 0 84 24 c46 14 126 32 177 41 61 11 103 25 125 41 17 13 55 37
83 54 46 28 120 100 216 212 20 24 46 68 58 98 12 30 33 75 47 98 14 24 30 58
36 75 9 24 13 918 17 3509 l5 3477 23 23 c22 22 27 23 220 21 225 -1 334 -18
391 -58 20 -14 64 -51 98 -82 74 -70 90 -113 103 -283 6 -65 10 -812 9 -1729
0 -1574 0 -1615 19 -1633 32 -33 86 -38 412 -38 325 0 380 5 412 37 18 19 19
72 19 1774 l0 1755 -30 94 c-15 52 -34 121 -41 152 -7 31 -23 74 -36 95 -13
21 -39 70 -58 108 -19 39 -45 79 -57 90 -12 11 -33 39 -48 62 -46 73 -180 211
-246 254 -36 23 -65 45 -65 50 0 4 -35 25 -77 45 -43 20 -91 47 -106 60 -34
29 -75 40 -192 54 -49 6 -138 22 -197 36 l-107 24 -3158 3 c-1737 1 -3192 0
-3233 -4z m5030 -880 c65 -30 61 6 62 -619 0 -441 -3 -575 -13 -586 -32 -38
-41 -39 -641 -44 l-587 -5 -23 -23 c-23 -22 -23 -23 -26 -382 -3 -388 -2 -402
51 -432 17 -10 153 -14 582 -18 608 -5 595 -4 638 -62 19 -25 20 -43 19 -378
0 -393 0 -390 -69 -409 -24 -7 -235 -11 -583 -11 -319 0 -559 -4 -579 -10 -62
-17 -60 -9 -60 -410 0 -401 -2 -393 60 -410 20 -6 260 -10 579 -10 348 0 559
-4 583 -11 69 -19 69 -16 69 -409 1 -335 0 -353 -19 -378 -43 -58 -30 -57
-638 -62 -429 -4 -565 -8 -582 -18 -53 -30 -54 -44 -51 -432 3 -359 3 -360 26
-382 l23 -23 587 -5 c600 -5 609 -6 641 -44 10 -11 13 -145 13 -586 -1 -625 3
-589 -62 -619 -32 -14 -209 -16 -1790 -19 -965 -2 -1797 0 -1848 3 -77 6 -98
11 -120 30 l-27 23 -5 2639 c-6 2891 -1 2688 -63 2781 -14 21 -35 72 -47 113
-12 41 -35 95 -52 121 -16 26 -40 82 -54 126 -13 44 -40 106 -59 138 -19 32
-35 63 -35 69 0 29 -33 115 -59 155 -16 25 -39 79 -51 120 -12 41 -37 100 -56
130 -18 30 -38 78 -45 105 -13 55 -32 98 -60 134 -22 28 -24 70 -5 96 10 14
32 21 73 26 32 3 1005 6 2163 5 1904 -1 2108 -3 2140 -17z"/>
</g>
</svg>
